<?xml version="1.0" encoding="utf-8"?>
<!-- Generator: Adobe Illustrator 17.0.0, SVG Export Plug-In . SVG Version: 6.00 Build 0)  -->
<!DOCTYPE svg PUBLIC "-//W3C//DTD SVG 1.1//EN" "http://www.w3.org/Graphics/SVG/1.1/DTD/svg11.dtd">
<svg version="1.1" xmlns="http://www.w3.org/2000/svg" xmlns:xlink="http://www.w3.org/1999/xlink" x="0px" y="0px" width="148px"
	 height="2370px" viewBox="0 0 148 2370" enable-background="new 0 0 148 2370" xml:space="preserve">
<g id="Layer_2_1_" display="none">
	<rect x="0.012" y="-0.542" display="inline" fill="#A82020" width="148" height="2379"/>
</g>
<g id="Layer_1">
	<g id="Layer_2" display="none">
		<rect display="inline" fill="#720707" width="148" height="2370"/>
	</g>
	
		<image display="none" overflow="visible" enable-background="new    " width="300" height="2000" id="t9AupK_2_" xlink:href="1EBD2A1FCDAC6AC8.jpeg" >
	</image>
	<g>
		<path fill="#F47A2B" d="M73.917,256.25c0.026,0.106,0.197,0.098,0.17,0.248c0.117,0.034,0.143,0.142,0.226,0.204
			c0.024,0.256,0.28,0.327,0.3,0.586c0.13,0.113,0.157,0.31,0.278,0.428c0.017,0.031,0.017,0.076,0.027,0.112
			c0.344,0.499,0.677,1.005,1.06,1.473c0.053,0.017,0.068,0.063,0.132,0.071c-0.006,0.039,0.023,0.05,0.029,0.082
			c0.106,0.037,0.177,0.104,0.261,0.158c0.227-0.045,0.27,0.164,0.447,0.205c0.083-0.053,0.18-0.009,0.278-0.061
			c0.274,0.123,0.561-0.001,0.846,0.105c0.181-0.079,0.453-0.005,0.555-0.135c0.127,0.008,0.145,0.005,0.256,0.002
			c0.039-0.02-0.001-0.125,0.06-0.121c0.054,0,0.054,0.045,0.117,0.039c0.022-0.085,0.092-0.143,0.194-0.097
			c0.128-0.184,0.269-0.354,0.332-0.606c-0.166-0.041-0.234,0.021-0.328,0.056c-0.167-0.029-0.294-0.089-0.399-0.168
			c0,0.082-0.081,0.013-0.104,0.04c-0.082-0.106-0.019-0.33-0.072-0.46c-0.14-0.153-0.223-0.353-0.321-0.542
			c-0.03-0.017-0.06,0.043-0.067-0.004c-0.027-0.299-0.288-0.49-0.308-0.745c0.091,0.006,0.139,0.125,0.197,0.108
			c-0.031-0.08-0.111-0.109-0.161-0.137c0.005-0.04,0.015-0.074,0.041-0.092c0.159,0.105,0.26,0.254,0.383,0.388
			c-0.018,0.037-0.044,0.065-0.042,0.124c0.049,0.026,0.12,0.154,0.165,0.089c-0.024-0.068-0.154-0.118-0.106-0.196
			c0.107,0.063,0.211,0.204,0.309,0.226c-0.401-0.398-0.659-0.912-0.964-1.387c-0.015,0.03-0.062,0.052-0.086,0.025
			c-0.042-0.05,0.028-0.124-0.007-0.158c-0.026,0.017-0.051,0.037-0.072,0.058c-0.093-0.141-0.131-0.401-0.167-0.545
			c-0.053-0.212-0.069-0.519-0.068-0.76c0.002-0.458,0.06-1.158,0.129-1.627c0.12-0.827,0.329-1.577,0.583-2.287
			c0.117-0.329,0.283-1,0.402-0.902c0.082-0.108,0.072-0.315,0.197-0.378c-0.018,0.127-0.128,0.244-0.11,0.354
			c0.358-0.882,0.792-1.683,1.387-2.312c0.016-0.047-0.025-0.048-0.01-0.095c0.112-0.112,0.207-0.24,0.378-0.289
			c-0.008-0.093,0.057-0.18,0.128-0.133c0.004-0.107,0.241-0.105,0.186-0.208c-0.041,0.055-0.035-0.049-0.083-0.037
			c-0.081,0.055-0.16,0.111-0.234,0.173c-0.022,0.077,0.005,0.056,0.01,0.111c-0.043,0.035-0.031-0.026-0.084-0.022
			c-0.167,0.203-0.394,0.345-0.583,0.526c0.009,0.139-0.167,0.212-0.211,0.348c-0.09-0.015-0.104,0.117-0.175,0.066
			c0.206-0.325,0.5-0.647,0.743-0.877c0.005,0.025-0.067,0.049-0.069,0.011c0.073-0.213,0.307-0.257,0.438-0.411
			c-0.058,0.008-0.06-0.029-0.064-0.066c0.027-0.121,0.21-0.137,0.274-0.264c-0.023-0.045-0.072,0.022-0.084-0.022
			c0.016-0.094,0.098-0.121,0.118-0.212c0.259-0.067,0.431-0.227,0.638-0.349c-0.226-0.021-0.251,0.17-0.456,0.173
			c-0.03,0.035-0.013,0.12-0.076,0.12c-0.233-0.027-0.271,0.152-0.439,0.191c-0.001-0.119,0.063-0.167,0.181-0.161
			c0.04-0.16,0.222-0.168,0.31-0.277c-0.228,0.044-0.323,0.229-0.564,0.26c-0.011-0.044,0.027-0.039,0.022-0.077
			c-0.029-0.011-0.101,0.012-0.101-0.022c0.111-0.18,0.308-0.268,0.487-0.375c-0.113-0.006-0.004-0.083,0.007-0.11
			c-0.054-0.022-0.107,0.041-0.136-0.01c0.12-0.125,0.346-0.226,0.512-0.248c-0.034,0.065-0.12,0.076-0.146,0.148
			c0.068-0.021,0,0.068,0.046,0.066c0.061-0.042,0.058-0.152,0.164-0.146c0.007-0.05-0.025-0.068-0.008-0.126
			c0.099,0.033,0.102-0.037,0.125-0.086c-0.106,0.023-0.196,0.061-0.296,0.09c-0.012-0.045-0.051-0.068-0.042-0.128
			c-0.088,0.02-0.187,0.027-0.229,0.094c0.082,0.127,0.174-0.074,0.208-0.048c0.008,0.069-0.054,0.066-0.059,0.122
			c-0.32,0.097-0.562,0.279-0.911,0.346c-0.029-0.028,0.018-0.051,0.008-0.109c0.048-0.015,0.117-0.008,0.187-0.002
			c-0.01-0.062,0.045-0.053,0.058-0.091c-0.073,0.034-0.093-0.011-0.134-0.041c-0.052,0.04-0.171,0.098-0.228,0.079
			c0.036-0.158,0.186-0.216,0.259-0.297c-0.123,0.058-0.325,0.13-0.378,0.038c0.332-0.187,0.798-0.32,1.06-0.526
			c0.035,0.032,0.131-0.002,0.089-0.041c-0.583,0.226-1.15,0.553-1.739,0.714c0.149-0.236,0.494-0.355,0.733-0.484
			c0.074-0.04,0.218-0.061,0.216-0.158c-0.263,0.08-0.432,0.26-0.674,0.362c-0.018-0.025-0.069-0.023-0.062-0.067
			c0.019-0.07,0.105-0.066,0.128-0.133c-0.087,0.007-0.193,0.07-0.258,0.045c0.029-0.042,0.149-0.075,0.126-0.117
			c-0.088,0.046-0.195,0.086-0.242,0.045c-0.072,0.103-0.154,0.196-0.304,0.215c-0.079-0.069-0.098,0.015-0.206,0.001
			c0.011-0.111,0.016-0.219-0.067-0.256c-0.063-0.003-0.19,0.154-0.281,0.123c-0.004-0.032,0.099-0.073,0.022-0.077
			c-0.104,0.03-0.102,0.172-0.203,0.207c-0.034-0.011-0.052-0.037-0.081-0.052c-0.112,0.099-0.251,0.171-0.376,0.257
			c-0.016-0.041,0.084-0.055,0.004-0.062c-0.076,0.016-0.042,0.071-0.044,0.139c-0.175,0.094-0.246,0.292-0.42,0.396
			c-0.059,0.037-0.116,0.025-0.156,0.052c-0.253,0.171-0.493,0.468-0.613,0.729c-0.011-0.026,0.082-0.02,0.067,0.004
			c-0.024,0.144-0.306,0.109-0.172,0.271c-0.029,0-0.053-0.006-0.067-0.021c0,0.103-0.1,0.14-0.151,0.21
			c-0.218,0.301-0.328,0.667-0.463,1.039c-0.069,0.187-0.169,0.365-0.243,0.549c-0.1,0.251-0.122,0.535-0.306,0.734
			c-0.016-0.022-0.012-0.059-0.047-0.066c-0.035,0.021,0.025,0.067-0.04,0.076c-0.035-0.085-0.057-0.181-0.065-0.287
			c-0.049-0.052-0.032,0.051-0.104,0.024c0.015-0.071-0.022-0.1-0.005-0.174c0.03-0.004,0.042,0.026,0.051,0.004
			c-0.119-0.133,0.03-0.417-0.116-0.543c0.002,0.051-0.051,0.08-0.088,0.041c0.007,0.038-0.029,0.112,0.008,0.126
			c0.01-0.03,0.011-0.067,0.056-0.059c0.019,0.084,0.038,0.194-0.033,0.233c0.065,0.36,0.188,0.652,0.189,0.972
			c-0.178-0.44-0.31-1.053-0.339-1.517c0.035,0.044,0.023,0.129,0.073,0.162c0.004-0.071-0.009-0.062,0.01-0.125
			c0.042-0.043,0.076,0.002,0.104-0.04c-0.001-0.103-0.036-0.178-0.085-0.241c-0.015,0.062,0.01,0.167-0.031,0.202
			c-0.056-0.104-0.066-0.243-0.094-0.369c-0.062,0.133,0.103,0.275,0.008,0.378c-0.062,0.02-0.007-0.054-0.048-0.051
			c-0.011,0.027,0.015,0.093-0.023,0.093c-0.036-0.037-0.048-0.089-0.041-0.161c0.038-0.008,0.051,0.047,0.052-0.012
			c-0.025-0.173-0.141-0.428-0.044-0.601c0.041,0.11,0.022,0.269,0.114,0.338c-0.045-0.298-0.072-0.541-0.166-0.813
			c-0.018,0.114,0.074,0.277-0.007,0.346c-0.056-0.093-0.056-0.284-0.094-0.368c-0.012,0.031,0.015,0.104-0.024,0.108
			c-0.052-0.056-0.02-0.133,0.012-0.188c-0.066-0.015-0.022-0.034-0.01-0.11c0.026-0.16-0.043-0.3-0.041-0.397
			c0.135,0.063,0.048,0.307,0.143,0.403c0.021-0.078,0.003-0.205-0.012-0.315c-0.028-0.203-0.078-0.43-0.113-0.59
			c0.029-0.276-0.071-0.573-0.095-0.856c-0.049,0.124,0.081,0.36-0.016,0.471c-0.047-0.198-0.111-0.494,0.061-0.625
			c-0.035-0.163-0.085-0.383-0.063-0.57c-0.003,0.041,0.008,0.099-0.057,0.074c-0.001-0.112,0.081-0.158,0.017-0.25
			c0.004,0.019-0.052,0.05-0.052,0.012c0.085-0.069,0.089-0.296,0.007-0.361c0.015-0.023,0.056-0.019,0.055-0.059
			c-0.152-1.848,0.108-3.762,0.416-5.571c0.066-0.128,0.121-0.348,0.119-0.495c0.072-0.105,0.113-0.25,0.094-0.371
			c0.132-0.179,0.13-0.38,0.193-0.584c0.155-0.5,0.361-1.095,0.533-1.552c0.042-0.112,0.129-0.203,0.139-0.29
			c0-0.001-0.032-0.061-0.03-0.064c0.019-0.044,0.086-0.087,0.112-0.134c0.032-0.061,0.058-0.126,0.081-0.184
			c0.217-0.528,0.452-1.048,0.702-1.524c0.119-0.226,0.314-0.522,0.456-0.676c0.101-0.353,0.368-0.53,0.501-0.846
			c0.205-0.197,0.353-0.457,0.542-0.67c0.109-0.349,0.418-0.487,0.518-0.846c0.048,0.017,0.046-0.018,0.086-0.009
			c0.182-0.339,0.461-0.576,0.643-0.915c0.037-0.012,0.078-0.019,0.105-0.04c0.394-0.552,0.896-0.99,1.332-1.498
			c0.233-0.1,0.336-0.338,0.576-0.432c0.268-0.259,0.586-0.465,0.868-0.711c0.222-0.091,0.355-0.274,0.54-0.403
			c0.221-0.12,0.42-0.261,0.578-0.448c0.171-0.02,0.2-0.191,0.356-0.227c0.003-0.042,0-0.09,0.025-0.108
			c0.023-0.021,0.075-0.011,0.121-0.008c0.001-0.026,0.003-0.052,0.005-0.078c0.151-0.042,0.206-0.189,0.309-0.278
			c0.03-0.025,0.091-0.029,0.124-0.054c0.206-0.167,0.342-0.422,0.551-0.56c0.262-0.174,0.476-0.386,0.656-0.632
			c0.05-0.013,0.073-0.011,0.119,0.008c0.08-0.396,0.082-0.876,0.315-1.11c-0.285-0.197-0.567-0.019-0.833-0.057
			c-0.139-0.02-0.244,0.015-0.395,0.036c-0.39,0.055-0.767,0.147-1.077,0.272c-1.21,0.245-2.247,0.655-3.235,1.132
			c-0.871,0.421-1.6,0.953-2.337,1.476c-0.223,0.134-0.407,0.308-0.596,0.478c-2.038,1.597-3.604,3.689-4.953,6.015
			c-0.202,0.508-0.505,0.909-0.663,1.465c-0.34,0.707-0.627,1.507-0.876,2.314c-0.061,0.198-0.085,0.431-0.144,0.604
			c-0.144,0.425-0.252,0.863-0.346,1.313c-0.056,0.272-0.173,0.635-0.196,0.883c-0.072,0.742-0.174,1.748-0.25,2.404
			c-0.044,0.381,0,0.834-0.011,1.164c-0.003,0.096-0.048,0.193-0.054,0.294c-0.035,0.519,0.062,0.961,0.072,1.436
			c0.002,0.099-0.026,0.202-0.02,0.297c0.014,0.228,0.079,0.447,0.091,0.667c0.013,0.239-0.007,0.473,0.021,0.708
			c0.032,0.292,0.06,0.594,0.18,0.862c0,0.069,0.019,0.123,0.003,0.205c0.028,0.053,0.104,0.117-0.01,0.141
			c-0.055-0.005-0.005-0.094-0.08-0.084c-0.178-0.095-0.361-0.154-0.477-0.269c-0.039-0.002-0.079-0.005-0.119-0.008
			c-0.006-0.054-0.071-0.061-0.095-0.102c-0.257-0.02-0.418-0.129-0.652-0.201c-0.068,0.064-0.191-0.019-0.235-0.064
			c-0.036,0.007-0.057,0.03-0.088,0.041c-0.203-0.062-0.408-0.22-0.668-0.217c-0.049,0-0.089,0.025-0.139,0.021
			c-0.223-0.018-0.493-0.167-0.771-0.195c-0.219-0.021-0.406-0.026-0.612-0.041c-0.209-0.082-0.54-0.119-0.743-0.114
			c0.135,0.031,0.456,0.051,0.346,0.181c0.103-0.028,0.184-0.051,0.272,0.018c-0.003,0.042,0,0.091-0.025,0.109
			c-0.261-0.021-0.485-0.013-0.584-0.182c0.028,0.068-0.007,0.158-0.064,0.185c-0.117,0.018-0.166-0.13-0.22-0.031
			c0.052,0.003,0.112-0.001,0.099,0.054c-0.125,0.02-0.301-0.016-0.395,0.036c-0.012-0.138-0.235-0.033-0.29-0.004
			c0.045,0.012,0.109-0.039,0.136,0.009c0.042,0.038-0.057,0.048-0.006,0.095c0.081,0.027,0.197,0.027,0.25,0.08
			c-0.069,0.027-0.209-0.003-0.237-0.017c0.032,0.078,0.227,0.025,0.249,0.111c-0.055,0.021-0.143,0.006-0.174,0.051
			c0.032,0.015,0.057,0.059,0.029,0.081c-0.085-0.017-0.121,0.018-0.206,0.001c0.026,0.195-0.284,0.035-0.365,0.116
			c-0.015,0.057,0.079,0.024,0.08,0.069c-0.088,0.098-0.091,0.183-0.189,0.271c0.021,0.023,0.091-0.04,0.101,0.037
			c-0.188,0.015-0.349-0.036-0.465,0.063c0.019,0.063,0.132,0.052,0.164,0.105c-0.017,0.044,0.021,0.042,0.011,0.08
			c-0.118,0.025-0.294,0.018-0.399,0.098c0.022,0.057,0.148,0.029,0.128,0.119c-0.04,0.018-0.067,0.052-0.091,0.088
			c-0.24,0.004-0.366,0.128-0.622,0.115c0.1,0.134,0.268-0.047,0.392,0.011c-0.087,0.205-0.396,0.088-0.604,0.1
			c0.099,0.084,0.322,0.067,0.38,0.183c-0.214,0.046-0.384-0.128-0.577-0.055c0.578,0.224,1.113,0.479,1.694,0.699
			c0.123,0.083,0.239,0.172,0.448,0.187c0.015,0.087,0.14,0.086,0.178,0.154c0.061,0.003,0.084-0.034,0.138-0.038
			c0.006,0.059,0.027,0.107,0.076,0.131c0.031-0.017,0.049-0.049,0.106-0.04c-0.017,0.018-0.026,0.041-0.022,0.077
			c0.11,0.059,0.243,0.1,0.329,0.179c0.041-0.002,0.015-0.073,0.072-0.058c0.161,0.074,0.312,0.155,0.48,0.223
			c0,0.039-0.03,0.045-0.04,0.075c0.145,0.146,0.444,0.166,0.594,0.308c0.409,0.106,0.6,0.385,0.99,0.508
			c-0.018,0.049,0.01,0.06,0.028,0.081c0.02,0.022,0.072,0.021,0.117,0.023c0.062,0.063,0.175,0.086,0.229,0.157
			c0.034,0.002,0.067,0.005,0.102,0.007c0.525,0.288,0.939,0.666,1.435,0.978c0.158,0.14,0.294,0.297,0.521,0.382
			c0.023,0.06,0.075,0.099,0.091,0.164c0.068,0.014,0.096,0.061,0.184,0.06c0.008,0.067,0.062,0.097,0.093,0.147
			c0.072-0.009,0.078,0.036,0.133,0.041c0.7,0.715,1.405,1.427,2.017,2.213c0.014,0.038,0.024,0.079,0.025,0.128
			c0.059,0.026,0.103,0.064,0.092,0.147c0.185,0.12,0.255,0.371,0.268,0.585c0.088-0.028,0.184,0.084,0.14,0.198
			c0.033,0.056,0.094-0.027,0.102,0.007c0,0.05-0.049,0.049-0.041,0.107c0.05,0.046,0.101,0.035,0.149,0.058
			c0.008,0.082,0,0.096,0.022,0.174c0.042,0.036,0.077-0.042,0.139-0.038c0.192,0.334,0.401,0.656,0.652,0.941
			C74.013,256.391,73.779,256.315,73.917,256.25z M78.49,249.784c0.061-0.383,0.297-0.728,0.464-1.053
			c0.005,0.133-0.124,0.272-0.165,0.413c-0.03,0.054,0.057,0.014,0.048,0.051c0.005,0.05-0.029,0.059-0.041,0.092
			c-0.037,0.005-0.03-0.025-0.031-0.05C78.637,249.38,78.61,249.631,78.49,249.784z M80.441,245.718
			c-0.007,0.055-0.065,0.055-0.075,0.105c-0.045-0.009-0.059-0.042-0.045-0.098C80.344,245.707,80.395,245.715,80.441,245.718z
			 M80.188,246.912c0,0.057-0.03,0.081-0.09,0.073C80.096,246.927,80.145,246.922,80.188,246.912z M77.784,256.86
			c-0.022-0.025-0.059-0.072-0.027-0.097C77.792,256.778,77.818,256.833,77.784,256.86z M73.686,255.872
			c-0.002,0.037-0.005,0.074-0.007,0.11c-0.051-0.016-0.076-0.104-0.06-0.129C73.634,255.865,73.657,255.871,73.686,255.872z
			 M74.035,247.278c0.051,0.015,0.036-0.042,0.088-0.025c-0.014,0.06,0.024,0.078,0.007,0.142c-0.034,0.045-0.063-0.062-0.103-0.006
			c-0.073-0.125-0.064-0.224-0.093-0.384C74.046,247.032,73.957,247.222,74.035,247.278z M73.871,244.688
			c-0.06-0.018-0.096-0.22-0.002-0.22C73.882,244.531,73.88,244.606,73.871,244.688z M73.8,245.469c0,0.039-0.003,0.075-0.023,0.092
			C73.732,245.564,73.723,245.434,73.8,245.469z M66.079,245.554c-0.011,0.061-0.081,0.071-0.139,0.037
			C65.934,245.523,66.022,245.555,66.079,245.554z"/>
	</g>
	<g>
		<path fill="#FFFFFF" d="M77.734,96.562v-2.693c0,0-3.872-0.451-5.027,0.984c-0.952,1.183-0.789,4.281-0.789,4.281h-1.652v2.785
			h1.652v8.02h3.305l0.039-8.068l2.227-0.013l0.245-2.792l-2.496,0.023l0.07-1.63c0,0-0.023-0.391,0.161-0.62
			C75.651,96.608,77.289,96.631,77.734,96.562z"/>
	</g>
	<g>
		<rect x="67.35" y="145.385" fill="#FFFFFF" width="2.82" height="8.947"/>
		<path fill="#FFFFFF" d="M71.872,145.385h3.015v1.021c0,0,0.287-1.261,2.626-1.264c3.404-0.005,3.404,3.063,3.404,3.063v6.127
			h-2.966v-5.592c0,0-0.39-1.195-1.458-1.216c-1.24-0.024-1.556,1.532-1.556,1.532v5.276h-3.064L71.872,145.385L71.872,145.385
			L71.872,145.385z"/>
		<circle fill="#FFFFFF" cx="68.846" cy="142.577" r="1.763"/>
	</g>
	<g>
		<g>
			<g>
				<path id="SVGID_4_" fill="#FFFFFF" d="M67.607,12.183c0-1.375,1.652-2.521,3.498-2.5c0.43,0.006,0.829,0.074,1.195,0.191
					c1.002,0.697,1.72,1.091,1.924,1.883c0.037,0.162,0.057,0.328,0.057,0.497c0,1.403-0.903,2.5-3.498,2.5
					C68.94,14.754,67.607,13.585,67.607,12.183 M71.27,6.525c-1.238-0.037-2.416-1.384-2.629-3.01s0.619-2.871,1.856-2.834
					c1.237,0.038,2.415,1.342,2.628,2.968c0.21,1.604-0.594,2.878-1.803,2.878L71.27,6.525 M71.096,0
					c-2.154,0-4.183,1.634-4.183,3.524c0,1.932,1.469,3.491,3.66,3.491c0.153,0,0.301-0.001,0.447-0.013
					c-0.143,0.274-0.244,0.581-0.244,0.899c0,0.536,0.289,0.974,0.653,1.327c-0.275,0-0.542,0.009-0.834,0.009
					c-2.668,0-4.722,1.699-4.722,3.461c0,1.738,2.251,2.822,4.922,2.822c3.042,0,4.722-1.726,4.722-3.463
					c0-1.392-0.41-2.225-1.68-3.123c-0.433-0.307-1.265-1.056-1.265-1.494c0-0.516,0.146-0.769,0.923-1.375
					c0.794-0.622,1.355-1.494,1.355-2.51c0-1.208-0.538-2.388-1.548-2.776h1.524l1.076-0.778L71.096,0"/>
			</g>
			<g>
				<g>
					<defs>
						<path id="SVGID_1_" d="M67.607,12.183c0-1.375,1.652-2.521,3.498-2.5c0.43,0.006,0.829,0.074,1.195,0.191
							c1.002,0.697,1.72,1.091,1.924,1.883c0.037,0.162,0.057,0.328,0.057,0.497c0,1.403-0.903,2.5-3.498,2.5
							C68.94,14.754,67.607,13.585,67.607,12.183 M71.27,6.525c-1.238-0.037-2.416-1.384-2.629-3.01s0.619-2.871,1.856-2.834
							c1.237,0.038,2.415,1.342,2.628,2.968c0.21,1.604-0.594,2.878-1.803,2.878L71.27,6.525 M71.096,0
							c-2.154,0-4.183,1.634-4.183,3.524c0,1.932,1.469,3.491,3.66,3.491c0.153,0,0.301-0.001,0.447-0.013
							c-0.143,0.274-0.244,0.581-0.244,0.899c0,0.536,0.289,0.974,0.653,1.327c-0.275,0-0.542,0.009-0.834,0.009
							c-2.668,0-4.722,1.699-4.722,3.461c0,1.738,2.251,2.822,4.922,2.822c3.042,0,4.722-1.726,4.722-3.463
							c0-1.392-0.41-2.225-1.68-3.123c-0.433-0.307-1.265-1.056-1.265-1.494c0-0.516,0.146-0.769,0.923-1.375
							c0.794-0.622,1.355-1.494,1.355-2.51c0-1.208-0.538-2.388-1.548-2.776h1.524l1.076-0.778L71.096,0"/>
					</defs>
					<clipPath id="SVGID_2_">
						<use xlink:href="#SVGID_1_"  overflow="visible"/>
					</clipPath>
					<rect x="65.873" y="0.001" clip-path="url(#SVGID_2_)" fill="#FFFFFF" width="10.03" height="15.52"/>
				</g>
			</g>
		</g>
		<g>
			<g>
				<polyline id="SVGID_3_" fill="#FFFFFF" points="78.158,3.412 78.158,5.91 75.658,5.91 75.658,7.38 78.158,7.38 78.158,9.879 
					79.628,9.879 79.628,7.38 82.126,7.38 82.126,5.91 79.628,5.91 79.628,3.412 78.158,3.412 				"/>
			</g>
			<g>
				<g>
					<defs>
						<polyline id="SVGID_5_" points="78.158,3.412 78.158,5.91 75.658,5.91 75.658,7.38 78.158,7.38 78.158,9.879 79.628,9.879 
							79.628,7.38 82.126,7.38 82.126,5.91 79.628,5.91 79.628,3.412 78.158,3.412 						"/>
					</defs>
					<clipPath id="SVGID_6_">
						<use xlink:href="#SVGID_5_"  overflow="visible"/>
					</clipPath>
					<rect x="75.658" y="3.411" clip-path="url(#SVGID_6_)" fill="#FFFFFF" width="6.468" height="6.468"/>
				</g>
			</g>
		</g>
	</g>
	<g>
		<path fill="#FFFFFF" d="M82.046,49.679c-0.592,0.262-1.229,0.44-1.896,0.52c0.681-0.409,1.205-1.056,1.452-1.827
			c-0.638,0.378-1.345,0.653-2.097,0.801c-0.602-0.642-1.46-1.042-2.41-1.042c-1.823,0-3.301,1.478-3.301,3.301
			c0,0.258,0.03,0.511,0.085,0.752c-2.743-0.137-5.175-1.452-6.804-3.449c-0.284,0.488-0.447,1.055-0.447,1.66
			c0,1.146,0.583,2.156,1.469,2.748c-0.542-0.017-1.05-0.166-1.496-0.413c0,0.014,0,0.027,0,0.042c0,1.6,1.138,2.934,2.648,3.237
			c-0.277,0.075-0.569,0.116-0.87,0.116c-0.212,0-0.419-0.021-0.621-0.06c0.42,1.312,1.639,2.267,3.084,2.292
			c-1.13,0.886-2.554,1.414-4.1,1.414c-0.267,0-0.529-0.016-0.788-0.046c1.461,0.937,3.196,1.483,5.061,1.483
			c6.072,0,9.393-5.03,9.393-9.393c0-0.143-0.003-0.285-0.01-0.427C81.044,50.922,81.603,50.341,82.046,49.679z"/>
	</g>
	<g>
		<path fill="#F47A2B" d="M82.455,302.364c0,0-4.481,1.65-7.186,0.448c-2.94-1.307-4.964-1.963-7.554-0.011l-0.001,3.552
			c-0.287,0.322-0.656,0.521-1.243,0.781c-0.205,0.088-0.396,0.133-0.557,0.133c-0.301,0-0.373-0.151-0.369-0.429V291.98
			c0.001-0.42,0.484-0.979,1.07-1.239c0.4-0.177,0.736-0.161,0.913-0.004c2.834-1.961,4.858-1.305,7.802,0.005
			c2.701,1.199,7.125-0.451,7.125-0.451L82.455,302.364L82.455,302.364z"/>
	</g>
	<g>
		<path fill="#0BAEDD" d="M73.917,372.182c0.026,0.106,0.197,0.098,0.17,0.248c0.117,0.034,0.143,0.142,0.226,0.204
			c0.024,0.256,0.28,0.327,0.3,0.586c0.13,0.113,0.157,0.31,0.278,0.428c0.017,0.031,0.017,0.076,0.027,0.112
			c0.344,0.499,0.677,1.005,1.06,1.473c0.053,0.017,0.068,0.063,0.132,0.071c-0.006,0.039,0.023,0.05,0.029,0.082
			c0.106,0.037,0.177,0.104,0.261,0.158c0.227-0.045,0.27,0.164,0.447,0.205c0.083-0.053,0.18-0.009,0.278-0.061
			c0.274,0.123,0.561-0.001,0.846,0.105c0.181-0.079,0.453-0.005,0.555-0.135c0.127,0.008,0.145,0.005,0.256,0.002
			c0.039-0.02-0.001-0.125,0.06-0.121c0.054,0,0.054,0.045,0.117,0.039c0.022-0.085,0.092-0.143,0.194-0.097
			c0.128-0.184,0.269-0.354,0.332-0.606c-0.166-0.041-0.234,0.021-0.328,0.056c-0.167-0.029-0.294-0.089-0.399-0.168
			c0,0.082-0.081,0.013-0.104,0.04c-0.082-0.106-0.019-0.33-0.072-0.46c-0.14-0.153-0.223-0.353-0.321-0.542
			c-0.03-0.017-0.06,0.043-0.067-0.004c-0.027-0.299-0.288-0.49-0.308-0.745c0.091,0.006,0.139,0.125,0.197,0.108
			c-0.031-0.08-0.111-0.109-0.161-0.137c0.005-0.04,0.015-0.074,0.041-0.092c0.159,0.105,0.26,0.254,0.383,0.388
			c-0.018,0.037-0.044,0.065-0.042,0.124c0.049,0.026,0.12,0.154,0.165,0.089c-0.024-0.068-0.154-0.118-0.106-0.196
			c0.107,0.063,0.211,0.204,0.309,0.226c-0.401-0.398-0.659-0.912-0.964-1.387c-0.015,0.03-0.062,0.052-0.086,0.025
			c-0.042-0.05,0.028-0.124-0.007-0.158c-0.026,0.017-0.051,0.037-0.072,0.058c-0.093-0.141-0.131-0.401-0.167-0.545
			c-0.053-0.212-0.069-0.519-0.068-0.76c0.002-0.458,0.06-1.158,0.129-1.627c0.12-0.827,0.329-1.577,0.583-2.287
			c0.117-0.329,0.283-1,0.402-0.902c0.082-0.108,0.072-0.315,0.197-0.378c-0.018,0.127-0.128,0.244-0.11,0.354
			c0.358-0.882,0.792-1.683,1.387-2.312c0.016-0.047-0.025-0.048-0.01-0.095c0.112-0.112,0.207-0.24,0.378-0.289
			c-0.008-0.093,0.057-0.18,0.128-0.133c0.004-0.107,0.241-0.105,0.186-0.208c-0.041,0.055-0.035-0.049-0.083-0.037
			c-0.081,0.055-0.16,0.111-0.234,0.173c-0.022,0.077,0.005,0.056,0.01,0.111c-0.043,0.035-0.031-0.026-0.084-0.022
			c-0.167,0.203-0.394,0.345-0.583,0.526c0.009,0.139-0.167,0.212-0.211,0.348c-0.09-0.015-0.104,0.117-0.175,0.066
			c0.206-0.325,0.5-0.647,0.743-0.877c0.005,0.025-0.067,0.049-0.069,0.011c0.073-0.213,0.307-0.257,0.438-0.411
			c-0.058,0.008-0.06-0.029-0.064-0.066c0.027-0.121,0.21-0.137,0.274-0.264c-0.023-0.045-0.072,0.022-0.084-0.022
			c0.016-0.094,0.098-0.121,0.118-0.212c0.259-0.067,0.431-0.227,0.638-0.349c-0.226-0.021-0.251,0.17-0.456,0.173
			c-0.03,0.035-0.013,0.12-0.076,0.12c-0.233-0.027-0.271,0.152-0.439,0.191c-0.001-0.119,0.063-0.167,0.181-0.161
			c0.04-0.16,0.222-0.168,0.31-0.277c-0.228,0.044-0.323,0.229-0.564,0.26c-0.011-0.044,0.027-0.039,0.022-0.077
			c-0.029-0.011-0.101,0.012-0.101-0.022c0.111-0.18,0.308-0.268,0.487-0.375c-0.113-0.006-0.004-0.083,0.007-0.11
			c-0.054-0.022-0.107,0.041-0.136-0.01c0.12-0.125,0.346-0.226,0.512-0.248c-0.034,0.065-0.12,0.076-0.146,0.148
			c0.068-0.021,0,0.068,0.046,0.066c0.061-0.042,0.058-0.152,0.164-0.146c0.007-0.05-0.025-0.068-0.008-0.126
			c0.099,0.033,0.102-0.037,0.125-0.086c-0.106,0.023-0.196,0.061-0.296,0.09c-0.012-0.045-0.051-0.068-0.042-0.128
			c-0.088,0.02-0.187,0.027-0.229,0.094c0.082,0.127,0.174-0.074,0.208-0.048c0.008,0.069-0.054,0.066-0.059,0.122
			c-0.32,0.097-0.562,0.279-0.911,0.346c-0.029-0.028,0.018-0.051,0.008-0.109c0.048-0.015,0.117-0.008,0.187-0.002
			c-0.01-0.062,0.045-0.053,0.058-0.091c-0.073,0.034-0.093-0.011-0.134-0.041c-0.052,0.04-0.171,0.098-0.228,0.079
			c0.036-0.158,0.186-0.216,0.259-0.297c-0.123,0.058-0.325,0.13-0.378,0.038c0.332-0.187,0.798-0.32,1.06-0.526
			c0.035,0.032,0.131-0.002,0.089-0.041c-0.583,0.226-1.15,0.553-1.739,0.714c0.149-0.236,0.494-0.355,0.733-0.484
			c0.074-0.04,0.218-0.061,0.216-0.158c-0.263,0.08-0.432,0.26-0.674,0.362c-0.018-0.025-0.069-0.023-0.062-0.067
			c0.019-0.07,0.105-0.066,0.128-0.133c-0.087,0.007-0.193,0.07-0.258,0.045c0.029-0.042,0.149-0.075,0.126-0.117
			c-0.088,0.046-0.195,0.086-0.242,0.045c-0.072,0.103-0.154,0.196-0.304,0.215c-0.079-0.069-0.098,0.015-0.206,0.001
			c0.011-0.111,0.016-0.219-0.067-0.256c-0.063-0.003-0.19,0.154-0.281,0.123c-0.004-0.032,0.099-0.073,0.022-0.077
			c-0.104,0.03-0.102,0.172-0.203,0.207c-0.034-0.011-0.052-0.037-0.081-0.052c-0.112,0.099-0.251,0.171-0.376,0.257
			c-0.016-0.041,0.084-0.055,0.004-0.062c-0.076,0.016-0.042,0.071-0.044,0.139c-0.175,0.094-0.246,0.292-0.42,0.396
			c-0.059,0.037-0.116,0.025-0.156,0.052c-0.253,0.171-0.493,0.468-0.613,0.729c-0.011-0.026,0.082-0.02,0.067,0.004
			c-0.024,0.144-0.306,0.109-0.172,0.271c-0.029,0-0.053-0.006-0.067-0.021c0,0.103-0.1,0.14-0.151,0.21
			c-0.218,0.301-0.328,0.667-0.463,1.039c-0.069,0.187-0.169,0.365-0.243,0.549c-0.1,0.251-0.122,0.535-0.306,0.734
			c-0.016-0.022-0.012-0.059-0.047-0.066c-0.035,0.021,0.025,0.067-0.04,0.076c-0.035-0.085-0.057-0.181-0.065-0.287
			c-0.049-0.052-0.032,0.051-0.104,0.024c0.015-0.071-0.022-0.1-0.005-0.174c0.03-0.004,0.042,0.026,0.051,0.004
			c-0.119-0.133,0.03-0.417-0.116-0.543c0.002,0.051-0.051,0.08-0.088,0.041c0.007,0.038-0.029,0.112,0.008,0.126
			c0.01-0.03,0.011-0.067,0.056-0.059c0.019,0.084,0.038,0.194-0.033,0.233c0.065,0.36,0.188,0.652,0.189,0.972
			c-0.178-0.44-0.31-1.053-0.339-1.517c0.035,0.044,0.023,0.129,0.073,0.162c0.004-0.071-0.009-0.062,0.01-0.125
			c0.042-0.043,0.076,0.002,0.104-0.04c-0.001-0.103-0.036-0.178-0.085-0.241c-0.015,0.062,0.01,0.167-0.031,0.202
			c-0.056-0.104-0.066-0.243-0.094-0.369c-0.062,0.133,0.103,0.275,0.008,0.378c-0.062,0.02-0.007-0.054-0.048-0.051
			c-0.011,0.027,0.015,0.093-0.023,0.093c-0.036-0.037-0.048-0.089-0.041-0.161c0.038-0.008,0.051,0.047,0.052-0.012
			c-0.025-0.173-0.141-0.428-0.044-0.601c0.041,0.11,0.022,0.269,0.114,0.338c-0.045-0.298-0.072-0.541-0.166-0.813
			c-0.018,0.114,0.074,0.277-0.007,0.346c-0.056-0.093-0.056-0.284-0.094-0.368c-0.012,0.031,0.015,0.104-0.024,0.108
			c-0.052-0.056-0.02-0.133,0.012-0.188c-0.066-0.015-0.022-0.034-0.01-0.11c0.026-0.16-0.043-0.3-0.041-0.397
			c0.135,0.063,0.048,0.307,0.143,0.403c0.021-0.078,0.003-0.205-0.012-0.315c-0.028-0.203-0.078-0.43-0.113-0.59
			c0.029-0.276-0.071-0.573-0.095-0.856c-0.049,0.124,0.081,0.36-0.016,0.471c-0.047-0.198-0.111-0.494,0.061-0.625
			c-0.035-0.163-0.085-0.383-0.063-0.57c-0.003,0.041,0.008,0.099-0.057,0.074c-0.001-0.112,0.081-0.158,0.017-0.25
			c0.004,0.019-0.052,0.05-0.052,0.012c0.085-0.069,0.089-0.296,0.007-0.361c0.015-0.023,0.056-0.019,0.055-0.059
			c-0.152-1.848,0.108-3.762,0.416-5.571c0.066-0.128,0.121-0.348,0.119-0.495c0.072-0.105,0.113-0.25,0.094-0.371
			c0.132-0.179,0.13-0.38,0.193-0.584c0.155-0.5,0.361-1.095,0.533-1.552c0.042-0.112,0.129-0.203,0.139-0.29
			c0-0.001-0.032-0.061-0.03-0.064c0.019-0.044,0.086-0.087,0.112-0.134c0.032-0.061,0.058-0.126,0.081-0.184
			c0.217-0.528,0.452-1.048,0.702-1.524c0.119-0.226,0.314-0.522,0.456-0.676c0.101-0.353,0.368-0.53,0.501-0.846
			c0.205-0.197,0.353-0.457,0.542-0.67c0.109-0.349,0.418-0.487,0.518-0.846c0.048,0.017,0.046-0.018,0.086-0.009
			c0.182-0.339,0.461-0.576,0.643-0.915c0.037-0.012,0.078-0.019,0.105-0.04c0.394-0.552,0.896-0.99,1.332-1.498
			c0.233-0.1,0.336-0.338,0.576-0.432c0.268-0.259,0.586-0.465,0.868-0.711c0.222-0.091,0.355-0.274,0.54-0.403
			c0.221-0.12,0.42-0.261,0.578-0.448c0.171-0.02,0.2-0.191,0.356-0.227c0.003-0.042,0-0.09,0.025-0.108
			c0.023-0.021,0.075-0.011,0.121-0.008c0.001-0.026,0.003-0.052,0.005-0.078c0.151-0.042,0.206-0.189,0.309-0.278
			c0.03-0.025,0.091-0.029,0.124-0.054c0.206-0.167,0.342-0.422,0.551-0.56c0.262-0.174,0.476-0.386,0.656-0.632
			c0.05-0.013,0.073-0.011,0.119,0.008c0.08-0.396,0.082-0.876,0.315-1.11c-0.285-0.197-0.567-0.019-0.833-0.057
			c-0.139-0.02-0.244,0.015-0.395,0.036c-0.39,0.055-0.767,0.147-1.077,0.272c-1.21,0.245-2.247,0.655-3.235,1.132
			c-0.871,0.421-1.6,0.953-2.337,1.476c-0.223,0.134-0.407,0.308-0.596,0.478c-2.038,1.597-3.604,3.689-4.953,6.015
			c-0.202,0.508-0.505,0.909-0.663,1.465c-0.34,0.707-0.627,1.507-0.876,2.314c-0.061,0.198-0.085,0.431-0.144,0.604
			c-0.144,0.425-0.252,0.863-0.346,1.313c-0.056,0.272-0.173,0.635-0.196,0.883c-0.072,0.742-0.174,1.748-0.25,2.404
			c-0.044,0.381,0,0.834-0.011,1.164c-0.003,0.096-0.048,0.193-0.054,0.294c-0.035,0.519,0.062,0.961,0.072,1.436
			c0.002,0.099-0.026,0.202-0.02,0.297c0.014,0.228,0.079,0.447,0.091,0.667c0.013,0.239-0.007,0.473,0.021,0.708
			c0.032,0.292,0.06,0.594,0.18,0.862c0,0.069,0.019,0.123,0.003,0.205c0.028,0.053,0.104,0.117-0.01,0.141
			c-0.055-0.005-0.005-0.094-0.08-0.084c-0.178-0.095-0.361-0.154-0.477-0.269c-0.039-0.002-0.079-0.005-0.119-0.008
			c-0.006-0.054-0.071-0.061-0.095-0.102c-0.257-0.02-0.418-0.129-0.652-0.201c-0.068,0.064-0.191-0.019-0.235-0.064
			c-0.036,0.007-0.057,0.03-0.088,0.041c-0.203-0.062-0.408-0.22-0.668-0.217c-0.049,0-0.089,0.025-0.139,0.021
			c-0.223-0.018-0.493-0.167-0.771-0.195c-0.219-0.021-0.406-0.026-0.612-0.041c-0.209-0.082-0.54-0.119-0.743-0.114
			c0.135,0.031,0.456,0.051,0.346,0.181c0.103-0.028,0.184-0.051,0.272,0.018c-0.003,0.042,0,0.091-0.025,0.109
			c-0.261-0.021-0.485-0.013-0.584-0.182c0.028,0.068-0.007,0.158-0.064,0.185c-0.117,0.018-0.166-0.13-0.22-0.031
			c0.052,0.003,0.112-0.001,0.099,0.054c-0.125,0.02-0.301-0.016-0.395,0.036c-0.012-0.138-0.235-0.033-0.29-0.004
			c0.045,0.012,0.109-0.039,0.136,0.009c0.042,0.038-0.057,0.048-0.006,0.095c0.081,0.027,0.197,0.027,0.25,0.08
			c-0.069,0.027-0.209-0.003-0.237-0.017c0.032,0.078,0.227,0.025,0.249,0.111c-0.055,0.021-0.143,0.006-0.174,0.051
			c0.032,0.015,0.057,0.059,0.029,0.081c-0.085-0.017-0.121,0.018-0.206,0.001c0.026,0.195-0.284,0.035-0.365,0.116
			c-0.015,0.057,0.079,0.024,0.08,0.069c-0.088,0.098-0.091,0.183-0.189,0.271c0.021,0.023,0.091-0.04,0.101,0.037
			c-0.188,0.015-0.349-0.036-0.465,0.063c0.019,0.063,0.132,0.052,0.164,0.105c-0.017,0.044,0.021,0.042,0.011,0.08
			c-0.118,0.025-0.294,0.018-0.399,0.098c0.022,0.057,0.148,0.029,0.128,0.119c-0.04,0.018-0.067,0.052-0.091,0.088
			c-0.24,0.004-0.366,0.128-0.622,0.115c0.1,0.134,0.268-0.047,0.392,0.011c-0.087,0.205-0.396,0.088-0.604,0.1
			c0.099,0.084,0.322,0.067,0.38,0.183c-0.214,0.046-0.384-0.128-0.577-0.055c0.578,0.224,1.113,0.479,1.694,0.699
			c0.123,0.083,0.239,0.172,0.448,0.187c0.015,0.087,0.14,0.086,0.178,0.154c0.061,0.003,0.084-0.034,0.138-0.038
			c0.006,0.059,0.027,0.107,0.076,0.131c0.031-0.017,0.049-0.049,0.106-0.04c-0.017,0.018-0.026,0.041-0.022,0.077
			c0.11,0.059,0.243,0.1,0.329,0.179c0.041-0.002,0.015-0.073,0.072-0.058c0.161,0.074,0.312,0.155,0.48,0.223
			c0,0.039-0.03,0.045-0.04,0.075c0.145,0.146,0.444,0.166,0.594,0.308c0.409,0.106,0.6,0.385,0.99,0.508
			c-0.018,0.049,0.01,0.06,0.028,0.081c0.02,0.022,0.072,0.021,0.117,0.023c0.062,0.063,0.175,0.086,0.229,0.157
			c0.034,0.002,0.067,0.005,0.102,0.007c0.525,0.288,0.939,0.666,1.435,0.978c0.158,0.14,0.294,0.297,0.521,0.382
			c0.023,0.06,0.075,0.099,0.091,0.164c0.068,0.014,0.096,0.061,0.184,0.06c0.008,0.067,0.062,0.097,0.093,0.147
			c0.072-0.009,0.078,0.036,0.133,0.041c0.7,0.715,1.405,1.427,2.017,2.213c0.014,0.038,0.024,0.079,0.025,0.128
			c0.059,0.026,0.103,0.064,0.092,0.147c0.185,0.12,0.255,0.371,0.268,0.585c0.088-0.028,0.184,0.084,0.14,0.198
			c0.033,0.056,0.094-0.027,0.102,0.007c0,0.05-0.049,0.049-0.041,0.107c0.05,0.046,0.101,0.035,0.149,0.058
			c0.008,0.082,0,0.096,0.022,0.174c0.042,0.036,0.077-0.042,0.139-0.038c0.192,0.334,0.401,0.656,0.652,0.941
			C74.013,372.323,73.779,372.247,73.917,372.182z M78.49,365.716c0.061-0.383,0.297-0.728,0.464-1.053
			c0.005,0.133-0.124,0.272-0.165,0.413c-0.03,0.054,0.057,0.014,0.048,0.051c0.005,0.05-0.029,0.059-0.041,0.092
			c-0.037,0.005-0.03-0.025-0.031-0.05C78.637,365.312,78.61,365.563,78.49,365.716z M80.441,361.65
			c-0.007,0.055-0.065,0.055-0.075,0.105c-0.045-0.009-0.059-0.042-0.045-0.098C80.344,361.639,80.395,361.647,80.441,361.65z
			 M80.188,362.844c0,0.057-0.03,0.081-0.09,0.073C80.096,362.859,80.145,362.854,80.188,362.844z M77.784,372.792
			c-0.022-0.025-0.059-0.072-0.027-0.097C77.792,372.71,77.818,372.765,77.784,372.792z M73.686,371.804
			c-0.002,0.037-0.005,0.074-0.007,0.11c-0.051-0.016-0.076-0.104-0.06-0.129C73.634,371.797,73.657,371.803,73.686,371.804z
			 M74.035,363.21c0.051,0.015,0.036-0.042,0.088-0.025c-0.014,0.06,0.024,0.078,0.007,0.142c-0.034,0.045-0.063-0.062-0.103-0.006
			c-0.073-0.125-0.064-0.224-0.093-0.384C74.046,362.964,73.957,363.154,74.035,363.21z M73.871,360.62
			c-0.06-0.018-0.096-0.22-0.002-0.22C73.882,360.463,73.88,360.538,73.871,360.62z M73.8,361.401c0,0.039-0.003,0.075-0.023,0.092
			C73.732,361.496,73.723,361.366,73.8,361.401z M66.079,361.486c-0.011,0.061-0.081,0.071-0.139,0.037
			C65.934,361.455,66.022,361.487,66.079,361.486z"/>
	</g>
	<g>
		<path fill="#0BAEDD" d="M82.455,419.296c0,0-4.481,1.65-7.186,0.448c-2.94-1.307-4.964-1.963-7.554-0.011l-0.001,3.552
			c-0.287,0.322-0.656,0.521-1.243,0.781c-0.205,0.088-0.396,0.133-0.557,0.133c-0.301,0-0.373-0.151-0.369-0.429v-14.858
			c0.001-0.42,0.484-0.979,1.07-1.239c0.4-0.177,0.736-0.161,0.913-0.004c2.834-1.961,4.858-1.305,7.802,0.005
			c2.701,1.199,7.125-0.451,7.125-0.451L82.455,419.296L82.455,419.296z"/>
	</g>
	<g>
		<path fill="#A0CF6E" d="M77.422,822.519h-8.095v1.827H66.15v16.048h13.894v-3.084h1.806v-10.363L77.422,822.519z M78.601,838.602
			h-10.66v-12.848h1.386v11.555h9.274V838.602z M80.191,835.651h-9.066v-11.474h5.64l0.59,0.416v2.421h2.42l0.416,0.589
			L80.191,835.651z"/>
		<rect x="73.177" y="829.162" fill="#A0CF6E" width="5.282" height="1.003"/>
		<rect x="73.177" y="826.53" fill="#A0CF6E" width="3.018" height="1.003"/>
		<rect x="73.177" y="831.912" fill="#A0CF6E" width="5.282" height="1.003"/>
	</g>
	<g>
		<path fill="#0BAEDD" d="M74.886,872.417c0.636-0.053,1.26,0.162,1.699,0.601c0.439,0.44,0.66,1.061,0.602,1.701
			c-0.063,0.71,0.461,1.338,1.173,1.401c0.039,0.003,0.078,0.005,0.117,0.005c0.661,0,1.224-0.506,1.285-1.178
			c0.124-1.405-0.367-2.773-1.35-3.756c-0.983-0.982-2.358-1.474-3.757-1.348c-0.711,0.064-1.236,0.691-1.172,1.403
			C73.548,871.956,74.184,872.473,74.886,872.417z"/>
		<path fill="#0BAEDD" d="M81.532,868.07c-1.706-1.707-3.978-2.656-6.395-2.672c-0.002,0-0.006,0-0.006,0
			c-0.712,0-1.29,0.573-1.294,1.284c-0.005,0.713,0.569,1.295,1.284,1.301c1.731,0.011,3.361,0.691,4.583,1.915
			c1.224,1.223,1.904,2.851,1.917,4.585c0.004,0.71,0.582,1.283,1.292,1.283c0,0,0.005,0,0.009,0
			c0.713-0.005,1.289-0.588,1.284-1.301C84.187,872.047,83.238,869.776,81.532,868.07z"/>
		<path fill="#0BAEDD" d="M82.79,881.517c-1.399-0.916-2.754-1.908-4.054-2.955c-0.427-0.347-0.98-0.333-1.405,0.012
			c-0.5,0.406-0.792,1.073-1.281,1.589c-0.392,0.416-1.873,0.454-4.498-2.115c-2.569-2.625-2.531-4.106-2.114-4.498
			c0.515-0.488,1.182-0.781,1.589-1.281c0.345-0.424,0.358-0.977,0.01-1.405c-1.045-1.299-2.038-2.654-2.954-4.054
			c-0.305-0.461-0.846-0.696-1.381-0.539c-0.521,0.154-1.806,0.968-2.235,1.43c-1.507,1.632-0.759,6.545,5.064,12.368
			c5.82,5.821,10.734,6.569,12.366,5.061c0.462-0.428,1.277-1.713,1.428-2.235C83.486,882.363,83.251,881.822,82.79,881.517z"/>
	</g>
	<g>
		<path fill="#FACB47" d="M83.001,914.301v16.142l-6.726-2.69l-4.55,2.69l-6.726-2.69v-16.142l6.311,2.69l5.381-2.69L83.001,914.301
			z M69.965,918.177c-0.664,0.041-1.137,0.679-1.135,1.292v3.528v3.403h4.572v-3.197c0.012-0.449,0.318-0.591,0.756-0.583h1.017
			v2.41l5.578-4.821l-5.578-4.443v2.411H69.965L69.965,918.177z"/>
	</g>
	<g>
		<path fill="#A0CF6E" d="M84.378,957.518H68.419v4.066h-4.797V975H80.21v-4.516h4.167L84.378,957.518L84.378,957.518z
			 M77.527,972.317H66.306v-8.156l2.114-0.002v6.325h9.107V972.317z M81.895,968.001h-9.151l3.68-3.11l1.217,1.439l0.852-4.839
			l-4.911,0.035l1.218,1.441l-3.897,3.295V960h10.993L81.895,968.001L81.895,968.001z"/>
	</g>
	<g>
		<path fill="#FACB47" d="M80.75,1008.717h-4.5v-1.124h4.5V1008.717z M80.75,1005.342h-13.5c-1.237,0-2.25,1.014-2.25,2.251v8.998
			c0,1.237,1.013,2.251,2.25,2.251h13.5c1.237,0,2.25-1.014,2.25-2.251v-8.998C83,1006.355,81.987,1005.342,80.75,1005.342z
			 M68.375,1007.593c0.618,0,1.125,0.505,1.125,1.124s-0.507,1.124-1.125,1.124s-1.125-0.505-1.125-1.124
			S67.757,1007.593,68.375,1007.593z M81.875,1016.591h-15.75v-3.375h15.75V1016.591z"/>
	</g>
	<g>
		<path fill="#A0CF6E" d="M71.655,1060.468h4.838c0.384,0,0.697-0.312,0.697-0.695c0-0.387-0.313-0.698-0.697-0.698h-4.838
			c-0.384,0-0.695,0.312-0.695,0.698C70.959,1060.156,71.271,1060.468,71.655,1060.468z M71.655,1062.831h4.838
			c0.384,0,0.697-0.312,0.697-0.696c0-0.386-0.313-0.696-0.697-0.696h-4.838c-0.384,0-0.695,0.311-0.695,0.696
			S71.271,1062.831,71.655,1062.831z M67.384,1049.21L67.384,1049.21h-0.908c-0.84,0-1.525,0.917-1.525,1.77v5.731
			c0,0.854,0.685,1.551,1.525,1.551h0.11l0.001-3.464c0-0.405,0.064-0.872,0.402-1.254c0.342-0.384,0.875-0.558,1.535-0.553h10.94
			c0.637-0.005,1.166,0.174,1.509,0.546c0.344,0.371,0.431,0.84,0.431,1.261l0.002,3.464h0.118c0.838,0,1.524-0.697,1.524-1.551
			v-5.731c0-0.853-0.687-1.77-1.524-1.77h-0.913l0,0 M79.021,1049.21L79.021,1049.21H68.977l0,0 M79.465,1054.054l-10.94-0.002
			c-0.958,0.098-0.774,0.159-0.875,0.746v3.464h0.761v5.321c0.013,0.975,0.84,1.661,1.766,1.663h7.179h0.649
			c0.923-0.002,1.751-0.688,1.763-1.663v-5.321h0.575v-3.464C80.256,1054.249,80.357,1054.137,79.465,1054.054z M78.377,1063.583
			c0,0.087-0.118,0.269-0.371,0.269h-0.649h-7.179c-0.253,0-0.374-0.182-0.374-0.269v-5.321h8.573L78.377,1063.583z"/>
	</g>
	<g>
		<path fill="#FFFFFF" d="M82.162,187.684l-3.197-3.197c0.597-1.057,0.941-2.272,0.941-3.57c0-4.014-3.266-7.28-7.28-7.28
			c-4.015,0-7.28,3.267-7.28,7.28c0,4.015,3.266,7.28,7.28,7.28c1.502,0,2.898-0.458,4.058-1.24l3.102,3.103
			c0.328,0.329,0.758,0.492,1.188,0.492c0.429,0,0.859-0.163,1.188-0.492C82.818,189.403,82.818,188.34,82.162,187.684z
			 M67.585,180.916c0-2.779,2.262-5.04,5.041-5.04c2.78,0,5.04,2.261,5.04,5.04s-2.26,5.039-5.04,5.039
			C69.847,185.955,67.585,183.695,67.585,180.916z"/>
	</g>
	<g>
		<path fill="#FFFFFF" d="M73.976,1105.179c0.682,0,1.31-0.51,1.43-1.16c0.062-0.332-0.021-0.665-0.227-0.913
			c-0.213-0.257-0.541-0.404-0.899-0.404c-0.68,0-1.309,0.517-1.43,1.174c-0.062,0.333,0.016,0.653,0.221,0.901
			C73.284,1105.032,73.613,1105.179,73.976,1105.179z"/>
		<path fill="#FFFFFF" d="M74.358,1109.061c0.19-0.771,0.615-2.529,0.674-2.771l0.117-0.482H72.5l-0.314,1.288h0.466l-0.533,2.188
			c-0.012,0.046-0.1,0.463,0.181,0.822c0.225,0.287,0.598,0.434,1.109,0.438h0.003c1.147,0,2.053-0.774,2.091-0.808l0.095-0.081
			l0.305-1.259l-0.743,0.354C74.947,1108.852,74.615,1108.987,74.358,1109.061z"/>
		<path fill="#FFFFFF" d="M74,1098c-4.618,0-8.375,3.757-8.375,8.375s3.757,8.375,8.375,8.375s8.375-3.757,8.375-8.375
			S78.618,1098,74,1098z M74,1112.143c-3.181,0-5.768-2.587-5.768-5.768s2.587-5.768,5.768-5.768s5.768,2.587,5.768,5.768
			S77.181,1112.143,74,1112.143z"/>
	</g>
	<g>
		<path fill="#FFFFFF" d="M76.016,1153.687c-0.403-0.377-0.942-0.609-1.536-0.609c-1.247,0-2.258,1.012-2.258,2.259
			c0,1.246,1.011,2.257,2.258,2.257c1.246,0,2.257-1.011,2.257-2.257c0-0.178-0.022-0.349-0.061-0.514l2.352-2.527L76.016,1153.687z
			"/>
		<path fill="#FFFFFF" d="M77.519,1146.655l-0.804,2.742c1.044,0.44,1.959,1.127,2.672,1.987l2.106-1.876
			C80.44,1148.249,79.077,1147.258,77.519,1146.655z"/>
		<path fill="#FFFFFF" d="M66.772,1149.205l2.121,1.863c0.694-0.742,1.549-1.332,2.509-1.717l-0.82-2.735
			C69.11,1147.167,67.807,1148.062,66.772,1149.205z"/>
		<path fill="#FFFFFF" d="M75.907,1149.116l0.657-2.775C75.747,1146.12,74.887,1146,74,1146c-0.85,0-1.673,0.108-2.458,0.313
			l0.673,2.768c0.57-0.149,1.168-0.23,1.785-0.23C74.661,1148.851,75.3,1148.944,75.907,1149.116z"/>
		<path fill="#FFFFFF" d="M82.093,1150.346l-2.206,1.784c0.699,1.089,1.106,1.965,1.106,3.417h2.761
			C83.754,1153.471,83.142,1151.902,82.093,1150.346z"/>
		<path fill="#FFFFFF" d="M64.245,1155.547h2.762c0-1.66,0.499-2.628,1.343-3.783l-2.21-1.727
			C64.949,1151.653,64.245,1153.264,64.245,1155.547z"/>
	</g>
	<g>
		<polygon fill="#FFFFFF" points="76.258,1194.418 72.429,1194.513 75.543,1196.711 74.533,1200.354 77.618,1198.121 
			80.821,1200.206 79.612,1196.616 82.603,1194.261 78.775,1194.355 77.417,1190.734 		"/>
		<polygon fill="#FFFFFF" points="68.29,1198.547 65.397,1198.619 67.75,1200.279 66.987,1203.032 69.318,1201.345 71.737,1202.921 
			70.825,1200.208 73.084,1198.429 70.191,1198.499 69.165,1195.764 		"/>
		<polygon fill="#FFFFFF" points="68.527,1191.152 66.81,1192.877 69.241,1192.573 70.374,1194.716 70.834,1192.344 
			73.251,1191.943 71.103,1190.779 71.464,1188.389 69.677,1190.041 67.484,1188.966 		"/>
	</g>
	<g>
		<path fill="#FFFFFF" d="M75.013,1242.301l0.503-0.141l0.325-0.409l0.435-0.29l0.184-0.49l0.324-0.41l0.021-0.522l0.183-0.489
			l-0.141-0.504l0.022-0.522l-0.29-0.436l-0.141-0.503l-0.41-0.324l-0.29-0.438l-0.49-0.182l-0.409-0.323l-0.522-0.022l-0.491-0.183
			l-0.503,0.141l-0.521-0.021l-0.436,0.289l-0.505,0.141l-0.325,0.411l-0.434,0.288l-0.183,0.49l-0.324,0.41l-0.022,0.521
			l-0.182,0.489l0.141,0.504l-0.022,0.523l0.29,0.436l0.14,0.502l0.411,0.326l0.29,0.436l0.49,0.182l0.41,0.325l0.522,0.021
			l0.489,0.183l0.504-0.141l0.522,0.021L75.013,1242.301z M74.182,1241.176l-0.289-0.012l-0.28,0.077l-0.272-0.101l-0.29-0.013
			l-0.228-0.18l-0.272-0.101l-0.161-0.241l-0.227-0.182l-0.078-0.28l-0.161-0.241l0.012-0.289l-0.078-0.28l0.102-0.271l0.012-0.29
			l0.18-0.228l0.102-0.272l0.242-0.161l0.18-0.227l0.279-0.079l0.242-0.16l0.29,0.013l0.28-0.079l0.271,0.102l0.29,0.013l0.229,0.18
			l0.271,0.102l0.161,0.241l0.227,0.181l0.079,0.28l0.16,0.241l-0.012,0.29l0.078,0.279l-0.101,0.271l-0.012,0.292l-0.179,0.227
			l-0.102,0.271l-0.242,0.161l-0.181,0.227l-0.28,0.078L74.182,1241.176z"/>
		<path fill="#FFFFFF" d="M77.963,1243.313l0.403-0.268l0.329-0.887l0.588-0.741l0.039-0.944l0.33-0.888l-0.255-0.909l0.04-0.944
			l-0.523-0.789l-0.255-0.911l-0.741-0.587l-0.524-0.788l-0.885-0.329l-0.741-0.587l-0.946-0.041l-0.886-0.329l-0.911,0.255
			l-0.945-0.04l-0.788,0.523l-0.911,0.255l-0.586,0.741l-0.788,0.522l-0.33,0.888l-0.588,0.741l-0.039,0.945l-0.329,0.886
			l0.255,0.911l-0.041,0.944l0.524,0.788l0.254,0.911l0.741,0.587l0.09,0.136l-2.35,3.411l2.938-0.783l0.835,2.271l2.127-3.087
			l0.342,0.127l0.911-0.255h0.016l2.912,3.029l0.429-2.294l3.101,0.485L77.963,1243.313z M69.188,1245.622l-0.682,0.118l1.332-1.931
			l0.139,0.209l0.252,0.093L69.188,1245.622z M71.338,1246.857l-0.262-0.492l0.974-1.412l0.5,0.021l0.068,0.025L71.338,1246.857z
			 M72.828,1243.587l-0.712-0.029l-0.56-0.443l-0.668-0.247l-0.395-0.595l-0.56-0.442l-0.191-0.688l-0.395-0.593l0.03-0.712
			l-0.192-0.688l0.248-0.667l0.03-0.714l0.443-0.558l0.249-0.669l0.595-0.395l0.442-0.56l0.688-0.191l0.593-0.396l0.713,0.03
			l0.687-0.191l0.667,0.248l0.714,0.03l0.559,0.442l0.668,0.249l0.395,0.595l0.559,0.442l0.193,0.687l0.394,0.594l-0.03,0.714
			l0.192,0.686l-0.249,0.669l-0.029,0.713l-0.443,0.559l-0.249,0.668l-0.593,0.395l-0.444,0.56l-0.687,0.192l-0.594,0.394
			l-0.713-0.03l-0.687,0.193L72.828,1243.587z M76.647,1246.739l-1.598-1.662l0.242,0.011l0.26-0.172l1.27,1.32L76.647,1246.739z
			 M77.267,1243.96l0.297-0.374l1.729,1.797l-0.708-0.052L77.267,1243.96z"/>
	</g>
	<g>
		<path fill="#FFFFFF" d="M76.957,1286.016c0.326-0.092,0.74-0.216,1.264-0.384c4.237-1.358,3.282-5.773,3.282-5.773h-1.8h-1.066
			v-1.515h-9.275v1.515h-1.066h-1.799c0,0-0.96,4.435,3.284,5.773c0.519,0.164,0.931,0.286,1.256,0.376
			c0.644,0.781,1.434,1.337,2.301,1.528v3.465c-1.474,0.197-2.697,0.539-2.697,1.54h6.72c0-1.001-0.954-1.343-2.698-1.54v-3.465
			C75.527,1287.345,76.316,1286.794,76.957,1286.016 M78.636,1281.197v-0.677h1.066h1.162c-0.009,1.316,0.074,3.546-2.847,4.48
			c-0.167,0.054-0.315,0.1-0.456,0.144C78.232,1283.999,78.637,1282.587,78.636,1281.197L78.636,1281.197z M69.979,1285
			c-2.924-0.925-2.837-3.163-2.845-4.479h1.161h1.066v0.677c0,1.39,0.404,2.799,1.074,3.944
			C70.294,1285.099,70.145,1285.052,69.979,1285 M74,1284.207l-2.047,1.425l0.722-2.387l-1.987-1.51l2.493-0.049l0.819-2.355
			l0.819,2.355l2.494,0.049l-1.988,1.51l0.722,2.387L74,1284.207z"/>
	</g>
	<g>
		<polygon fill="#FFFFFF" points="76.719,1330.526 73.256,1330.612 76.072,1332.6 75.159,1335.894 77.949,1333.876 80.845,1335.761 
			79.752,1332.514 82.455,1330.385 78.993,1330.471 77.767,1327.195 		"/>
		<path fill="#FFFFFF" d="M72.196,1331.439c0,0-1.677,1.21-3.435,2.553c-1.7,1.298-3.155,2.613-3.155,2.613s1.945-0.254,4.128-0.596
			c0.764-0.119,4.638-0.317,4.638-0.317l0.405-2.887L72.196,1331.439z"/>
		<polygon fill="#FFFFFF" points="69.161,1328.14 67.61,1329.698 69.809,1329.424 70.833,1331.361 71.249,1329.215 73.434,1328.854 
			71.492,1327.801 71.818,1325.64 70.202,1327.135 68.219,1326.162 		"/>
		<path fill="#FFFFFF" d="M67.393,1330.4c0,0-0.536,1.248-0.948,2.589c-0.398,1.299-0.9,3.145-0.9,3.145s1.381-1.361,2.391-2.338
			c0.354-0.341,2.19-1.974,2.19-1.974l-0.874-1.652L67.393,1330.4z"/>
	</g>
	<g>
		<polygon fill="#FFFFFF" points="74,1379.727 69.386,1382.418 69.386,1377.035 69.386,1371.652 74,1374.344 78.614,1377.035 		"/>
	</g>
	<g>
		<polygon fill="#0BAEDD" points="74,1424.227 69.386,1426.918 69.386,1421.535 69.386,1416.152 74,1418.844 78.614,1421.535 		"/>
	</g>
	<g>
		<polygon fill="#0BAEDD" points="71.309,1465.535 68.618,1460.922 74,1460.922 79.382,1460.922 76.692,1465.535 74,1470.148 		"/>
	</g>
	<g>
		<path fill="#9B9B9B" d="M70.432,1511.042l0.62-1.139l1.134,1.133l1.54-1.541l-1.133-1.133l1.139-0.62
			c0.428-0.214,0.444-0.642-0.099-0.728c-0.543-0.087-4.799-0.87-4.799-0.87s0.784,4.255,0.871,4.798
			C69.79,1511.486,70.217,1511.471,70.432,1511.042z"/>
		<path fill="#9B9B9B" d="M74.189,1515.428c0.543,0.088,4.798,0.871,4.798,0.871s-0.783-4.256-0.87-4.799
			c-0.086-0.543-0.514-0.527-0.728-0.1l-0.621,1.14l-1.133-1.133l-1.541,1.54l1.133,1.133l-1.138,0.62
			C73.661,1514.915,73.646,1515.343,74.189,1515.428z"/>
		<path fill="#9B9B9B" d="M65.719,1503v16.208H82.28V1503H65.719z M80.519,1517.446H67.482v-12.685h13.037L80.519,1517.446z"/>
	</g>
	<g>
		<path fill="#FFFFFF" d="M74,1553.166c-7.237,0-13.105,5.867-13.105,13.104c0,7.239,5.868,13.104,13.105,13.104
			s13.104-5.865,13.104-13.104C87.106,1559.033,81.239,1553.166,74,1553.166z M74,1577.46c-6.169,0-11.189-5.021-11.189-11.188
			c0-6.171,5.02-11.19,11.189-11.19s11.189,5.02,11.189,11.19C85.19,1572.439,80.17,1577.46,74,1577.46z"/>
		<circle fill="#FFFFFF" cx="72.664" cy="1563.03" r="2.319"/>
		<path fill="#FFFFFF" d="M69.832,1570.344h6.023c0,0-0.651-4.527-1.629-4.527c-1.159,0-0.61,0.025-2.929,0.008
			C70.321,1565.816,69.832,1570.344,69.832,1570.344z"/>
		<circle fill="#FFFFFF" cx="77.663" cy="1564.688" r="2.69"/>
		<path fill="#FFFFFF" d="M74.379,1573.242h6.985c0,0-0.755-5.25-1.887-5.25c-1.345,0-0.708,0.029-3.398,0.006
			C74.946,1567.992,74.379,1573.242,74.379,1573.242z"/>
		<circle fill="#FFFFFF" cx="68.491" cy="1561.432" r="1.86"/>
		<path fill="#FFFFFF" d="M66.222,1567.227h4.829c0,0-0.522-3.63-1.305-3.63c-0.93,0-0.49,0.021-2.349,0.006
			C66.612,1563.597,66.222,1567.227,66.222,1567.227z"/>
	</g>
	<g>
		<path fill="#FFFFFF" d="M71.222,1612.438l14.475,5.327l5.008-12.844l-14.979-5.104l-4.857,2.233l-2.129,4.973L71.222,1612.438z
			 M72.468,1606.734c-0.444-0.966-0.303-2.12,0.764-2.614c1.065-0.489,2.186-0.04,2.625,0.927c0.448,0.968,0.272,1.996-0.795,2.49
			C73.989,1608.025,72.912,1607.699,72.468,1606.734z"/>
		<path fill="#FFFFFF" d="M66.459,1607.847l2.059-4.814l-4.853-1.425l-4.834,2.497l-1.537,5.79l7.827,13.396l11.5-6.807
			l-7.404-2.566L66.459,1607.847z M65.534,1607.137c-0.271,1.036-1.206,1.634-2.35,1.333c-1.146-0.306-1.65-1.235-1.377-2.267
			c0.274-1.036,1.225-1.778,2.37-1.48C65.316,1605.025,65.812,1606.105,65.534,1607.137z"/>
	</g>
	<g>
		<path fill="#FFFFFF" d="M81.22,1660.152c-0.897,0-1.724,0.293-2.403,0.776l-7.875-4.1l7.785-4.053
			c0.696,0.525,1.553,0.849,2.492,0.849c2.295,0,4.154-1.859,4.154-4.153s-1.859-4.154-4.154-4.154s-4.153,1.86-4.153,4.154
			c0,0.05,0.014,0.098,0.014,0.147l-7.807,4.064c-0.696-0.526-1.552-0.85-2.492-0.85c-2.295,0-4.154,1.86-4.154,4.154
			s1.859,4.154,4.154,4.154c1.048,0,1.996-0.402,2.728-1.044l7.583,3.947c-0.006,0.088-0.026,0.172-0.026,0.261
			c0,2.294,1.858,4.154,4.153,4.154s4.154-1.86,4.154-4.154S83.515,1660.152,81.22,1660.152z"/>
	</g>
	<g>
		<path fill="#FFFFFF" d="M74,1686.741c-3.958,0-9.896,1.799-9.896,8.996c0,3.6,7.918,16.194,9.896,19.793
			c1.978-3.599,9.896-16.193,9.896-19.793C83.896,1688.54,77.958,1686.741,74,1686.741z M74,1698.886
			c-1.74,0-3.148-1.408-3.148-3.148c0-1.739,1.409-3.148,3.148-3.148s3.148,1.409,3.148,3.148
			C77.148,1697.478,75.739,1698.886,74,1698.886z"/>
	</g>
	<g display="none">
		<g display="inline">
			<rect x="29.753" y="471.578" fill="#F15A50" width="16.625" height="16.625"/>
			<g>
				<path fill="#FFFFFF" d="M37.809,474.427c0.14-0.405,0.371-0.405,0.513,0l1.084,3.121c0.142,0.405,0.607,0.744,1.037,0.753
					l3.304,0.067c0.429,0.009,0.5,0.229,0.159,0.488l-2.634,1.996c-0.342,0.26-0.519,0.808-0.396,1.217l0.958,3.165
					c0.124,0.41-0.062,0.546-0.415,0.301l-2.714-1.888c-0.352-0.246-0.928-0.246-1.28,0l-2.712,1.888
					c-0.353,0.245-0.539,0.109-0.415-0.301l0.956-3.165c0.125-0.409-0.054-0.957-0.396-1.217l-2.633-1.996
					c-0.342-0.26-0.271-0.479,0.158-0.488l3.305-0.067c0.429-0.009,0.896-0.348,1.036-0.753L37.809,474.427z"/>
			</g>
		</g>
		<g display="inline">
			<rect x="47.744" y="471.578" fill="#F15A50" width="16.625" height="16.625"/>
			<g>
				<path fill="#FFFFFF" d="M55.8,474.427c0.14-0.405,0.371-0.405,0.513,0l1.084,3.121c0.142,0.405,0.607,0.744,1.037,0.753
					l3.304,0.067c0.429,0.009,0.5,0.229,0.159,0.488l-2.634,1.996c-0.342,0.26-0.519,0.808-0.396,1.217l0.958,3.165
					c0.124,0.41-0.062,0.546-0.415,0.301l-2.714-1.888c-0.352-0.246-0.928-0.246-1.28,0l-2.712,1.888
					c-0.353,0.245-0.539,0.109-0.415-0.301l0.956-3.165c0.125-0.409-0.054-0.957-0.396-1.217l-2.633-1.996
					c-0.342-0.26-0.271-0.479,0.158-0.488l3.305-0.067c0.429-0.009,0.896-0.348,1.036-0.753L55.8,474.427z"/>
			</g>
		</g>
		<g display="inline">
			<rect x="65.734" y="471.578" fill="#F15A50" width="16.625" height="16.625"/>
			<g>
				<path fill="#FFFFFF" d="M73.791,474.427c0.14-0.405,0.371-0.405,0.513,0l1.084,3.121c0.142,0.405,0.607,0.744,1.037,0.753
					l3.304,0.067c0.429,0.009,0.5,0.229,0.159,0.488l-2.634,1.996c-0.342,0.26-0.519,0.808-0.396,1.217l0.958,3.165
					c0.124,0.41-0.062,0.546-0.415,0.301l-2.714-1.888c-0.352-0.246-0.928-0.246-1.28,0l-2.712,1.888
					c-0.353,0.245-0.539,0.109-0.415-0.301l0.956-3.165c0.125-0.409-0.054-0.957-0.396-1.217l-2.633-1.996
					c-0.342-0.26-0.271-0.479,0.158-0.488l3.305-0.067c0.429-0.009,0.896-0.348,1.036-0.753L73.791,474.427z"/>
			</g>
		</g>
		<g display="inline">
			<rect x="83.725" y="471.578" fill="#F15A50" width="16.625" height="16.625"/>
			<g>
				<path fill="#FFFFFF" d="M91.781,474.427c0.14-0.405,0.371-0.405,0.513,0l1.084,3.121c0.142,0.405,0.607,0.744,1.037,0.753
					l3.304,0.067c0.429,0.009,0.5,0.229,0.159,0.488l-2.634,1.996c-0.342,0.26-0.519,0.808-0.396,1.217l0.958,3.165
					c0.124,0.41-0.062,0.546-0.415,0.301l-2.714-1.888c-0.352-0.246-0.928-0.246-1.28,0l-2.712,1.888
					c-0.353,0.245-0.539,0.109-0.415-0.301l0.956-3.165c0.125-0.409-0.054-0.957-0.396-1.217l-2.633-1.996
					c-0.342-0.26-0.271-0.479,0.158-0.488l3.305-0.067c0.429-0.009,0.896-0.348,1.036-0.753L91.781,474.427z"/>
			</g>
		</g>
		<g display="inline">
			<rect x="101.716" y="471.578" fill="#F15A50" width="16.625" height="16.625"/>
			<g>
				<path fill="#FFFFFF" d="M109.772,474.427c0.14-0.405,0.371-0.405,0.513,0l1.084,3.121c0.142,0.405,0.607,0.744,1.037,0.753
					l3.304,0.067c0.429,0.009,0.5,0.229,0.159,0.488l-2.634,1.996c-0.342,0.26-0.519,0.808-0.396,1.217l0.958,3.165
					c0.124,0.41-0.062,0.546-0.415,0.301l-2.714-1.888c-0.352-0.246-0.928-0.246-1.28,0l-2.712,1.888
					c-0.353,0.245-0.539,0.109-0.415-0.301l0.956-3.165c0.125-0.409-0.054-0.957-0.396-1.217l-2.633-1.996
					c-0.342-0.26-0.271-0.479,0.158-0.488l3.305-0.067c0.429-0.009,0.896-0.348,1.036-0.753L109.772,474.427z"/>
			</g>
		</g>
	</g>
	<g display="none">
		<g display="inline">
			<rect x="29.753" y="495.953" fill="#FFFFFF" width="16.625" height="16.625"/>
			<g>
				<path fill="#CECECE" d="M37.809,498.802c0.14-0.405,0.371-0.405,0.513,0l1.084,3.121c0.142,0.405,0.607,0.744,1.037,0.753
					l3.304,0.067c0.429,0.009,0.5,0.229,0.159,0.488l-2.634,1.996c-0.342,0.26-0.519,0.808-0.396,1.217l0.958,3.165
					c0.124,0.41-0.062,0.546-0.415,0.301l-2.714-1.888c-0.352-0.246-0.928-0.246-1.28,0l-2.712,1.888
					c-0.353,0.245-0.539,0.109-0.415-0.301l0.956-3.165c0.125-0.409-0.054-0.957-0.396-1.217l-2.633-1.996
					c-0.342-0.26-0.271-0.479,0.158-0.488l3.305-0.067c0.429-0.009,0.896-0.348,1.036-0.753L37.809,498.802z"/>
			</g>
		</g>
		<g display="inline">
			<rect x="47.744" y="495.953" fill="#FFFFFF" width="16.625" height="16.625"/>
			<g>
				<path fill="#CECECE" d="M55.8,498.802c0.14-0.405,0.371-0.405,0.513,0l1.084,3.121c0.142,0.405,0.607,0.744,1.037,0.753
					l3.304,0.067c0.429,0.009,0.5,0.229,0.159,0.488l-2.634,1.996c-0.342,0.26-0.519,0.808-0.396,1.217l0.958,3.165
					c0.124,0.41-0.062,0.546-0.415,0.301l-2.714-1.888c-0.352-0.246-0.928-0.246-1.28,0l-2.712,1.888
					c-0.353,0.245-0.539,0.109-0.415-0.301l0.956-3.165c0.125-0.409-0.054-0.957-0.396-1.217l-2.633-1.996
					c-0.342-0.26-0.271-0.479,0.158-0.488l3.305-0.067c0.429-0.009,0.896-0.348,1.036-0.753L55.8,498.802z"/>
			</g>
		</g>
		<g display="inline">
			<rect x="65.734" y="495.953" fill="#FFFFFF" width="16.625" height="16.625"/>
			<g>
				<path fill="#CECECE" d="M73.791,498.802c0.14-0.405,0.371-0.405,0.513,0l1.084,3.121c0.142,0.405,0.607,0.744,1.037,0.753
					l3.304,0.067c0.429,0.009,0.5,0.229,0.159,0.488l-2.634,1.996c-0.342,0.26-0.519,0.808-0.396,1.217l0.958,3.165
					c0.124,0.41-0.062,0.546-0.415,0.301l-2.714-1.888c-0.352-0.246-0.928-0.246-1.28,0l-2.712,1.888
					c-0.353,0.245-0.539,0.109-0.415-0.301l0.956-3.165c0.125-0.409-0.054-0.957-0.396-1.217l-2.633-1.996
					c-0.342-0.26-0.271-0.479,0.158-0.488l3.305-0.067c0.429-0.009,0.896-0.348,1.036-0.753L73.791,498.802z"/>
			</g>
		</g>
		<g display="inline">
			<rect x="83.725" y="495.953" fill="#FFFFFF" width="16.625" height="16.625"/>
			<g>
				<path fill="#CECECE" d="M91.781,498.802c0.14-0.405,0.371-0.405,0.513,0l1.084,3.121c0.142,0.405,0.607,0.744,1.037,0.753
					l3.304,0.067c0.429,0.009,0.5,0.229,0.159,0.488l-2.634,1.996c-0.342,0.26-0.519,0.808-0.396,1.217l0.958,3.165
					c0.124,0.41-0.062,0.546-0.415,0.301l-2.714-1.888c-0.352-0.246-0.928-0.246-1.28,0l-2.712,1.888
					c-0.353,0.245-0.539,0.109-0.415-0.301l0.956-3.165c0.125-0.409-0.054-0.957-0.396-1.217l-2.633-1.996
					c-0.342-0.26-0.271-0.479,0.158-0.488l3.305-0.067c0.429-0.009,0.896-0.348,1.036-0.753L91.781,498.802z"/>
			</g>
		</g>
		<g display="inline">
			<rect x="101.716" y="495.953" fill="#FFFFFF" width="16.625" height="16.625"/>
			<g>
				<path fill="#CECECE" d="M109.772,498.802c0.14-0.405,0.371-0.405,0.513,0l1.084,3.121c0.142,0.405,0.607,0.744,1.037,0.753
					l3.304,0.067c0.429,0.009,0.5,0.229,0.159,0.488l-2.634,1.996c-0.342,0.26-0.519,0.808-0.396,1.217l0.958,3.165
					c0.124,0.41-0.062,0.546-0.415,0.301l-2.714-1.888c-0.352-0.246-0.928-0.246-1.28,0l-2.712,1.888
					c-0.353,0.245-0.539,0.109-0.415-0.301l0.956-3.165c0.125-0.409-0.054-0.957-0.396-1.217l-2.633-1.996
					c-0.342-0.26-0.271-0.479,0.158-0.488l3.305-0.067c0.429-0.009,0.896-0.348,1.036-0.753L109.772,498.802z"/>
			</g>
		</g>
	</g>
	<g display="none">
		<path display="inline" fill="#CECECE" d="M72.921,581.719c0.14-0.405,0.371-0.405,0.513,0l1.084,3.121
			c0.142,0.405,0.607,0.744,1.037,0.753l3.304,0.067c0.429,0.009,0.5,0.229,0.159,0.488l-2.634,1.996
			c-0.342,0.26-0.519,0.808-0.396,1.217l0.958,3.165c0.124,0.41-0.062,0.546-0.415,0.301l-2.714-1.888
			c-0.352-0.246-0.928-0.246-1.28,0l-2.712,1.888c-0.353,0.245-0.539,0.109-0.415-0.301l0.956-3.165
			c0.125-0.409-0.054-0.957-0.396-1.217l-2.633-1.996c-0.342-0.26-0.271-0.479,0.158-0.488l3.305-0.067
			c0.429-0.009,0.896-0.348,1.036-0.753L72.921,581.719z"/>
	</g>
	<g>
		<g>
			<rect x="59.412" y="469.595" fill="#F15A50" width="16.625" height="16.625"/>
			<g>
				<path fill="#FFFFFF" d="M67.469,472.444c0.14-0.405,0.371-0.405,0.513,0l1.084,3.121c0.142,0.405,0.607,0.744,1.037,0.753
					l3.304,0.067c0.429,0.009,0.5,0.229,0.159,0.488l-2.634,1.996c-0.342,0.26-0.519,0.808-0.396,1.217l0.958,3.165
					c0.124,0.41-0.062,0.546-0.415,0.301l-2.714-1.888c-0.352-0.246-0.928-0.246-1.28,0l-2.712,1.888
					c-0.353,0.245-0.539,0.109-0.415-0.301l0.956-3.165c0.125-0.409-0.054-0.957-0.396-1.217l-2.633-1.996
					c-0.342-0.26-0.271-0.479,0.158-0.488l3.305-0.067c0.429-0.009,0.896-0.348,1.036-0.753L67.469,472.444z"/>
			</g>
		</g>
		<g>
			<rect x="77.403" y="469.595" fill="#F15A50" width="16.625" height="16.625"/>
			<g>
				<path fill="#FFFFFF" d="M85.459,472.444c0.14-0.405,0.371-0.405,0.513,0l1.084,3.121c0.142,0.405,0.607,0.744,1.037,0.753
					l3.304,0.067c0.429,0.009,0.5,0.229,0.159,0.488l-2.634,1.996c-0.342,0.26-0.519,0.808-0.396,1.217l0.958,3.165
					c0.124,0.41-0.062,0.546-0.415,0.301l-2.714-1.888c-0.352-0.246-0.928-0.246-1.28,0l-2.712,1.888
					c-0.353,0.245-0.539,0.109-0.415-0.301l0.956-3.165c0.125-0.409-0.054-0.957-0.396-1.217l-2.633-1.996
					c-0.342-0.26-0.271-0.479,0.158-0.488l3.305-0.067c0.429-0.009,0.896-0.348,1.036-0.753L85.459,472.444z"/>
			</g>
		</g>
		<g>
			<rect x="95.394" y="469.595" fill="#F15A50" width="16.625" height="16.625"/>
			<g>
				<path fill="#FFFFFF" d="M103.45,472.444c0.14-0.405,0.371-0.405,0.513,0l1.084,3.121c0.142,0.405,0.607,0.744,1.037,0.753
					l3.304,0.067c0.429,0.009,0.5,0.229,0.159,0.488l-2.634,1.996c-0.342,0.26-0.519,0.808-0.396,1.217l0.958,3.165
					c0.124,0.41-0.062,0.546-0.415,0.301l-2.714-1.888c-0.352-0.246-0.928-0.246-1.28,0l-2.712,1.888
					c-0.353,0.245-0.539,0.109-0.415-0.301l0.956-3.165c0.125-0.409-0.054-0.957-0.396-1.217l-2.633-1.996
					c-0.342-0.26-0.271-0.479,0.158-0.488l3.305-0.067c0.429-0.009,0.896-0.348,1.036-0.753L103.45,472.444z"/>
			</g>
		</g>
		<g>
			<rect x="113.384" y="469.595" fill="#F15A50" width="16.625" height="16.625"/>
			<g>
				<path fill="#FFFFFF" d="M121.441,472.444c0.14-0.405,0.371-0.405,0.513,0l1.084,3.121c0.142,0.405,0.607,0.744,1.037,0.753
					l3.304,0.067c0.429,0.009,0.5,0.229,0.159,0.488l-2.634,1.996c-0.342,0.26-0.519,0.808-0.396,1.217l0.958,3.165
					c0.124,0.41-0.062,0.546-0.415,0.301l-2.714-1.888c-0.352-0.246-0.928-0.246-1.28,0l-2.712,1.888
					c-0.353,0.245-0.539,0.109-0.415-0.301l0.956-3.165c0.125-0.409-0.054-0.957-0.396-1.217l-2.633-1.996
					c-0.342-0.26-0.271-0.479,0.158-0.488l3.305-0.067c0.429-0.009,0.896-0.348,1.036-0.753L121.441,472.444z"/>
			</g>
		</g>
		<g>
			<rect x="131.375" y="469.595" fill="#F15A50" width="16.625" height="16.625"/>
			<g>
				<path fill="#FFFFFF" d="M139.431,472.444c0.14-0.405,0.371-0.405,0.513,0l1.084,3.121c0.142,0.405,0.607,0.744,1.037,0.753
					l3.304,0.067c0.429,0.009,0.5,0.229,0.159,0.488l-2.634,1.996c-0.342,0.26-0.519,0.808-0.396,1.217l0.958,3.165
					c0.124,0.41-0.062,0.546-0.415,0.301l-2.714-1.888c-0.352-0.246-0.928-0.246-1.28,0l-2.712,1.888
					c-0.353,0.245-0.539,0.109-0.415-0.301l0.956-3.165c0.125-0.409-0.054-0.957-0.396-1.217l-2.633-1.996
					c-0.342-0.26-0.271-0.479,0.158-0.488l3.305-0.067c0.429-0.009,0.896-0.348,1.036-0.753L139.431,472.444z"/>
			</g>
		</g>
	</g>
	<g>
		<g>
			<rect x="59.412" y="493.96" fill="#FFFFFF" width="16.625" height="16.625"/>
			<g>
				<path fill="#CECECE" d="M67.469,496.809c0.14-0.405,0.371-0.405,0.513,0l1.084,3.121c0.142,0.405,0.607,0.744,1.037,0.753
					l3.304,0.067c0.429,0.009,0.5,0.229,0.159,0.488l-2.634,1.996c-0.342,0.26-0.519,0.808-0.396,1.217l0.958,3.165
					c0.124,0.41-0.062,0.546-0.415,0.301l-2.714-1.888c-0.352-0.246-0.928-0.246-1.28,0l-2.712,1.888
					c-0.353,0.245-0.539,0.109-0.415-0.301l0.956-3.165c0.125-0.409-0.054-0.957-0.396-1.217l-2.633-1.996
					c-0.342-0.26-0.271-0.479,0.158-0.488l3.305-0.067c0.429-0.009,0.896-0.348,1.036-0.753L67.469,496.809z"/>
			</g>
		</g>
		<g>
			<rect x="77.403" y="493.96" fill="#FFFFFF" width="16.625" height="16.625"/>
			<g>
				<path fill="#CECECE" d="M85.459,496.809c0.14-0.405,0.371-0.405,0.513,0l1.084,3.121c0.142,0.405,0.607,0.744,1.037,0.753
					l3.304,0.067c0.429,0.009,0.5,0.229,0.159,0.488l-2.634,1.996c-0.342,0.26-0.519,0.808-0.396,1.217l0.958,3.165
					c0.124,0.41-0.062,0.546-0.415,0.301l-2.714-1.888c-0.352-0.246-0.928-0.246-1.28,0l-2.712,1.888
					c-0.353,0.245-0.539,0.109-0.415-0.301l0.956-3.165c0.125-0.409-0.054-0.957-0.396-1.217l-2.633-1.996
					c-0.342-0.26-0.271-0.479,0.158-0.488l3.305-0.067c0.429-0.009,0.896-0.348,1.036-0.753L85.459,496.809z"/>
			</g>
		</g>
		<g>
			<rect x="95.394" y="493.96" fill="#FFFFFF" width="16.625" height="16.625"/>
			<g>
				<path fill="#CECECE" d="M103.45,496.809c0.14-0.405,0.371-0.405,0.513,0l1.084,3.121c0.142,0.405,0.607,0.744,1.037,0.753
					l3.304,0.067c0.429,0.009,0.5,0.229,0.159,0.488l-2.634,1.996c-0.342,0.26-0.519,0.808-0.396,1.217l0.958,3.165
					c0.124,0.41-0.062,0.546-0.415,0.301l-2.714-1.888c-0.352-0.246-0.928-0.246-1.28,0l-2.712,1.888
					c-0.353,0.245-0.539,0.109-0.415-0.301l0.956-3.165c0.125-0.409-0.054-0.957-0.396-1.217l-2.633-1.996
					c-0.342-0.26-0.271-0.479,0.158-0.488l3.305-0.067c0.429-0.009,0.896-0.348,1.036-0.753L103.45,496.809z"/>
			</g>
		</g>
		<g>
			<rect x="113.384" y="493.96" fill="#FFFFFF" width="16.625" height="16.625"/>
			<g>
				<path fill="#CECECE" d="M121.441,496.809c0.14-0.405,0.371-0.405,0.513,0l1.084,3.121c0.142,0.405,0.607,0.744,1.037,0.753
					l3.304,0.067c0.429,0.009,0.5,0.229,0.159,0.488l-2.634,1.996c-0.342,0.26-0.519,0.808-0.396,1.217l0.958,3.165
					c0.124,0.41-0.062,0.546-0.415,0.301l-2.714-1.888c-0.352-0.246-0.928-0.246-1.28,0l-2.712,1.888
					c-0.353,0.245-0.539,0.109-0.415-0.301l0.956-3.165c0.125-0.409-0.054-0.957-0.396-1.217l-2.633-1.996
					c-0.342-0.26-0.271-0.479,0.158-0.488l3.305-0.067c0.429-0.009,0.896-0.348,1.036-0.753L121.441,496.809z"/>
			</g>
		</g>
		<g>
			<rect x="131.375" y="493.96" fill="#FFFFFF" width="16.625" height="16.625"/>
			<g>
				<path fill="#CECECE" d="M139.431,496.809c0.14-0.405,0.371-0.405,0.513,0l1.084,3.121c0.142,0.405,0.607,0.744,1.037,0.753
					l3.304,0.067c0.429,0.009,0.5,0.229,0.159,0.488l-2.634,1.996c-0.342,0.26-0.519,0.808-0.396,1.217l0.958,3.165
					c0.124,0.41-0.062,0.546-0.415,0.301l-2.714-1.888c-0.352-0.246-0.928-0.246-1.28,0l-2.712,1.888
					c-0.353,0.245-0.539,0.109-0.415-0.301l0.956-3.165c0.125-0.409-0.054-0.957-0.396-1.217l-2.633-1.996
					c-0.342-0.26-0.271-0.479,0.158-0.488l3.305-0.067c0.429-0.009,0.896-0.348,1.036-0.753L139.431,496.809z"/>
			</g>
		</g>
	</g>
	<g>
		<polygon fill="#FFFFFF" points="74.012,742.727 69.398,745.418 69.398,740.035 69.398,734.652 74.012,737.344 78.626,740.035 		
			"/>
	</g>
	<g>
		<polygon fill="#0BAEDD" points="74.012,787.227 69.398,789.918 69.398,784.535 69.398,779.152 74.012,781.844 78.626,784.535 		
			"/>
	</g>
</g>
</svg>
