<?xml version="1.0" encoding="utf-8"?>
<!-- Generator: Adobe Illustrator 17.0.0, SVG Export Plug-In . SVG Version: 6.00 Build 0)  -->
<!DOCTYPE svg PUBLIC "-//W3C//DTD SVG 1.1//EN" "http://www.w3.org/Graphics/SVG/1.1/DTD/svg11.dtd">
<svg version="1.1" xmlns="http://www.w3.org/2000/svg" xmlns:xlink="http://www.w3.org/1999/xlink" x="0px" y="0px" width="148px"
	 height="2370px" viewBox="0 0 148 2370" enable-background="new 0 0 148 2370" xml:space="preserve">
<g id="Layer_2_2_" display="none">
	<rect display="inline" fill="#BB2028" width="148" height="2370"/>
</g>
<g id="Layer_1">
	<g id="Layer_2_1_" display="none">
		<rect x="0.012" y="-0.542" display="inline" fill="#A82020" width="148" height="2379"/>
	</g>
	<g id="Layer_2" display="none">
		<rect display="inline" fill="#720707" width="148" height="2370"/>
	</g>
	
		<image display="none" overflow="visible" enable-background="new    " width="300" height="2000" id="t9AupK_2_" xlink:href="1EBD2A1FCDAC6AC8.jpeg" >
	</image>
	<g>
		<path fill="#F47A2B" d="M73.917,256.25c0.026,0.106,0.197,0.098,0.17,0.248c0.117,0.034,0.143,0.142,0.226,0.204
			c0.024,0.256,0.28,0.327,0.3,0.586c0.13,0.113,0.157,0.31,0.278,0.428c0.017,0.031,0.017,0.076,0.027,0.112
			c0.344,0.499,0.677,1.005,1.06,1.473c0.053,0.017,0.068,0.063,0.132,0.071c-0.006,0.039,0.023,0.05,0.029,0.082
			c0.106,0.037,0.177,0.104,0.261,0.158c0.227-0.045,0.27,0.164,0.447,0.205c0.083-0.053,0.18-0.009,0.278-0.061
			c0.274,0.123,0.561-0.001,0.846,0.105c0.181-0.079,0.453-0.005,0.555-0.135c0.127,0.008,0.145,0.005,0.256,0.002
			c0.039-0.02-0.001-0.125,0.06-0.121c0.054,0,0.054,0.045,0.117,0.039c0.022-0.085,0.092-0.143,0.194-0.097
			c0.128-0.184,0.269-0.354,0.332-0.606c-0.166-0.041-0.234,0.021-0.328,0.056c-0.167-0.029-0.294-0.089-0.399-0.168
			c0,0.082-0.081,0.013-0.104,0.04c-0.082-0.106-0.019-0.33-0.072-0.46c-0.14-0.153-0.223-0.353-0.321-0.542
			c-0.03-0.017-0.06,0.043-0.067-0.004c-0.027-0.299-0.288-0.49-0.308-0.745c0.091,0.006,0.139,0.125,0.197,0.108
			c-0.031-0.08-0.111-0.109-0.161-0.137c0.005-0.04,0.015-0.074,0.041-0.092c0.159,0.105,0.26,0.254,0.383,0.388
			c-0.018,0.037-0.044,0.065-0.042,0.124c0.049,0.026,0.12,0.154,0.165,0.089c-0.024-0.068-0.154-0.118-0.106-0.196
			c0.107,0.063,0.211,0.204,0.309,0.226c-0.401-0.398-0.659-0.912-0.964-1.387c-0.015,0.03-0.062,0.052-0.086,0.025
			c-0.042-0.05,0.028-0.124-0.007-0.158c-0.026,0.017-0.051,0.037-0.072,0.058c-0.093-0.141-0.131-0.401-0.167-0.545
			c-0.053-0.212-0.069-0.519-0.068-0.76c0.002-0.458,0.06-1.158,0.129-1.627c0.12-0.827,0.329-1.577,0.583-2.287
			c0.117-0.329,0.283-1,0.402-0.902c0.082-0.108,0.072-0.315,0.197-0.378c-0.018,0.127-0.128,0.244-0.11,0.354
			c0.358-0.882,0.792-1.683,1.387-2.312c0.016-0.047-0.025-0.048-0.01-0.095c0.112-0.112,0.207-0.24,0.378-0.289
			c-0.008-0.093,0.057-0.18,0.128-0.133c0.004-0.107,0.241-0.105,0.186-0.208c-0.041,0.055-0.035-0.049-0.083-0.037
			c-0.081,0.055-0.16,0.111-0.234,0.173c-0.022,0.077,0.005,0.056,0.01,0.111c-0.043,0.035-0.031-0.026-0.084-0.022
			c-0.167,0.203-0.394,0.345-0.583,0.526c0.009,0.139-0.167,0.212-0.211,0.348c-0.09-0.015-0.104,0.117-0.175,0.066
			c0.206-0.325,0.5-0.647,0.743-0.877c0.005,0.025-0.067,0.049-0.069,0.011c0.073-0.213,0.307-0.257,0.438-0.411
			c-0.058,0.008-0.06-0.029-0.064-0.066c0.027-0.121,0.21-0.137,0.274-0.264c-0.023-0.045-0.072,0.022-0.084-0.022
			c0.016-0.094,0.098-0.121,0.118-0.212c0.259-0.067,0.431-0.227,0.638-0.349c-0.226-0.021-0.251,0.17-0.456,0.173
			c-0.03,0.035-0.013,0.12-0.076,0.12c-0.233-0.027-0.271,0.152-0.439,0.191c-0.001-0.119,0.063-0.167,0.181-0.161
			c0.04-0.16,0.222-0.168,0.31-0.277c-0.228,0.044-0.323,0.229-0.564,0.26c-0.011-0.044,0.027-0.039,0.022-0.077
			c-0.029-0.011-0.101,0.012-0.101-0.022c0.111-0.18,0.308-0.268,0.487-0.375c-0.113-0.006-0.004-0.083,0.007-0.11
			c-0.054-0.022-0.107,0.041-0.136-0.01c0.12-0.125,0.346-0.226,0.512-0.248c-0.034,0.065-0.12,0.076-0.146,0.148
			c0.068-0.021,0,0.068,0.046,0.066c0.061-0.042,0.058-0.152,0.164-0.146c0.007-0.05-0.025-0.068-0.008-0.126
			c0.099,0.033,0.102-0.037,0.125-0.086c-0.106,0.023-0.196,0.061-0.296,0.09c-0.012-0.045-0.051-0.068-0.042-0.128
			c-0.088,0.02-0.187,0.027-0.229,0.094c0.082,0.127,0.174-0.074,0.208-0.048c0.008,0.069-0.054,0.066-0.059,0.122
			c-0.32,0.097-0.562,0.279-0.911,0.346c-0.029-0.028,0.018-0.051,0.008-0.109c0.048-0.015,0.117-0.008,0.187-0.002
			c-0.01-0.062,0.045-0.053,0.058-0.091c-0.073,0.034-0.093-0.011-0.134-0.041c-0.052,0.04-0.171,0.098-0.228,0.079
			c0.036-0.158,0.186-0.216,0.259-0.297c-0.123,0.058-0.325,0.13-0.378,0.038c0.332-0.187,0.798-0.32,1.06-0.526
			c0.035,0.032,0.131-0.002,0.089-0.041c-0.583,0.226-1.15,0.553-1.739,0.714c0.149-0.236,0.494-0.355,0.733-0.484
			c0.074-0.04,0.218-0.061,0.216-0.158c-0.263,0.08-0.432,0.26-0.674,0.362c-0.018-0.025-0.069-0.023-0.062-0.067
			c0.019-0.07,0.105-0.066,0.128-0.133c-0.087,0.007-0.193,0.07-0.258,0.045c0.029-0.042,0.149-0.075,0.126-0.117
			c-0.088,0.046-0.195,0.086-0.242,0.045c-0.072,0.103-0.154,0.196-0.304,0.215c-0.079-0.069-0.098,0.015-0.206,0.001
			c0.011-0.111,0.016-0.219-0.067-0.256c-0.063-0.003-0.19,0.154-0.281,0.123c-0.004-0.032,0.099-0.073,0.022-0.077
			c-0.104,0.03-0.102,0.172-0.203,0.207c-0.034-0.011-0.052-0.037-0.081-0.052c-0.112,0.099-0.251,0.171-0.376,0.257
			c-0.016-0.041,0.084-0.055,0.004-0.062c-0.076,0.016-0.042,0.071-0.044,0.139c-0.175,0.094-0.246,0.292-0.42,0.396
			c-0.059,0.037-0.116,0.025-0.156,0.052c-0.253,0.171-0.493,0.468-0.613,0.729c-0.011-0.026,0.082-0.02,0.067,0.004
			c-0.024,0.144-0.306,0.109-0.172,0.271c-0.029,0-0.053-0.006-0.067-0.021c0,0.103-0.1,0.14-0.151,0.21
			c-0.218,0.301-0.328,0.667-0.463,1.039c-0.069,0.187-0.169,0.365-0.243,0.549c-0.1,0.251-0.122,0.535-0.306,0.734
			c-0.016-0.022-0.012-0.059-0.047-0.066c-0.035,0.021,0.025,0.067-0.04,0.076c-0.035-0.085-0.057-0.181-0.065-0.287
			c-0.049-0.052-0.032,0.051-0.104,0.024c0.015-0.071-0.022-0.1-0.005-0.174c0.03-0.004,0.042,0.026,0.051,0.004
			c-0.119-0.133,0.03-0.417-0.116-0.543c0.002,0.051-0.051,0.08-0.088,0.041c0.007,0.038-0.029,0.112,0.008,0.126
			c0.01-0.03,0.011-0.067,0.056-0.059c0.019,0.084,0.038,0.194-0.033,0.233c0.065,0.36,0.188,0.652,0.189,0.972
			c-0.178-0.44-0.31-1.053-0.339-1.517c0.035,0.044,0.023,0.129,0.073,0.162c0.004-0.071-0.009-0.062,0.01-0.125
			c0.042-0.043,0.076,0.002,0.104-0.04c-0.001-0.103-0.036-0.178-0.085-0.241c-0.015,0.062,0.01,0.167-0.031,0.202
			c-0.056-0.104-0.066-0.243-0.094-0.369c-0.062,0.133,0.103,0.275,0.008,0.378c-0.062,0.02-0.007-0.054-0.048-0.051
			c-0.011,0.027,0.015,0.093-0.023,0.093c-0.036-0.037-0.048-0.089-0.041-0.161c0.038-0.008,0.051,0.047,0.052-0.012
			c-0.025-0.173-0.141-0.428-0.044-0.601c0.041,0.11,0.022,0.269,0.114,0.338c-0.045-0.298-0.072-0.541-0.166-0.813
			c-0.018,0.114,0.074,0.277-0.007,0.346c-0.056-0.093-0.056-0.284-0.094-0.368c-0.012,0.031,0.015,0.104-0.024,0.108
			c-0.052-0.056-0.02-0.133,0.012-0.188c-0.066-0.015-0.022-0.034-0.01-0.11c0.026-0.16-0.043-0.3-0.041-0.397
			c0.135,0.063,0.048,0.307,0.143,0.403c0.021-0.078,0.003-0.205-0.012-0.315c-0.028-0.203-0.078-0.43-0.113-0.59
			c0.029-0.276-0.071-0.573-0.095-0.856c-0.049,0.124,0.081,0.36-0.016,0.471c-0.047-0.198-0.111-0.494,0.061-0.625
			c-0.035-0.163-0.085-0.383-0.063-0.57c-0.003,0.041,0.008,0.099-0.057,0.074c-0.001-0.112,0.081-0.158,0.017-0.25
			c0.004,0.019-0.052,0.05-0.052,0.012c0.085-0.069,0.089-0.296,0.007-0.361c0.015-0.023,0.056-0.019,0.055-0.059
			c-0.152-1.848,0.108-3.762,0.416-5.571c0.066-0.128,0.121-0.348,0.119-0.495c0.072-0.105,0.113-0.25,0.094-0.371
			c0.132-0.179,0.13-0.38,0.193-0.584c0.155-0.5,0.361-1.095,0.533-1.552c0.042-0.112,0.129-0.203,0.139-0.29
			c0-0.001-0.032-0.061-0.03-0.064c0.019-0.044,0.086-0.087,0.112-0.134c0.032-0.061,0.058-0.126,0.081-0.184
			c0.217-0.528,0.452-1.048,0.702-1.524c0.119-0.226,0.314-0.522,0.456-0.676c0.101-0.353,0.368-0.53,0.501-0.846
			c0.205-0.197,0.353-0.457,0.542-0.67c0.109-0.349,0.418-0.487,0.518-0.846c0.048,0.017,0.046-0.018,0.086-0.009
			c0.182-0.339,0.461-0.576,0.643-0.915c0.037-0.012,0.078-0.019,0.105-0.04c0.394-0.552,0.896-0.99,1.332-1.498
			c0.233-0.1,0.336-0.338,0.576-0.432c0.268-0.259,0.586-0.465,0.868-0.711c0.222-0.091,0.355-0.274,0.54-0.403
			c0.221-0.12,0.42-0.261,0.578-0.448c0.171-0.02,0.2-0.191,0.356-0.227c0.003-0.042,0-0.09,0.025-0.108
			c0.023-0.021,0.075-0.011,0.121-0.008c0.001-0.026,0.003-0.052,0.005-0.078c0.151-0.042,0.206-0.189,0.309-0.278
			c0.03-0.025,0.091-0.029,0.124-0.054c0.206-0.167,0.342-0.422,0.551-0.56c0.262-0.174,0.476-0.386,0.656-0.632
			c0.05-0.013,0.073-0.011,0.119,0.008c0.08-0.396,0.082-0.876,0.315-1.11c-0.285-0.197-0.567-0.019-0.833-0.057
			c-0.139-0.02-0.244,0.015-0.395,0.036c-0.39,0.055-0.767,0.147-1.077,0.272c-1.21,0.245-2.247,0.655-3.235,1.132
			c-0.871,0.421-1.6,0.953-2.337,1.476c-0.223,0.134-0.407,0.308-0.596,0.478c-2.038,1.597-3.604,3.689-4.953,6.015
			c-0.202,0.508-0.505,0.909-0.663,1.465c-0.34,0.707-0.627,1.507-0.876,2.314c-0.061,0.198-0.085,0.431-0.144,0.604
			c-0.144,0.425-0.252,0.863-0.346,1.313c-0.056,0.272-0.173,0.635-0.196,0.883c-0.072,0.742-0.174,1.748-0.25,2.404
			c-0.044,0.381,0,0.834-0.011,1.164c-0.003,0.096-0.048,0.193-0.054,0.294c-0.035,0.519,0.062,0.961,0.072,1.436
			c0.002,0.099-0.026,0.202-0.02,0.297c0.014,0.228,0.079,0.447,0.091,0.667c0.013,0.239-0.007,0.473,0.021,0.708
			c0.032,0.292,0.06,0.594,0.18,0.862c0,0.069,0.019,0.123,0.003,0.205c0.028,0.053,0.104,0.117-0.01,0.141
			c-0.055-0.005-0.005-0.094-0.08-0.084c-0.178-0.095-0.361-0.154-0.477-0.269c-0.039-0.002-0.079-0.005-0.119-0.008
			c-0.006-0.054-0.071-0.061-0.095-0.102c-0.257-0.02-0.418-0.129-0.652-0.201c-0.068,0.064-0.191-0.019-0.235-0.064
			c-0.036,0.007-0.057,0.03-0.088,0.041c-0.203-0.062-0.408-0.22-0.668-0.217c-0.049,0-0.089,0.025-0.139,0.021
			c-0.223-0.018-0.493-0.167-0.771-0.195c-0.219-0.021-0.406-0.026-0.612-0.041c-0.209-0.082-0.54-0.119-0.743-0.114
			c0.135,0.031,0.456,0.051,0.346,0.181c0.103-0.028,0.184-0.051,0.272,0.018c-0.003,0.042,0,0.091-0.025,0.109
			c-0.261-0.021-0.485-0.013-0.584-0.182c0.028,0.068-0.007,0.158-0.064,0.185c-0.117,0.018-0.166-0.13-0.22-0.031
			c0.052,0.003,0.112-0.001,0.099,0.054c-0.125,0.02-0.301-0.016-0.395,0.036c-0.012-0.138-0.235-0.033-0.29-0.004
			c0.045,0.012,0.109-0.039,0.136,0.009c0.042,0.038-0.057,0.048-0.006,0.095c0.081,0.027,0.197,0.027,0.25,0.08
			c-0.069,0.027-0.209-0.003-0.237-0.017c0.032,0.078,0.227,0.025,0.249,0.111c-0.055,0.021-0.143,0.006-0.174,0.051
			c0.032,0.015,0.057,0.059,0.029,0.081c-0.085-0.017-0.121,0.018-0.206,0.001c0.026,0.195-0.284,0.035-0.365,0.116
			c-0.015,0.057,0.079,0.024,0.08,0.069c-0.088,0.098-0.091,0.183-0.189,0.271c0.021,0.023,0.091-0.04,0.101,0.037
			c-0.188,0.015-0.349-0.036-0.465,0.063c0.019,0.063,0.132,0.052,0.164,0.105c-0.017,0.044,0.021,0.042,0.011,0.08
			c-0.118,0.025-0.294,0.018-0.399,0.098c0.022,0.057,0.148,0.029,0.128,0.119c-0.04,0.018-0.067,0.052-0.091,0.088
			c-0.24,0.004-0.366,0.128-0.622,0.115c0.1,0.134,0.268-0.047,0.392,0.011c-0.087,0.205-0.396,0.088-0.604,0.1
			c0.099,0.084,0.322,0.067,0.38,0.183c-0.214,0.046-0.384-0.128-0.577-0.055c0.578,0.224,1.113,0.479,1.694,0.699
			c0.123,0.083,0.239,0.172,0.448,0.187c0.015,0.087,0.14,0.086,0.178,0.154c0.061,0.003,0.084-0.034,0.138-0.038
			c0.006,0.059,0.027,0.107,0.076,0.131c0.031-0.017,0.049-0.049,0.106-0.04c-0.017,0.018-0.026,0.041-0.022,0.077
			c0.11,0.059,0.243,0.1,0.329,0.179c0.041-0.002,0.015-0.073,0.072-0.058c0.161,0.074,0.312,0.155,0.48,0.223
			c0,0.039-0.03,0.045-0.04,0.075c0.145,0.146,0.444,0.166,0.594,0.308c0.409,0.106,0.6,0.385,0.99,0.508
			c-0.018,0.049,0.01,0.06,0.028,0.081c0.02,0.022,0.072,0.021,0.117,0.023c0.062,0.063,0.175,0.086,0.229,0.157
			c0.034,0.002,0.067,0.005,0.102,0.007c0.525,0.288,0.939,0.666,1.435,0.978c0.158,0.14,0.294,0.297,0.521,0.382
			c0.023,0.06,0.075,0.099,0.091,0.164c0.068,0.014,0.096,0.061,0.184,0.06c0.008,0.067,0.062,0.097,0.093,0.147
			c0.072-0.009,0.078,0.036,0.133,0.041c0.7,0.715,1.405,1.427,2.017,2.213c0.014,0.038,0.024,0.079,0.025,0.128
			c0.059,0.026,0.103,0.064,0.092,0.147c0.185,0.12,0.255,0.371,0.268,0.585c0.088-0.028,0.184,0.084,0.14,0.198
			c0.033,0.056,0.094-0.027,0.102,0.007c0,0.05-0.049,0.049-0.041,0.107c0.05,0.046,0.101,0.035,0.149,0.058
			c0.008,0.082,0,0.096,0.022,0.174c0.042,0.036,0.077-0.042,0.139-0.038c0.192,0.334,0.401,0.656,0.652,0.941
			C74.013,256.391,73.779,256.315,73.917,256.25z M78.49,249.784c0.061-0.383,0.297-0.728,0.464-1.053
			c0.005,0.133-0.124,0.272-0.165,0.413c-0.03,0.054,0.057,0.014,0.048,0.051c0.005,0.05-0.029,0.059-0.041,0.092
			c-0.037,0.005-0.03-0.025-0.031-0.05C78.637,249.38,78.61,249.631,78.49,249.784z M80.441,245.718
			c-0.007,0.055-0.065,0.055-0.075,0.105c-0.045-0.009-0.059-0.042-0.045-0.098C80.344,245.707,80.395,245.715,80.441,245.718z
			 M80.188,246.912c0,0.057-0.03,0.081-0.09,0.073C80.096,246.927,80.145,246.922,80.188,246.912z M77.784,256.86
			c-0.022-0.025-0.059-0.072-0.027-0.097C77.792,256.778,77.818,256.833,77.784,256.86z M73.686,255.872
			c-0.002,0.037-0.005,0.074-0.007,0.11c-0.051-0.016-0.076-0.104-0.06-0.129C73.634,255.865,73.657,255.871,73.686,255.872z
			 M74.035,247.278c0.051,0.015,0.036-0.042,0.088-0.025c-0.014,0.06,0.024,0.078,0.007,0.142c-0.034,0.045-0.063-0.062-0.103-0.006
			c-0.073-0.125-0.064-0.224-0.093-0.384C74.046,247.032,73.957,247.222,74.035,247.278z M73.871,244.688
			c-0.06-0.018-0.096-0.22-0.002-0.22C73.882,244.531,73.88,244.606,73.871,244.688z M73.8,245.469c0,0.039-0.003,0.075-0.023,0.092
			C73.732,245.564,73.723,245.434,73.8,245.469z M66.079,245.554c-0.011,0.061-0.081,0.071-0.139,0.037
			C65.934,245.523,66.022,245.555,66.079,245.554z"/>
	</g>
	<g>
		<path fill="#FFFFFF" d="M77.734,96.562v-2.693c0,0-3.872-0.451-5.027,0.984c-0.952,1.183-0.789,4.281-0.789,4.281h-1.652v2.785
			h1.652v8.02h3.305l0.039-8.068l2.227-0.013l0.245-2.792l-2.496,0.023l0.07-1.63c0,0-0.023-0.391,0.161-0.62
			C75.651,96.608,77.289,96.631,77.734,96.562z"/>
	</g>
	<g>
		<rect x="67.35" y="145.385" fill="#FFFFFF" width="2.82" height="8.947"/>
		<path fill="#FFFFFF" d="M71.872,145.385h3.015v1.021c0,0,0.287-1.261,2.626-1.264c3.404-0.005,3.404,3.063,3.404,3.063v6.127
			h-2.966v-5.592c0,0-0.39-1.195-1.458-1.216c-1.24-0.024-1.556,1.532-1.556,1.532v5.276h-3.064L71.872,145.385L71.872,145.385
			L71.872,145.385z"/>
		<circle fill="#FFFFFF" cx="68.846" cy="142.577" r="1.763"/>
	</g>
	<g>
		<g>
			<g>
				<path id="SVGID_4_" fill="#FFFFFF" d="M67.607,12.183c0-1.375,1.652-2.521,3.498-2.5c0.43,0.006,0.829,0.074,1.195,0.191
					c1.002,0.697,1.72,1.091,1.924,1.883c0.037,0.162,0.057,0.328,0.057,0.497c0,1.403-0.903,2.5-3.498,2.5
					C68.94,14.754,67.607,13.585,67.607,12.183 M71.27,6.525c-1.238-0.037-2.416-1.384-2.629-3.01s0.619-2.871,1.856-2.834
					c1.237,0.038,2.415,1.342,2.628,2.968c0.21,1.604-0.594,2.878-1.803,2.878L71.27,6.525 M71.096,0
					c-2.154,0-4.183,1.634-4.183,3.524c0,1.932,1.469,3.491,3.66,3.491c0.153,0,0.301-0.001,0.447-0.013
					c-0.143,0.274-0.244,0.581-0.244,0.899c0,0.536,0.289,0.974,0.653,1.327c-0.275,0-0.542,0.009-0.834,0.009
					c-2.668,0-4.722,1.699-4.722,3.461c0,1.738,2.251,2.822,4.922,2.822c3.042,0,4.722-1.726,4.722-3.463
					c0-1.392-0.41-2.225-1.68-3.123c-0.433-0.307-1.265-1.056-1.265-1.494c0-0.516,0.146-0.769,0.923-1.375
					c0.794-0.622,1.355-1.494,1.355-2.51c0-1.208-0.538-2.388-1.548-2.776h1.524l1.076-0.778L71.096,0"/>
			</g>
			<g>
				<g>
					<g>
						<defs>
							<path id="SVGID_1_" d="M67.607,12.183c0-1.375,1.652-2.521,3.498-2.5c0.43,0.006,0.829,0.074,1.195,0.191
								c1.002,0.697,1.72,1.091,1.924,1.883c0.037,0.162,0.057,0.328,0.057,0.497c0,1.403-0.903,2.5-3.498,2.5
								C68.94,14.754,67.607,13.585,67.607,12.183 M71.27,6.525c-1.238-0.037-2.416-1.384-2.629-3.01s0.619-2.871,1.856-2.834
								c1.237,0.038,2.415,1.342,2.628,2.968c0.21,1.604-0.594,2.878-1.803,2.878L71.27,6.525 M71.096,0
								c-2.154,0-4.183,1.634-4.183,3.524c0,1.932,1.469,3.491,3.66,3.491c0.153,0,0.301-0.001,0.447-0.013
								c-0.143,0.274-0.244,0.581-0.244,0.899c0,0.536,0.289,0.974,0.653,1.327c-0.275,0-0.542,0.009-0.834,0.009
								c-2.668,0-4.722,1.699-4.722,3.461c0,1.738,2.251,2.822,4.922,2.822c3.042,0,4.722-1.726,4.722-3.463
								c0-1.392-0.41-2.225-1.68-3.123c-0.433-0.307-1.265-1.056-1.265-1.494c0-0.516,0.146-0.769,0.923-1.375
								c0.794-0.622,1.355-1.494,1.355-2.51c0-1.208-0.538-2.388-1.548-2.776h1.524l1.076-0.778L71.096,0"/>
						</defs>
						<clipPath id="SVGID_2_">
							<use xlink:href="#SVGID_1_"  overflow="visible"/>
						</clipPath>
						<rect x="65.873" y="0.001" clip-path="url(#SVGID_2_)" fill="#FFFFFF" width="10.03" height="15.52"/>
					</g>
				</g>
			</g>
		</g>
		<g>
			<g>
				<polyline id="SVGID_3_" fill="#FFFFFF" points="78.158,3.412 78.158,5.91 75.658,5.91 75.658,7.38 78.158,7.38 78.158,9.879 
					79.628,9.879 79.628,7.38 82.126,7.38 82.126,5.91 79.628,5.91 79.628,3.412 78.158,3.412 				"/>
			</g>
			<g>
				<g>
					<g>
						<defs>
							<polyline id="SVGID_5_" points="78.158,3.412 78.158,5.91 75.658,5.91 75.658,7.38 78.158,7.38 78.158,9.879 79.628,9.879 
								79.628,7.38 82.126,7.38 82.126,5.91 79.628,5.91 79.628,3.412 78.158,3.412 							"/>
						</defs>
						<clipPath id="SVGID_6_">
							<use xlink:href="#SVGID_5_"  overflow="visible"/>
						</clipPath>
						<rect x="75.658" y="3.411" clip-path="url(#SVGID_6_)" fill="#FFFFFF" width="6.468" height="6.468"/>
					</g>
				</g>
			</g>
		</g>
	</g>
	<g>
		<path fill="#FFFFFF" d="M82.046,49.679c-0.592,0.262-1.229,0.44-1.896,0.52c0.681-0.409,1.205-1.056,1.452-1.827
			c-0.638,0.378-1.345,0.653-2.097,0.801c-0.602-0.642-1.46-1.042-2.41-1.042c-1.823,0-3.301,1.478-3.301,3.301
			c0,0.258,0.03,0.511,0.085,0.752c-2.743-0.137-5.175-1.452-6.804-3.449c-0.284,0.488-0.447,1.055-0.447,1.66
			c0,1.146,0.583,2.156,1.469,2.748c-0.542-0.017-1.05-0.166-1.496-0.413c0,0.014,0,0.027,0,0.042c0,1.6,1.138,2.934,2.648,3.237
			c-0.277,0.075-0.569,0.116-0.87,0.116c-0.212,0-0.419-0.021-0.621-0.06c0.42,1.312,1.639,2.267,3.084,2.292
			c-1.13,0.886-2.554,1.414-4.1,1.414c-0.267,0-0.529-0.016-0.788-0.046c1.461,0.937,3.196,1.483,5.061,1.483
			c6.072,0,9.393-5.03,9.393-9.393c0-0.143-0.003-0.285-0.01-0.427C81.044,50.922,81.603,50.341,82.046,49.679z"/>
	</g>
	<g>
		<path fill="#F47A2B" d="M82.455,300.364c0,0-4.481,1.65-7.186,0.448c-2.94-1.307-4.964-1.963-7.554-0.011l-0.001,3.552
			c-0.287,0.322-0.656,0.521-1.243,0.781c-0.205,0.088-0.396,0.133-0.557,0.133c-0.301,0-0.373-0.151-0.369-0.429V289.98
			c0.001-0.42,0.484-0.979,1.07-1.239c0.4-0.177,0.736-0.161,0.913-0.004c2.834-1.961,4.858-1.305,7.802,0.005
			c2.701,1.199,7.125-0.451,7.125-0.451L82.455,300.364L82.455,300.364z"/>
	</g>
	<g>
		<path fill="#0BAEDD" d="M73.917,372.182c0.026,0.106,0.197,0.098,0.17,0.248c0.117,0.034,0.143,0.142,0.226,0.204
			c0.024,0.256,0.28,0.327,0.3,0.586c0.13,0.113,0.157,0.31,0.278,0.428c0.017,0.031,0.017,0.076,0.027,0.112
			c0.344,0.499,0.677,1.005,1.06,1.473c0.053,0.017,0.068,0.063,0.132,0.071c-0.006,0.039,0.023,0.05,0.029,0.082
			c0.106,0.037,0.177,0.104,0.261,0.158c0.227-0.045,0.27,0.164,0.447,0.205c0.083-0.053,0.18-0.009,0.278-0.061
			c0.274,0.123,0.561-0.001,0.846,0.105c0.181-0.079,0.453-0.005,0.555-0.135c0.127,0.008,0.145,0.005,0.256,0.002
			c0.039-0.02-0.001-0.125,0.06-0.121c0.054,0,0.054,0.045,0.117,0.039c0.022-0.085,0.092-0.143,0.194-0.097
			c0.128-0.184,0.269-0.354,0.332-0.606c-0.166-0.041-0.234,0.021-0.328,0.056c-0.167-0.029-0.294-0.089-0.399-0.168
			c0,0.082-0.081,0.013-0.104,0.04c-0.082-0.106-0.019-0.33-0.072-0.46c-0.14-0.153-0.223-0.353-0.321-0.542
			c-0.03-0.017-0.06,0.043-0.067-0.004c-0.027-0.299-0.288-0.49-0.308-0.745c0.091,0.006,0.139,0.125,0.197,0.108
			c-0.031-0.08-0.111-0.109-0.161-0.137c0.005-0.04,0.015-0.074,0.041-0.092c0.159,0.105,0.26,0.254,0.383,0.388
			c-0.018,0.037-0.044,0.065-0.042,0.124c0.049,0.026,0.12,0.154,0.165,0.089c-0.024-0.068-0.154-0.118-0.106-0.196
			c0.107,0.063,0.211,0.204,0.309,0.226c-0.401-0.398-0.659-0.912-0.964-1.387c-0.015,0.03-0.062,0.052-0.086,0.025
			c-0.042-0.05,0.028-0.124-0.007-0.158c-0.026,0.017-0.051,0.037-0.072,0.058c-0.093-0.141-0.131-0.401-0.167-0.545
			c-0.053-0.212-0.069-0.519-0.068-0.76c0.002-0.458,0.06-1.158,0.129-1.627c0.12-0.827,0.329-1.577,0.583-2.287
			c0.117-0.329,0.283-1,0.402-0.902c0.082-0.108,0.072-0.315,0.197-0.378c-0.018,0.127-0.128,0.244-0.11,0.354
			c0.358-0.882,0.792-1.683,1.387-2.312c0.016-0.047-0.025-0.048-0.01-0.095c0.112-0.112,0.207-0.24,0.378-0.289
			c-0.008-0.093,0.057-0.18,0.128-0.133c0.004-0.107,0.241-0.105,0.186-0.208c-0.041,0.055-0.035-0.049-0.083-0.037
			c-0.081,0.055-0.16,0.111-0.234,0.173c-0.022,0.077,0.005,0.056,0.01,0.111c-0.043,0.035-0.031-0.026-0.084-0.022
			c-0.167,0.203-0.394,0.345-0.583,0.526c0.009,0.139-0.167,0.212-0.211,0.348c-0.09-0.015-0.104,0.117-0.175,0.066
			c0.206-0.325,0.5-0.647,0.743-0.877c0.005,0.025-0.067,0.049-0.069,0.011c0.073-0.213,0.307-0.257,0.438-0.411
			c-0.058,0.008-0.06-0.029-0.064-0.066c0.027-0.121,0.21-0.137,0.274-0.264c-0.023-0.045-0.072,0.022-0.084-0.022
			c0.016-0.094,0.098-0.121,0.118-0.212c0.259-0.067,0.431-0.227,0.638-0.349c-0.226-0.021-0.251,0.17-0.456,0.173
			c-0.03,0.035-0.013,0.12-0.076,0.12c-0.233-0.027-0.271,0.152-0.439,0.191c-0.001-0.119,0.063-0.167,0.181-0.161
			c0.04-0.16,0.222-0.168,0.31-0.277c-0.228,0.044-0.323,0.229-0.564,0.26c-0.011-0.044,0.027-0.039,0.022-0.077
			c-0.029-0.011-0.101,0.012-0.101-0.022c0.111-0.18,0.308-0.268,0.487-0.375c-0.113-0.006-0.004-0.083,0.007-0.11
			c-0.054-0.022-0.107,0.041-0.136-0.01c0.12-0.125,0.346-0.226,0.512-0.248c-0.034,0.065-0.12,0.076-0.146,0.148
			c0.068-0.021,0,0.068,0.046,0.066c0.061-0.042,0.058-0.152,0.164-0.146c0.007-0.05-0.025-0.068-0.008-0.126
			c0.099,0.033,0.102-0.037,0.125-0.086c-0.106,0.023-0.196,0.061-0.296,0.09c-0.012-0.045-0.051-0.068-0.042-0.128
			c-0.088,0.02-0.187,0.027-0.229,0.094c0.082,0.127,0.174-0.074,0.208-0.048c0.008,0.069-0.054,0.066-0.059,0.122
			c-0.32,0.097-0.562,0.279-0.911,0.346c-0.029-0.028,0.018-0.051,0.008-0.109c0.048-0.015,0.117-0.008,0.187-0.002
			c-0.01-0.062,0.045-0.053,0.058-0.091c-0.073,0.034-0.093-0.011-0.134-0.041c-0.052,0.04-0.171,0.098-0.228,0.079
			c0.036-0.158,0.186-0.216,0.259-0.297c-0.123,0.058-0.325,0.13-0.378,0.038c0.332-0.187,0.798-0.32,1.06-0.526
			c0.035,0.032,0.131-0.002,0.089-0.041c-0.583,0.226-1.15,0.553-1.739,0.714c0.149-0.236,0.494-0.355,0.733-0.484
			c0.074-0.04,0.218-0.061,0.216-0.158c-0.263,0.08-0.432,0.26-0.674,0.362c-0.018-0.025-0.069-0.023-0.062-0.067
			c0.019-0.07,0.105-0.066,0.128-0.133c-0.087,0.007-0.193,0.07-0.258,0.045c0.029-0.042,0.149-0.075,0.126-0.117
			c-0.088,0.046-0.195,0.086-0.242,0.045c-0.072,0.103-0.154,0.196-0.304,0.215c-0.079-0.069-0.098,0.015-0.206,0.001
			c0.011-0.111,0.016-0.219-0.067-0.256c-0.063-0.003-0.19,0.154-0.281,0.123c-0.004-0.032,0.099-0.073,0.022-0.077
			c-0.104,0.03-0.102,0.172-0.203,0.207c-0.034-0.011-0.052-0.037-0.081-0.052c-0.112,0.099-0.251,0.171-0.376,0.257
			c-0.016-0.041,0.084-0.055,0.004-0.062c-0.076,0.016-0.042,0.071-0.044,0.139c-0.175,0.094-0.246,0.292-0.42,0.396
			c-0.059,0.037-0.116,0.025-0.156,0.052c-0.253,0.171-0.493,0.468-0.613,0.729c-0.011-0.026,0.082-0.02,0.067,0.004
			c-0.024,0.144-0.306,0.109-0.172,0.271c-0.029,0-0.053-0.006-0.067-0.021c0,0.103-0.1,0.14-0.151,0.21
			c-0.218,0.301-0.328,0.667-0.463,1.039c-0.069,0.187-0.169,0.365-0.243,0.549c-0.1,0.251-0.122,0.535-0.306,0.734
			c-0.016-0.022-0.012-0.059-0.047-0.066c-0.035,0.021,0.025,0.067-0.04,0.076c-0.035-0.085-0.057-0.181-0.065-0.287
			c-0.049-0.052-0.032,0.051-0.104,0.024c0.015-0.071-0.022-0.1-0.005-0.174c0.03-0.004,0.042,0.026,0.051,0.004
			c-0.119-0.133,0.03-0.417-0.116-0.543c0.002,0.051-0.051,0.08-0.088,0.041c0.007,0.038-0.029,0.112,0.008,0.126
			c0.01-0.03,0.011-0.067,0.056-0.059c0.019,0.084,0.038,0.194-0.033,0.233c0.065,0.36,0.188,0.652,0.189,0.972
			c-0.178-0.44-0.31-1.053-0.339-1.517c0.035,0.044,0.023,0.129,0.073,0.162c0.004-0.071-0.009-0.062,0.01-0.125
			c0.042-0.043,0.076,0.002,0.104-0.04c-0.001-0.103-0.036-0.178-0.085-0.241c-0.015,0.062,0.01,0.167-0.031,0.202
			c-0.056-0.104-0.066-0.243-0.094-0.369c-0.062,0.133,0.103,0.275,0.008,0.378c-0.062,0.02-0.007-0.054-0.048-0.051
			c-0.011,0.027,0.015,0.093-0.023,0.093c-0.036-0.037-0.048-0.089-0.041-0.161c0.038-0.008,0.051,0.047,0.052-0.012
			c-0.025-0.173-0.141-0.428-0.044-0.601c0.041,0.11,0.022,0.269,0.114,0.338c-0.045-0.298-0.072-0.541-0.166-0.813
			c-0.018,0.114,0.074,0.277-0.007,0.346c-0.056-0.093-0.056-0.284-0.094-0.368c-0.012,0.031,0.015,0.104-0.024,0.108
			c-0.052-0.056-0.02-0.133,0.012-0.188c-0.066-0.015-0.022-0.034-0.01-0.11c0.026-0.16-0.043-0.3-0.041-0.397
			c0.135,0.063,0.048,0.307,0.143,0.403c0.021-0.078,0.003-0.205-0.012-0.315c-0.028-0.203-0.078-0.43-0.113-0.59
			c0.029-0.276-0.071-0.573-0.095-0.856c-0.049,0.124,0.081,0.36-0.016,0.471c-0.047-0.198-0.111-0.494,0.061-0.625
			c-0.035-0.163-0.085-0.383-0.063-0.57c-0.003,0.041,0.008,0.099-0.057,0.074c-0.001-0.112,0.081-0.158,0.017-0.25
			c0.004,0.019-0.052,0.05-0.052,0.012c0.085-0.069,0.089-0.296,0.007-0.361c0.015-0.023,0.056-0.019,0.055-0.059
			c-0.152-1.848,0.108-3.762,0.416-5.571c0.066-0.128,0.121-0.348,0.119-0.495c0.072-0.105,0.113-0.25,0.094-0.371
			c0.132-0.179,0.13-0.38,0.193-0.584c0.155-0.5,0.361-1.095,0.533-1.552c0.042-0.112,0.129-0.203,0.139-0.29
			c0-0.001-0.032-0.061-0.03-0.064c0.019-0.044,0.086-0.087,0.112-0.134c0.032-0.061,0.058-0.126,0.081-0.184
			c0.217-0.528,0.452-1.048,0.702-1.524c0.119-0.226,0.314-0.522,0.456-0.676c0.101-0.353,0.368-0.53,0.501-0.846
			c0.205-0.197,0.353-0.457,0.542-0.67c0.109-0.349,0.418-0.487,0.518-0.846c0.048,0.017,0.046-0.018,0.086-0.009
			c0.182-0.339,0.461-0.576,0.643-0.915c0.037-0.012,0.078-0.019,0.105-0.04c0.394-0.552,0.896-0.99,1.332-1.498
			c0.233-0.1,0.336-0.338,0.576-0.432c0.268-0.259,0.586-0.465,0.868-0.711c0.222-0.091,0.355-0.274,0.54-0.403
			c0.221-0.12,0.42-0.261,0.578-0.448c0.171-0.02,0.2-0.191,0.356-0.227c0.003-0.042,0-0.09,0.025-0.108
			c0.023-0.021,0.075-0.011,0.121-0.008c0.001-0.026,0.003-0.052,0.005-0.078c0.151-0.042,0.206-0.189,0.309-0.278
			c0.03-0.025,0.091-0.029,0.124-0.054c0.206-0.167,0.342-0.422,0.551-0.56c0.262-0.174,0.476-0.386,0.656-0.632
			c0.05-0.013,0.073-0.011,0.119,0.008c0.08-0.396,0.082-0.876,0.315-1.11c-0.285-0.197-0.567-0.019-0.833-0.057
			c-0.139-0.02-0.244,0.015-0.395,0.036c-0.39,0.055-0.767,0.147-1.077,0.272c-1.21,0.245-2.247,0.655-3.235,1.132
			c-0.871,0.421-1.6,0.953-2.337,1.476c-0.223,0.134-0.407,0.308-0.596,0.478c-2.038,1.597-3.604,3.689-4.953,6.015
			c-0.202,0.508-0.505,0.909-0.663,1.465c-0.34,0.707-0.627,1.507-0.876,2.314c-0.061,0.198-0.085,0.431-0.144,0.604
			c-0.144,0.425-0.252,0.863-0.346,1.313c-0.056,0.272-0.173,0.635-0.196,0.883c-0.072,0.742-0.174,1.748-0.25,2.404
			c-0.044,0.381,0,0.834-0.011,1.164c-0.003,0.096-0.048,0.193-0.054,0.294c-0.035,0.519,0.062,0.961,0.072,1.436
			c0.002,0.099-0.026,0.202-0.02,0.297c0.014,0.228,0.079,0.447,0.091,0.667c0.013,0.239-0.007,0.473,0.021,0.708
			c0.032,0.292,0.06,0.594,0.18,0.862c0,0.069,0.019,0.123,0.003,0.205c0.028,0.053,0.104,0.117-0.01,0.141
			c-0.055-0.005-0.005-0.094-0.08-0.084c-0.178-0.095-0.361-0.154-0.477-0.269c-0.039-0.002-0.079-0.005-0.119-0.008
			c-0.006-0.054-0.071-0.061-0.095-0.102c-0.257-0.02-0.418-0.129-0.652-0.201c-0.068,0.064-0.191-0.019-0.235-0.064
			c-0.036,0.007-0.057,0.03-0.088,0.041c-0.203-0.062-0.408-0.22-0.668-0.217c-0.049,0-0.089,0.025-0.139,0.021
			c-0.223-0.018-0.493-0.167-0.771-0.195c-0.219-0.021-0.406-0.026-0.612-0.041c-0.209-0.082-0.54-0.119-0.743-0.114
			c0.135,0.031,0.456,0.051,0.346,0.181c0.103-0.028,0.184-0.051,0.272,0.018c-0.003,0.042,0,0.091-0.025,0.109
			c-0.261-0.021-0.485-0.013-0.584-0.182c0.028,0.068-0.007,0.158-0.064,0.185c-0.117,0.018-0.166-0.13-0.22-0.031
			c0.052,0.003,0.112-0.001,0.099,0.054c-0.125,0.02-0.301-0.016-0.395,0.036c-0.012-0.138-0.235-0.033-0.29-0.004
			c0.045,0.012,0.109-0.039,0.136,0.009c0.042,0.038-0.057,0.048-0.006,0.095c0.081,0.027,0.197,0.027,0.25,0.08
			c-0.069,0.027-0.209-0.003-0.237-0.017c0.032,0.078,0.227,0.025,0.249,0.111c-0.055,0.021-0.143,0.006-0.174,0.051
			c0.032,0.015,0.057,0.059,0.029,0.081c-0.085-0.017-0.121,0.018-0.206,0.001c0.026,0.195-0.284,0.035-0.365,0.116
			c-0.015,0.057,0.079,0.024,0.08,0.069c-0.088,0.098-0.091,0.183-0.189,0.271c0.021,0.023,0.091-0.04,0.101,0.037
			c-0.188,0.015-0.349-0.036-0.465,0.063c0.019,0.063,0.132,0.052,0.164,0.105c-0.017,0.044,0.021,0.042,0.011,0.08
			c-0.118,0.025-0.294,0.018-0.399,0.098c0.022,0.057,0.148,0.029,0.128,0.119c-0.04,0.018-0.067,0.052-0.091,0.088
			c-0.24,0.004-0.366,0.128-0.622,0.115c0.1,0.134,0.268-0.047,0.392,0.011c-0.087,0.205-0.396,0.088-0.604,0.1
			c0.099,0.084,0.322,0.067,0.38,0.183c-0.214,0.046-0.384-0.128-0.577-0.055c0.578,0.224,1.113,0.479,1.694,0.699
			c0.123,0.083,0.239,0.172,0.448,0.187c0.015,0.087,0.14,0.086,0.178,0.154c0.061,0.003,0.084-0.034,0.138-0.038
			c0.006,0.059,0.027,0.107,0.076,0.131c0.031-0.017,0.049-0.049,0.106-0.04c-0.017,0.018-0.026,0.041-0.022,0.077
			c0.11,0.059,0.243,0.1,0.329,0.179c0.041-0.002,0.015-0.073,0.072-0.058c0.161,0.074,0.312,0.155,0.48,0.223
			c0,0.039-0.03,0.045-0.04,0.075c0.145,0.146,0.444,0.166,0.594,0.308c0.409,0.106,0.6,0.385,0.99,0.508
			c-0.018,0.049,0.01,0.06,0.028,0.081c0.02,0.022,0.072,0.021,0.117,0.023c0.062,0.063,0.175,0.086,0.229,0.157
			c0.034,0.002,0.067,0.005,0.102,0.007c0.525,0.288,0.939,0.666,1.435,0.978c0.158,0.14,0.294,0.297,0.521,0.382
			c0.023,0.06,0.075,0.099,0.091,0.164c0.068,0.014,0.096,0.061,0.184,0.06c0.008,0.067,0.062,0.097,0.093,0.147
			c0.072-0.009,0.078,0.036,0.133,0.041c0.7,0.715,1.405,1.427,2.017,2.213c0.014,0.038,0.024,0.079,0.025,0.128
			c0.059,0.026,0.103,0.064,0.092,0.147c0.185,0.12,0.255,0.371,0.268,0.585c0.088-0.028,0.184,0.084,0.14,0.198
			c0.033,0.056,0.094-0.027,0.102,0.007c0,0.05-0.049,0.049-0.041,0.107c0.05,0.046,0.101,0.035,0.149,0.058
			c0.008,0.082,0,0.096,0.022,0.174c0.042,0.036,0.077-0.042,0.139-0.038c0.192,0.334,0.401,0.656,0.652,0.941
			C74.013,372.323,73.779,372.247,73.917,372.182z M78.49,365.716c0.061-0.383,0.297-0.728,0.464-1.053
			c0.005,0.133-0.124,0.272-0.165,0.413c-0.03,0.054,0.057,0.014,0.048,0.051c0.005,0.05-0.029,0.059-0.041,0.092
			c-0.037,0.005-0.03-0.025-0.031-0.05C78.637,365.312,78.61,365.563,78.49,365.716z M80.441,361.65
			c-0.007,0.055-0.065,0.055-0.075,0.105c-0.045-0.009-0.059-0.042-0.045-0.098C80.344,361.639,80.395,361.647,80.441,361.65z
			 M80.188,362.844c0,0.057-0.03,0.081-0.09,0.073C80.096,362.859,80.145,362.854,80.188,362.844z M77.784,372.792
			c-0.022-0.025-0.059-0.072-0.027-0.097C77.792,372.71,77.818,372.765,77.784,372.792z M73.686,371.804
			c-0.002,0.037-0.005,0.074-0.007,0.11c-0.051-0.016-0.076-0.104-0.06-0.129C73.634,371.797,73.657,371.803,73.686,371.804z
			 M74.035,363.21c0.051,0.015,0.036-0.042,0.088-0.025c-0.014,0.06,0.024,0.078,0.007,0.142c-0.034,0.045-0.063-0.062-0.103-0.006
			c-0.073-0.125-0.064-0.224-0.093-0.384C74.046,362.964,73.957,363.154,74.035,363.21z M73.871,360.62
			c-0.06-0.018-0.096-0.22-0.002-0.22C73.882,360.463,73.88,360.538,73.871,360.62z M73.8,361.401c0,0.039-0.003,0.075-0.023,0.092
			C73.732,361.496,73.723,361.366,73.8,361.401z M66.079,361.486c-0.011,0.061-0.081,0.071-0.139,0.037
			C65.934,361.455,66.022,361.487,66.079,361.486z"/>
	</g>
	<g>
		<path fill="#0BAEDD" d="M82.455,417.296c0,0-4.481,1.65-7.186,0.448c-2.94-1.307-4.964-1.963-7.554-0.011l-0.001,3.552
			c-0.287,0.322-0.656,0.521-1.243,0.781c-0.205,0.088-0.396,0.133-0.557,0.133c-0.301,0-0.373-0.151-0.369-0.429v-14.858
			c0.001-0.42,0.484-0.979,1.07-1.239c0.4-0.177,0.736-0.161,0.913-0.004c2.834-1.961,4.858-1.305,7.802,0.005
			c2.701,1.199,7.125-0.451,7.125-0.451L82.455,417.296L82.455,417.296z"/>
	</g>
	<g>
		<path fill="#A0CF6E" d="M77.422,963.519h-8.095v1.827H66.15v16.048h13.894v-3.084h1.806v-10.363L77.422,963.519z M78.601,979.602
			h-10.66v-12.848h1.386v11.555h9.274V979.602z M80.191,976.651h-9.066v-11.474h5.64l0.59,0.416v2.421h2.42l0.416,0.589
			L80.191,976.651z"/>
		<rect x="73.177" y="970.162" fill="#A0CF6E" width="5.282" height="1.003"/>
		<rect x="73.177" y="967.53" fill="#A0CF6E" width="3.018" height="1.003"/>
		<rect x="73.177" y="972.912" fill="#A0CF6E" width="5.282" height="1.003"/>
	</g>
	<g>
		<path fill="#FFFFFF" d="M77.422,936.9h-8.095v1.827H66.15v16.048h13.894v-3.084h1.806v-10.363L77.422,936.9z M78.601,952.983
			h-10.66v-12.848h1.386v11.555h9.274V952.983z M80.191,950.032h-9.066v-11.474h5.64l0.59,0.416v2.421h2.42l0.416,0.589
			L80.191,950.032z"/>
		<rect x="73.177" y="943.543" fill="#FFFFFF" width="5.282" height="1.003"/>
		<rect x="73.177" y="940.911" fill="#FFFFFF" width="3.018" height="1.003"/>
		<rect x="73.177" y="946.293" fill="#FFFFFF" width="5.282" height="1.003"/>
	</g>
	<g>
		<path fill="#0BAEDD" d="M74.886,1017.417c0.636-0.053,1.26,0.162,1.699,0.601c0.439,0.44,0.66,1.061,0.602,1.701
			c-0.063,0.71,0.461,1.338,1.173,1.401c0.039,0.003,0.078,0.005,0.117,0.005c0.661,0,1.224-0.506,1.285-1.178
			c0.124-1.405-0.367-2.773-1.35-3.756c-0.983-0.982-2.358-1.474-3.757-1.348c-0.711,0.064-1.236,0.691-1.172,1.403
			C73.548,1016.956,74.184,1017.473,74.886,1017.417z"/>
		<path fill="#0BAEDD" d="M81.532,1013.07c-1.706-1.707-3.978-2.656-6.395-2.672c-0.002,0-0.006,0-0.006,0
			c-0.712,0-1.29,0.573-1.294,1.284c-0.005,0.713,0.569,1.295,1.284,1.301c1.731,0.011,3.361,0.691,4.583,1.915
			c1.224,1.223,1.904,2.851,1.917,4.585c0.004,0.71,0.582,1.283,1.292,1.283c0,0,0.005,0,0.009,0
			c0.713-0.005,1.289-0.588,1.284-1.301C84.187,1017.047,83.238,1014.776,81.532,1013.07z"/>
		<path fill="#0BAEDD" d="M82.79,1026.517c-1.399-0.916-2.754-1.908-4.054-2.955c-0.427-0.347-0.98-0.333-1.405,0.012
			c-0.5,0.406-0.792,1.073-1.281,1.589c-0.392,0.416-1.873,0.454-4.498-2.115c-2.569-2.625-2.531-4.106-2.114-4.498
			c0.515-0.488,1.182-0.781,1.589-1.281c0.345-0.424,0.358-0.977,0.01-1.405c-1.045-1.299-2.038-2.654-2.954-4.054
			c-0.305-0.461-0.846-0.696-1.381-0.539c-0.521,0.154-1.806,0.968-2.235,1.43c-1.507,1.632-0.759,6.545,5.064,12.368
			c5.82,5.821,10.734,6.569,12.366,5.061c0.462-0.428,1.277-1.713,1.428-2.235C83.486,1027.363,83.251,1026.822,82.79,1026.517z"/>
	</g>
	<g>
		<path fill="#FACB47" d="M83.001,1059.301v16.142l-6.726-2.69l-4.55,2.69l-6.726-2.69v-16.142l6.311,2.69l5.381-2.69
			L83.001,1059.301z M69.965,1063.177c-0.664,0.041-1.137,0.679-1.135,1.292v3.528v3.403h4.572v-3.197
			c0.012-0.449,0.318-0.591,0.756-0.583h1.017v2.41l5.578-4.821l-5.578-4.443v2.411L69.965,1063.177L69.965,1063.177z"/>
	</g>
	<g>
		<path fill="#A0CF6E" d="M84.378,1104.518H68.419v4.066h-4.797V1122H80.21v-4.516h4.167L84.378,1104.518L84.378,1104.518z
			 M77.527,1119.317H66.306v-8.156l2.114-0.002v6.325h9.107V1119.317z M81.895,1115.001h-9.151l3.68-3.11l1.217,1.439l0.852-4.839
			l-4.911,0.035l1.218,1.441l-3.897,3.295V1107h10.993L81.895,1115.001L81.895,1115.001z"/>
	</g>
	<g>
		<path fill="#FACB47" d="M80.75,1156.717h-4.5v-1.124h4.5V1156.717z M80.75,1153.342h-13.5c-1.237,0-2.25,1.014-2.25,2.251v8.998
			c0,1.237,1.013,2.251,2.25,2.251h13.5c1.237,0,2.25-1.014,2.25-2.251v-8.998C83,1154.355,81.987,1153.342,80.75,1153.342z
			 M68.375,1155.593c0.618,0,1.125,0.505,1.125,1.124s-0.507,1.124-1.125,1.124s-1.125-0.505-1.125-1.124
			S67.757,1155.593,68.375,1155.593z M81.875,1164.591h-15.75v-3.375h15.75V1164.591z"/>
	</g>
	<g>
		<path fill="#A0CF6E" d="M71.655,1206.468h4.838c0.384,0,0.697-0.312,0.697-0.695c0-0.387-0.313-0.698-0.697-0.698h-4.838
			c-0.384,0-0.695,0.312-0.695,0.698C70.959,1206.156,71.271,1206.468,71.655,1206.468z M71.655,1208.831h4.838
			c0.384,0,0.697-0.312,0.697-0.696c0-0.386-0.313-0.696-0.697-0.696h-4.838c-0.384,0-0.695,0.311-0.695,0.696
			S71.271,1208.831,71.655,1208.831z M67.384,1195.21L67.384,1195.21h-0.908c-0.84,0-1.525,0.917-1.525,1.77v5.731
			c0,0.854,0.685,1.551,1.525,1.551h0.11l0.001-3.464c0-0.405,0.064-0.872,0.402-1.254c0.342-0.384,0.875-0.558,1.535-0.553h10.94
			c0.637-0.005,1.166,0.174,1.509,0.546c0.344,0.371,0.431,0.84,0.431,1.261l0.002,3.464h0.118c0.838,0,1.524-0.697,1.524-1.551
			v-5.731c0-0.853-0.687-1.77-1.524-1.77h-0.913l0,0 M79.021,1195.21L79.021,1195.21H68.977l0,0 M79.465,1200.054l-10.94-0.002
			c-0.958,0.098-0.774,0.159-0.875,0.746v3.464h0.761v5.321c0.013,0.975,0.84,1.661,1.766,1.663h7.179h0.649
			c0.923-0.002,1.751-0.688,1.763-1.663v-5.321h0.575v-3.464C80.256,1200.249,80.357,1200.137,79.465,1200.054z M78.377,1209.583
			c0,0.087-0.118,0.269-0.371,0.269h-0.649h-7.179c-0.253,0-0.374-0.182-0.374-0.269v-5.321h8.573L78.377,1209.583z"/>
	</g>
	<g>
		<path fill="#FFFFFF" d="M82.162,187.684l-3.197-3.197c0.597-1.057,0.941-2.272,0.941-3.57c0-4.014-3.266-7.28-7.28-7.28
			c-4.015,0-7.28,3.267-7.28,7.28c0,4.015,3.266,7.28,7.28,7.28c1.502,0,2.898-0.458,4.058-1.24l3.102,3.103
			c0.328,0.329,0.758,0.492,1.188,0.492c0.429,0,0.859-0.163,1.188-0.492C82.818,189.403,82.818,188.34,82.162,187.684z
			 M67.585,180.916c0-2.779,2.262-5.04,5.041-5.04c2.78,0,5.04,2.261,5.04,5.04s-2.26,5.039-5.04,5.039
			C69.847,185.955,67.585,183.695,67.585,180.916z"/>
	</g>
	<g>
		<path fill="#FFFFFF" d="M73.976,1300.179c0.682,0,1.31-0.51,1.43-1.16c0.062-0.332-0.021-0.665-0.227-0.913
			c-0.213-0.257-0.541-0.404-0.899-0.404c-0.68,0-1.309,0.517-1.43,1.174c-0.062,0.333,0.016,0.653,0.221,0.901
			C73.284,1300.032,73.613,1300.179,73.976,1300.179z"/>
		<path fill="#FFFFFF" d="M74.358,1304.061c0.19-0.771,0.615-2.529,0.674-2.771l0.117-0.482H72.5l-0.314,1.288h0.466l-0.533,2.188
			c-0.012,0.046-0.1,0.463,0.181,0.822c0.225,0.287,0.598,0.434,1.109,0.438h0.003c1.147,0,2.053-0.774,2.091-0.808l0.095-0.081
			l0.305-1.259l-0.743,0.354C74.947,1303.852,74.615,1303.987,74.358,1304.061z"/>
		<path fill="#FFFFFF" d="M74,1293c-4.618,0-8.375,3.757-8.375,8.375s3.757,8.375,8.375,8.375s8.375-3.757,8.375-8.375
			S78.618,1293,74,1293z M74,1307.143c-3.181,0-5.768-2.587-5.768-5.768s2.587-5.768,5.768-5.768s5.768,2.587,5.768,5.768
			S77.181,1307.143,74,1307.143z"/>
	</g>
	<g>
		<path fill="#FFFFFF" d="M16.016,1351.687c-0.403-0.377-0.942-0.609-1.536-0.609c-1.247,0-2.258,1.012-2.258,2.259
			c0,1.246,1.011,2.257,2.258,2.257c1.246,0,2.257-1.011,2.257-2.257c0-0.178-0.022-0.349-0.061-0.514l2.352-2.527L16.016,1351.687z
			"/>
		<path fill="#FFFFFF" d="M17.519,1344.655l-0.804,2.742c1.044,0.44,1.959,1.127,2.672,1.987l2.106-1.876
			C20.44,1346.249,19.077,1345.258,17.519,1344.655z"/>
		<path fill="#FFFFFF" d="M6.772,1347.205l2.121,1.863c0.694-0.742,1.549-1.332,2.509-1.717l-0.82-2.735
			C9.11,1345.167,7.807,1346.062,6.772,1347.205z"/>
		<path fill="#FFFFFF" d="M15.907,1347.116l0.657-2.775C15.747,1344.12,14.887,1344,14,1344c-0.85,0-1.673,0.108-2.458,0.313
			l0.673,2.768c0.57-0.149,1.168-0.23,1.785-0.23C14.661,1346.851,15.3,1346.944,15.907,1347.116z"/>
		<path fill="#FFFFFF" d="M22.093,1348.346l-2.206,1.784c0.699,1.089,1.106,1.965,1.106,3.417h2.761
			C23.754,1351.471,23.142,1349.902,22.093,1348.346z"/>
		<path fill="#FFFFFF" d="M4.245,1353.547h2.762c0-1.66,0.499-2.628,1.343-3.783l-2.21-1.727
			C4.949,1349.653,4.245,1351.264,4.245,1353.547z"/>
	</g>
	<g>
		<polygon fill="#FFFFFF" points="76.258,1393.418 72.429,1393.513 75.543,1395.711 74.533,1399.354 77.618,1397.121 
			80.821,1399.206 79.612,1395.616 82.603,1393.261 78.775,1393.355 77.417,1389.734 		"/>
		<polygon fill="#FFFFFF" points="68.29,1397.547 65.397,1397.619 67.75,1399.279 66.987,1402.032 69.318,1400.345 71.737,1401.921 
			70.825,1399.208 73.084,1397.429 70.191,1397.499 69.165,1394.764 		"/>
		<polygon fill="#FFFFFF" points="68.527,1390.152 66.81,1391.877 69.241,1391.573 70.374,1393.716 70.834,1391.344 
			73.251,1390.943 71.103,1389.779 71.464,1387.389 69.677,1389.041 67.484,1387.966 		"/>
	</g>
	<g>
		<path fill="#FFFFFF" d="M75.013,1444.301l0.503-0.141l0.325-0.409l0.435-0.29l0.184-0.49l0.324-0.41l0.021-0.522l0.183-0.489
			l-0.141-0.504l0.022-0.522l-0.29-0.436l-0.141-0.503l-0.41-0.324l-0.29-0.438l-0.49-0.182l-0.409-0.323l-0.522-0.022l-0.491-0.183
			l-0.503,0.141l-0.521-0.021l-0.436,0.289l-0.505,0.141l-0.325,0.411l-0.434,0.288l-0.183,0.49l-0.324,0.41l-0.022,0.521
			l-0.182,0.489l0.141,0.504l-0.022,0.523l0.29,0.436l0.14,0.502l0.411,0.326l0.29,0.436l0.49,0.182l0.41,0.325l0.522,0.021
			l0.489,0.183l0.504-0.141l0.522,0.021L75.013,1444.301z M74.182,1443.176l-0.289-0.012l-0.28,0.077l-0.272-0.101l-0.29-0.013
			l-0.228-0.18l-0.272-0.101l-0.161-0.241l-0.227-0.182l-0.078-0.28l-0.161-0.241l0.012-0.289l-0.078-0.28l0.102-0.271l0.012-0.29
			l0.18-0.228l0.102-0.272l0.242-0.161l0.18-0.227l0.279-0.079l0.242-0.16l0.29,0.013l0.28-0.079l0.271,0.102l0.29,0.013l0.229,0.18
			l0.271,0.102l0.161,0.241l0.227,0.181l0.079,0.28l0.16,0.241l-0.012,0.29l0.078,0.279l-0.101,0.271l-0.012,0.292l-0.179,0.227
			l-0.102,0.271l-0.242,0.161l-0.181,0.227l-0.28,0.078L74.182,1443.176z"/>
		<path fill="#FFFFFF" d="M77.963,1445.313l0.403-0.268l0.329-0.887l0.588-0.741l0.039-0.944l0.33-0.888l-0.255-0.909l0.04-0.944
			l-0.523-0.789l-0.255-0.911l-0.741-0.587l-0.524-0.788l-0.885-0.329l-0.741-0.587l-0.946-0.041l-0.886-0.329l-0.911,0.255
			l-0.945-0.04l-0.788,0.523l-0.911,0.255l-0.586,0.741l-0.788,0.522l-0.33,0.888l-0.588,0.741l-0.039,0.945l-0.329,0.886
			l0.255,0.911l-0.041,0.944l0.524,0.788l0.254,0.911l0.741,0.587l0.09,0.136l-2.35,3.411l2.938-0.783l0.835,2.271l2.127-3.087
			l0.342,0.127l0.911-0.255h0.016l2.912,3.029l0.429-2.294l3.101,0.485L77.963,1445.313z M69.188,1447.622l-0.682,0.118l1.332-1.931
			l0.139,0.209l0.252,0.093L69.188,1447.622z M71.338,1448.857l-0.262-0.492l0.974-1.412l0.5,0.021l0.068,0.025L71.338,1448.857z
			 M72.828,1445.587l-0.712-0.029l-0.56-0.443l-0.668-0.247l-0.395-0.595l-0.56-0.442l-0.191-0.688l-0.395-0.593l0.03-0.712
			l-0.192-0.688l0.248-0.667l0.03-0.714l0.443-0.558l0.249-0.669l0.595-0.395l0.442-0.56l0.688-0.191l0.593-0.396l0.713,0.03
			l0.687-0.191l0.667,0.248l0.714,0.03l0.559,0.442l0.668,0.249l0.395,0.595l0.559,0.442l0.193,0.687l0.394,0.594l-0.03,0.714
			l0.192,0.686l-0.249,0.669l-0.029,0.713l-0.443,0.559l-0.249,0.668l-0.593,0.395l-0.444,0.56l-0.687,0.192l-0.594,0.394
			l-0.713-0.03l-0.687,0.193L72.828,1445.587z M76.647,1448.739l-1.598-1.662l0.242,0.011l0.26-0.172l1.27,1.32L76.647,1448.739z
			 M77.267,1445.96l0.297-0.374l1.729,1.797l-0.708-0.052L77.267,1445.96z"/>
	</g>
	<g>
		<path fill="#FFFFFF" d="M76.957,1491.016c0.326-0.092,0.74-0.216,1.264-0.384c4.237-1.358,3.282-5.773,3.282-5.773h-1.8h-1.066
			v-1.515h-9.275v1.515h-1.066h-1.799c0,0-0.96,4.435,3.284,5.773c0.519,0.164,0.931,0.286,1.256,0.376
			c0.644,0.781,1.434,1.337,2.301,1.528v3.465c-1.474,0.197-2.697,0.539-2.697,1.54h6.72c0-1.001-0.954-1.343-2.698-1.54v-3.465
			C75.527,1492.345,76.316,1491.794,76.957,1491.016 M78.636,1486.197v-0.677h1.066h1.162c-0.009,1.316,0.074,3.546-2.847,4.48
			c-0.167,0.054-0.315,0.1-0.456,0.144C78.232,1488.999,78.637,1487.587,78.636,1486.197L78.636,1486.197z M69.979,1490
			c-2.924-0.925-2.837-3.163-2.845-4.479h1.161h1.066v0.677c0,1.39,0.404,2.799,1.074,3.944
			C70.294,1490.099,70.145,1490.052,69.979,1490 M74,1489.207l-2.047,1.425l0.722-2.387l-1.987-1.51l2.493-0.049l0.819-2.355
			l0.819,2.355l2.494,0.049l-1.988,1.51l0.722,2.387L74,1489.207z"/>
	</g>
	<g>
		<polygon fill="#FFFFFF" points="76.719,1535.526 73.256,1535.612 76.072,1537.6 75.159,1540.894 77.949,1538.876 80.845,1540.761 
			79.752,1537.514 82.455,1535.385 78.993,1535.471 77.767,1532.195 		"/>
		<path fill="#FFFFFF" d="M72.196,1536.439c0,0-1.677,1.21-3.435,2.553c-1.7,1.298-3.155,2.613-3.155,2.613s1.945-0.254,4.128-0.596
			c0.764-0.119,4.638-0.317,4.638-0.317l0.405-2.887L72.196,1536.439z"/>
		<polygon fill="#FFFFFF" points="69.161,1533.14 67.61,1534.698 69.809,1534.424 70.833,1536.361 71.249,1534.215 73.434,1533.854 
			71.492,1532.801 71.818,1530.64 70.202,1532.135 68.219,1531.162 		"/>
		<path fill="#FFFFFF" d="M67.393,1535.4c0,0-0.536,1.248-0.948,2.589c-0.398,1.299-0.9,3.145-0.9,3.145s1.381-1.361,2.391-2.338
			c0.354-0.341,2.19-1.974,2.19-1.974l-0.874-1.652L67.393,1535.4z"/>
	</g>
	<g>
		<path fill="#0BAEDD" d="M70.432,1584.042l0.62-1.139l1.134,1.133l1.54-1.541l-1.133-1.133l1.139-0.62
			c0.428-0.214,0.444-0.642-0.099-0.728c-0.543-0.087-4.799-0.87-4.799-0.87s0.784,4.255,0.871,4.798
			C69.79,1584.486,70.217,1584.471,70.432,1584.042z"/>
		<path fill="#0BAEDD" d="M74.189,1588.428c0.543,0.088,4.798,0.871,4.798,0.871s-0.783-4.256-0.87-4.799
			c-0.086-0.543-0.514-0.527-0.728-0.1l-0.621,1.14l-1.133-1.133l-1.541,1.54l1.133,1.133l-1.138,0.62
			C73.661,1587.915,73.646,1588.343,74.189,1588.428z"/>
		<path fill="#0BAEDD" d="M65.719,1576v16.208H82.28V1576H65.719z M80.519,1590.446H67.482v-12.685h13.037L80.519,1590.446z"/>
	</g>
	<g>
		<path fill="#F15A50" d="M70.432,1631.18l0.62-1.139l1.134,1.133l1.54-1.541l-1.133-1.133l1.139-0.62
			c0.428-0.214,0.444-0.642-0.099-0.728c-0.543-0.087-4.799-0.87-4.799-0.87s0.784,4.255,0.871,4.798
			C69.79,1631.624,70.217,1631.609,70.432,1631.18z"/>
		<path fill="#F15A50" d="M74.189,1635.566c0.543,0.088,4.798,0.871,4.798,0.871s-0.783-4.256-0.87-4.799
			c-0.086-0.543-0.514-0.527-0.728-0.1l-0.621,1.14l-1.133-1.133l-1.541,1.54l1.133,1.133l-1.138,0.62
			C73.661,1635.053,73.646,1635.481,74.189,1635.566z"/>
		<path fill="#F15A50" d="M65.719,1623.138v16.208H82.28v-16.208H65.719z M80.519,1637.584H67.482v-12.685h13.037L80.519,1637.584z"
			/>
	</g>
	<g>
		<path fill="#FFFFFF" d="M74,620.166c-7.237,0-13.105,5.867-13.105,13.104c0,7.239,5.868,13.104,13.105,13.104
			s13.104-5.865,13.104-13.104C87.106,626.033,81.239,620.166,74,620.166z M74,644.46c-6.169,0-11.189-5.021-11.189-11.188
			c0-6.171,5.02-11.19,11.189-11.19s11.189,5.02,11.189,11.19C85.19,639.439,80.17,644.46,74,644.46z"/>
		<circle fill="#FFFFFF" cx="72.664" cy="630.03" r="2.319"/>
		<path fill="#FFFFFF" d="M69.832,637.344h6.023c0,0-0.651-4.527-1.629-4.527c-1.159,0-0.61,0.025-2.929,0.008
			C70.321,632.816,69.832,637.344,69.832,637.344z"/>
		<circle fill="#FFFFFF" cx="77.663" cy="631.688" r="2.69"/>
		<path fill="#FFFFFF" d="M74.379,640.242h6.985c0,0-0.755-5.25-1.887-5.25c-1.345,0-0.708,0.029-3.398,0.006
			C74.946,634.992,74.379,640.242,74.379,640.242z"/>
		<circle fill="#FFFFFF" cx="68.491" cy="628.432" r="1.86"/>
		<path fill="#FFFFFF" d="M66.222,634.227h4.829c0,0-0.522-3.63-1.305-3.63c-0.93,0-0.49,0.021-2.349,0.006
			C66.612,630.597,66.222,634.227,66.222,634.227z"/>
	</g>
	<g>
		<path fill="#FFFFFF" d="M81.22,752.152c-0.897,0-1.724,0.293-2.403,0.776l-7.875-4.1l7.785-4.053
			c0.696,0.525,1.553,0.849,2.492,0.849c2.295,0,4.154-1.859,4.154-4.153s-1.859-4.154-4.154-4.154s-4.153,1.86-4.153,4.154
			c0,0.05,0.014,0.098,0.014,0.147l-7.807,4.064c-0.696-0.526-1.552-0.85-2.492-0.85c-2.295,0-4.154,1.86-4.154,4.154
			s1.859,4.154,4.154,4.154c1.048,0,1.996-0.402,2.728-1.044l7.583,3.947c-0.006,0.088-0.026,0.172-0.026,0.261
			c0,2.294,1.858,4.154,4.153,4.154s4.154-1.86,4.154-4.154S83.515,752.152,81.22,752.152z"/>
	</g>
	<g>
		<path fill="#FFFFFF" d="M74,850.741c-3.958,0-9.896,1.799-9.896,8.996c0,3.6,7.918,16.194,9.896,19.793
			c1.978-3.599,9.896-16.193,9.896-19.793C83.896,852.54,77.958,850.741,74,850.741z M74,862.886c-1.74,0-3.148-1.408-3.148-3.148
			c0-1.739,1.409-3.148,3.148-3.148s3.148,1.409,3.148,3.148C77.148,861.478,75.739,862.886,74,862.886z"/>
	</g>
	<g display="none">
		<g display="inline">
			<rect x="29.753" y="471.578" fill="#F15A50" width="16.625" height="16.625"/>
			<g>
				<path fill="#FFFFFF" d="M37.809,474.427c0.14-0.405,0.371-0.405,0.513,0l1.084,3.121c0.142,0.405,0.607,0.744,1.037,0.753
					l3.304,0.067c0.429,0.009,0.5,0.229,0.159,0.488l-2.634,1.996c-0.342,0.26-0.519,0.808-0.396,1.217l0.958,3.165
					c0.124,0.41-0.062,0.546-0.415,0.301l-2.714-1.888c-0.352-0.246-0.928-0.246-1.28,0l-2.712,1.888
					c-0.353,0.245-0.539,0.109-0.415-0.301l0.956-3.165c0.125-0.409-0.054-0.957-0.396-1.217l-2.633-1.996
					c-0.342-0.26-0.271-0.479,0.158-0.488l3.305-0.067c0.429-0.009,0.896-0.348,1.036-0.753L37.809,474.427z"/>
			</g>
		</g>
		<g display="inline">
			<rect x="47.744" y="471.578" fill="#F15A50" width="16.625" height="16.625"/>
			<g>
				<path fill="#FFFFFF" d="M55.8,474.427c0.14-0.405,0.371-0.405,0.513,0l1.084,3.121c0.142,0.405,0.607,0.744,1.037,0.753
					l3.304,0.067c0.429,0.009,0.5,0.229,0.159,0.488l-2.634,1.996c-0.342,0.26-0.519,0.808-0.396,1.217l0.958,3.165
					c0.124,0.41-0.062,0.546-0.415,0.301l-2.714-1.888c-0.352-0.246-0.928-0.246-1.28,0l-2.712,1.888
					c-0.353,0.245-0.539,0.109-0.415-0.301l0.956-3.165c0.125-0.409-0.054-0.957-0.396-1.217l-2.633-1.996
					c-0.342-0.26-0.271-0.479,0.158-0.488l3.305-0.067c0.429-0.009,0.896-0.348,1.036-0.753L55.8,474.427z"/>
			</g>
		</g>
		<g display="inline">
			<rect x="65.734" y="471.578" fill="#F15A50" width="16.625" height="16.625"/>
			<g>
				<path fill="#FFFFFF" d="M73.791,474.427c0.14-0.405,0.371-0.405,0.513,0l1.084,3.121c0.142,0.405,0.607,0.744,1.037,0.753
					l3.304,0.067c0.429,0.009,0.5,0.229,0.159,0.488l-2.634,1.996c-0.342,0.26-0.519,0.808-0.396,1.217l0.958,3.165
					c0.124,0.41-0.062,0.546-0.415,0.301l-2.714-1.888c-0.352-0.246-0.928-0.246-1.28,0l-2.712,1.888
					c-0.353,0.245-0.539,0.109-0.415-0.301l0.956-3.165c0.125-0.409-0.054-0.957-0.396-1.217l-2.633-1.996
					c-0.342-0.26-0.271-0.479,0.158-0.488l3.305-0.067c0.429-0.009,0.896-0.348,1.036-0.753L73.791,474.427z"/>
			</g>
		</g>
		<g display="inline">
			<rect x="83.725" y="471.578" fill="#F15A50" width="16.625" height="16.625"/>
			<g>
				<path fill="#FFFFFF" d="M91.781,474.427c0.14-0.405,0.371-0.405,0.513,0l1.084,3.121c0.142,0.405,0.607,0.744,1.037,0.753
					l3.304,0.067c0.429,0.009,0.5,0.229,0.159,0.488l-2.634,1.996c-0.342,0.26-0.519,0.808-0.396,1.217l0.958,3.165
					c0.124,0.41-0.062,0.546-0.415,0.301l-2.714-1.888c-0.352-0.246-0.928-0.246-1.28,0l-2.712,1.888
					c-0.353,0.245-0.539,0.109-0.415-0.301l0.956-3.165c0.125-0.409-0.054-0.957-0.396-1.217l-2.633-1.996
					c-0.342-0.26-0.271-0.479,0.158-0.488l3.305-0.067c0.429-0.009,0.896-0.348,1.036-0.753L91.781,474.427z"/>
			</g>
		</g>
		<g display="inline">
			<rect x="101.716" y="471.578" fill="#F15A50" width="16.625" height="16.625"/>
			<g>
				<path fill="#FFFFFF" d="M109.772,474.427c0.14-0.405,0.371-0.405,0.513,0l1.084,3.121c0.142,0.405,0.607,0.744,1.037,0.753
					l3.304,0.067c0.429,0.009,0.5,0.229,0.159,0.488l-2.634,1.996c-0.342,0.26-0.519,0.808-0.396,1.217l0.958,3.165
					c0.124,0.41-0.062,0.546-0.415,0.301l-2.714-1.888c-0.352-0.246-0.928-0.246-1.28,0l-2.712,1.888
					c-0.353,0.245-0.539,0.109-0.415-0.301l0.956-3.165c0.125-0.409-0.054-0.957-0.396-1.217l-2.633-1.996
					c-0.342-0.26-0.271-0.479,0.158-0.488l3.305-0.067c0.429-0.009,0.896-0.348,1.036-0.753L109.772,474.427z"/>
			</g>
		</g>
	</g>
	<g display="none">
		<g display="inline">
			<rect x="29.753" y="495.953" fill="#FFFFFF" width="16.625" height="16.625"/>
			<g>
				<path fill="#CECECE" d="M37.809,498.802c0.14-0.405,0.371-0.405,0.513,0l1.084,3.121c0.142,0.405,0.607,0.744,1.037,0.753
					l3.304,0.067c0.429,0.009,0.5,0.229,0.159,0.488l-2.634,1.996c-0.342,0.26-0.519,0.808-0.396,1.217l0.958,3.165
					c0.124,0.41-0.062,0.546-0.415,0.301l-2.714-1.888c-0.352-0.246-0.928-0.246-1.28,0l-2.712,1.888
					c-0.353,0.245-0.539,0.109-0.415-0.301l0.956-3.165c0.125-0.409-0.054-0.957-0.396-1.217l-2.633-1.996
					c-0.342-0.26-0.271-0.479,0.158-0.488l3.305-0.067c0.429-0.009,0.896-0.348,1.036-0.753L37.809,498.802z"/>
			</g>
		</g>
		<g display="inline">
			<rect x="47.744" y="495.953" fill="#FFFFFF" width="16.625" height="16.625"/>
			<g>
				<path fill="#CECECE" d="M55.8,498.802c0.14-0.405,0.371-0.405,0.513,0l1.084,3.121c0.142,0.405,0.607,0.744,1.037,0.753
					l3.304,0.067c0.429,0.009,0.5,0.229,0.159,0.488l-2.634,1.996c-0.342,0.26-0.519,0.808-0.396,1.217l0.958,3.165
					c0.124,0.41-0.062,0.546-0.415,0.301l-2.714-1.888c-0.352-0.246-0.928-0.246-1.28,0l-2.712,1.888
					c-0.353,0.245-0.539,0.109-0.415-0.301l0.956-3.165c0.125-0.409-0.054-0.957-0.396-1.217l-2.633-1.996
					c-0.342-0.26-0.271-0.479,0.158-0.488l3.305-0.067c0.429-0.009,0.896-0.348,1.036-0.753L55.8,498.802z"/>
			</g>
		</g>
		<g display="inline">
			<rect x="65.734" y="495.953" fill="#FFFFFF" width="16.625" height="16.625"/>
			<g>
				<path fill="#CECECE" d="M73.791,498.802c0.14-0.405,0.371-0.405,0.513,0l1.084,3.121c0.142,0.405,0.607,0.744,1.037,0.753
					l3.304,0.067c0.429,0.009,0.5,0.229,0.159,0.488l-2.634,1.996c-0.342,0.26-0.519,0.808-0.396,1.217l0.958,3.165
					c0.124,0.41-0.062,0.546-0.415,0.301l-2.714-1.888c-0.352-0.246-0.928-0.246-1.28,0l-2.712,1.888
					c-0.353,0.245-0.539,0.109-0.415-0.301l0.956-3.165c0.125-0.409-0.054-0.957-0.396-1.217l-2.633-1.996
					c-0.342-0.26-0.271-0.479,0.158-0.488l3.305-0.067c0.429-0.009,0.896-0.348,1.036-0.753L73.791,498.802z"/>
			</g>
		</g>
		<g display="inline">
			<rect x="83.725" y="495.953" fill="#FFFFFF" width="16.625" height="16.625"/>
			<g>
				<path fill="#CECECE" d="M91.781,498.802c0.14-0.405,0.371-0.405,0.513,0l1.084,3.121c0.142,0.405,0.607,0.744,1.037,0.753
					l3.304,0.067c0.429,0.009,0.5,0.229,0.159,0.488l-2.634,1.996c-0.342,0.26-0.519,0.808-0.396,1.217l0.958,3.165
					c0.124,0.41-0.062,0.546-0.415,0.301l-2.714-1.888c-0.352-0.246-0.928-0.246-1.28,0l-2.712,1.888
					c-0.353,0.245-0.539,0.109-0.415-0.301l0.956-3.165c0.125-0.409-0.054-0.957-0.396-1.217l-2.633-1.996
					c-0.342-0.26-0.271-0.479,0.158-0.488l3.305-0.067c0.429-0.009,0.896-0.348,1.036-0.753L91.781,498.802z"/>
			</g>
		</g>
		<g display="inline">
			<rect x="101.716" y="495.953" fill="#FFFFFF" width="16.625" height="16.625"/>
			<g>
				<path fill="#CECECE" d="M109.772,498.802c0.14-0.405,0.371-0.405,0.513,0l1.084,3.121c0.142,0.405,0.607,0.744,1.037,0.753
					l3.304,0.067c0.429,0.009,0.5,0.229,0.159,0.488l-2.634,1.996c-0.342,0.26-0.519,0.808-0.396,1.217l0.958,3.165
					c0.124,0.41-0.062,0.546-0.415,0.301l-2.714-1.888c-0.352-0.246-0.928-0.246-1.28,0l-2.712,1.888
					c-0.353,0.245-0.539,0.109-0.415-0.301l0.956-3.165c0.125-0.409-0.054-0.957-0.396-1.217l-2.633-1.996
					c-0.342-0.26-0.271-0.479,0.158-0.488l3.305-0.067c0.429-0.009,0.896-0.348,1.036-0.753L109.772,498.802z"/>
			</g>
		</g>
	</g>
	<g display="none">
		<path display="inline" fill="#CECECE" d="M72.921,581.719c0.14-0.405,0.371-0.405,0.513,0l1.084,3.121
			c0.142,0.405,0.607,0.744,1.037,0.753l3.304,0.067c0.429,0.009,0.5,0.229,0.159,0.488l-2.634,1.996
			c-0.342,0.26-0.519,0.808-0.396,1.217l0.958,3.165c0.124,0.41-0.062,0.546-0.415,0.301l-2.714-1.888
			c-0.352-0.246-0.928-0.246-1.28,0l-2.712,1.888c-0.353,0.245-0.539,0.109-0.415-0.301l0.956-3.165
			c0.125-0.409-0.054-0.957-0.396-1.217l-2.633-1.996c-0.342-0.26-0.271-0.479,0.158-0.488l3.305-0.067
			c0.429-0.009,0.896-0.348,1.036-0.753L72.921,581.719z"/>
	</g>
	<g>
		<g>
			<rect x="59.412" y="469.595" fill="#F15A50" width="16.625" height="16.625"/>
			<g>
				<path fill="#FFFFFF" d="M67.469,472.444c0.14-0.405,0.371-0.405,0.513,0l1.084,3.121c0.142,0.405,0.607,0.744,1.037,0.753
					l3.304,0.067c0.429,0.009,0.5,0.229,0.159,0.488l-2.634,1.996c-0.342,0.26-0.519,0.808-0.396,1.217l0.958,3.165
					c0.124,0.41-0.062,0.546-0.415,0.301l-2.714-1.888c-0.352-0.246-0.928-0.246-1.28,0l-2.712,1.888
					c-0.353,0.245-0.539,0.109-0.415-0.301l0.956-3.165c0.125-0.409-0.054-0.957-0.396-1.217l-2.633-1.996
					c-0.342-0.26-0.271-0.479,0.158-0.488l3.305-0.067c0.429-0.009,0.896-0.348,1.036-0.753L67.469,472.444z"/>
			</g>
		</g>
		<g>
			<rect x="77.403" y="469.595" fill="#F15A50" width="16.625" height="16.625"/>
			<g>
				<path fill="#FFFFFF" d="M85.459,472.444c0.14-0.405,0.371-0.405,0.513,0l1.084,3.121c0.142,0.405,0.607,0.744,1.037,0.753
					l3.304,0.067c0.429,0.009,0.5,0.229,0.159,0.488l-2.634,1.996c-0.342,0.26-0.519,0.808-0.396,1.217l0.958,3.165
					c0.124,0.41-0.062,0.546-0.415,0.301l-2.714-1.888c-0.352-0.246-0.928-0.246-1.28,0l-2.712,1.888
					c-0.353,0.245-0.539,0.109-0.415-0.301l0.956-3.165c0.125-0.409-0.054-0.957-0.396-1.217l-2.633-1.996
					c-0.342-0.26-0.271-0.479,0.158-0.488l3.305-0.067c0.429-0.009,0.896-0.348,1.036-0.753L85.459,472.444z"/>
			</g>
		</g>
		<g>
			<rect x="95.394" y="469.595" fill="#F15A50" width="16.625" height="16.625"/>
			<g>
				<path fill="#FFFFFF" d="M103.45,472.444c0.14-0.405,0.371-0.405,0.513,0l1.084,3.121c0.142,0.405,0.607,0.744,1.037,0.753
					l3.304,0.067c0.429,0.009,0.5,0.229,0.159,0.488l-2.634,1.996c-0.342,0.26-0.519,0.808-0.396,1.217l0.958,3.165
					c0.124,0.41-0.062,0.546-0.415,0.301l-2.714-1.888c-0.352-0.246-0.928-0.246-1.28,0l-2.712,1.888
					c-0.353,0.245-0.539,0.109-0.415-0.301l0.956-3.165c0.125-0.409-0.054-0.957-0.396-1.217l-2.633-1.996
					c-0.342-0.26-0.271-0.479,0.158-0.488l3.305-0.067c0.429-0.009,0.896-0.348,1.036-0.753L103.45,472.444z"/>
			</g>
		</g>
		<g>
			<rect x="113.384" y="469.595" fill="#F15A50" width="16.625" height="16.625"/>
			<g>
				<path fill="#FFFFFF" d="M121.441,472.444c0.14-0.405,0.371-0.405,0.513,0l1.084,3.121c0.142,0.405,0.607,0.744,1.037,0.753
					l3.304,0.067c0.429,0.009,0.5,0.229,0.159,0.488l-2.634,1.996c-0.342,0.26-0.519,0.808-0.396,1.217l0.958,3.165
					c0.124,0.41-0.062,0.546-0.415,0.301l-2.714-1.888c-0.352-0.246-0.928-0.246-1.28,0l-2.712,1.888
					c-0.353,0.245-0.539,0.109-0.415-0.301l0.956-3.165c0.125-0.409-0.054-0.957-0.396-1.217l-2.633-1.996
					c-0.342-0.26-0.271-0.479,0.158-0.488l3.305-0.067c0.429-0.009,0.896-0.348,1.036-0.753L121.441,472.444z"/>
			</g>
		</g>
		<g>
			<rect x="131.375" y="469.595" fill="#F15A50" width="16.625" height="16.625"/>
			<g>
				<path fill="#FFFFFF" d="M139.431,472.444c0.14-0.405,0.371-0.405,0.513,0l1.084,3.121c0.142,0.405,0.607,0.744,1.037,0.753
					l3.304,0.067c0.429,0.009,0.5,0.229,0.159,0.488l-2.634,1.996c-0.342,0.26-0.519,0.808-0.396,1.217l0.958,3.165
					c0.124,0.41-0.062,0.546-0.415,0.301l-2.714-1.888c-0.352-0.246-0.928-0.246-1.28,0l-2.712,1.888
					c-0.353,0.245-0.539,0.109-0.415-0.301l0.956-3.165c0.125-0.409-0.054-0.957-0.396-1.217l-2.633-1.996
					c-0.342-0.26-0.271-0.479,0.158-0.488l3.305-0.067c0.429-0.009,0.896-0.348,1.036-0.753L139.431,472.444z"/>
			</g>
		</g>
	</g>
	<g>
		<g>
			<rect x="59.412" y="492.96" fill="#7C7C7C" width="16.625" height="16.625"/>
			<g>
				<path fill="#FFFFFF" d="M67.469,495.809c0.14-0.405,0.371-0.405,0.513,0l1.084,3.121c0.142,0.405,0.607,0.744,1.037,0.753
					l3.304,0.067c0.429,0.009,0.5,0.229,0.159,0.488l-2.634,1.996c-0.342,0.26-0.519,0.808-0.396,1.217l0.958,3.165
					c0.124,0.41-0.062,0.546-0.415,0.301l-2.714-1.888c-0.352-0.246-0.928-0.246-1.28,0l-2.712,1.888
					c-0.353,0.245-0.539,0.109-0.415-0.301l0.956-3.165c0.125-0.409-0.054-0.957-0.396-1.217l-2.633-1.996
					c-0.342-0.26-0.271-0.479,0.158-0.488l3.305-0.067c0.429-0.009,0.896-0.348,1.036-0.753L67.469,495.809z"/>
			</g>
		</g>
		<g>
			<rect x="77.403" y="492.96" fill="#7C7C7C" width="16.625" height="16.625"/>
			<g>
				<path fill="#FFFFFF" d="M85.459,495.809c0.14-0.405,0.371-0.405,0.513,0l1.084,3.121c0.142,0.405,0.607,0.744,1.037,0.753
					l3.304,0.067c0.429,0.009,0.5,0.229,0.159,0.488l-2.634,1.996c-0.342,0.26-0.519,0.808-0.396,1.217l0.958,3.165
					c0.124,0.41-0.062,0.546-0.415,0.301l-2.714-1.888c-0.352-0.246-0.928-0.246-1.28,0l-2.712,1.888
					c-0.353,0.245-0.539,0.109-0.415-0.301l0.956-3.165c0.125-0.409-0.054-0.957-0.396-1.217l-2.633-1.996
					c-0.342-0.26-0.271-0.479,0.158-0.488l3.305-0.067c0.429-0.009,0.896-0.348,1.036-0.753L85.459,495.809z"/>
			</g>
		</g>
		<g>
			<rect x="95.394" y="492.96" fill="#7C7C7C" width="16.625" height="16.625"/>
			<g>
				<path fill="#FFFFFF" d="M103.45,495.809c0.14-0.405,0.371-0.405,0.513,0l1.084,3.121c0.142,0.405,0.607,0.744,1.037,0.753
					l3.304,0.067c0.429,0.009,0.5,0.229,0.159,0.488l-2.634,1.996c-0.342,0.26-0.519,0.808-0.396,1.217l0.958,3.165
					c0.124,0.41-0.062,0.546-0.415,0.301l-2.714-1.888c-0.352-0.246-0.928-0.246-1.28,0l-2.712,1.888
					c-0.353,0.245-0.539,0.109-0.415-0.301l0.956-3.165c0.125-0.409-0.054-0.957-0.396-1.217l-2.633-1.996
					c-0.342-0.26-0.271-0.479,0.158-0.488l3.305-0.067c0.429-0.009,0.896-0.348,1.036-0.753L103.45,495.809z"/>
			</g>
		</g>
		<g>
			<rect x="113.384" y="492.96" fill="#7C7C7C" width="16.625" height="16.625"/>
			<g>
				<path fill="#FFFFFF" d="M121.441,495.809c0.14-0.405,0.371-0.405,0.513,0l1.084,3.121c0.142,0.405,0.607,0.744,1.037,0.753
					l3.304,0.067c0.429,0.009,0.5,0.229,0.159,0.488l-2.634,1.996c-0.342,0.26-0.519,0.808-0.396,1.217l0.958,3.165
					c0.124,0.41-0.062,0.546-0.415,0.301l-2.714-1.888c-0.352-0.246-0.928-0.246-1.28,0l-2.712,1.888
					c-0.353,0.245-0.539,0.109-0.415-0.301l0.956-3.165c0.125-0.409-0.054-0.957-0.396-1.217l-2.633-1.996
					c-0.342-0.26-0.271-0.479,0.158-0.488l3.305-0.067c0.429-0.009,0.896-0.348,1.036-0.753L121.441,495.809z"/>
			</g>
		</g>
		<g>
			<rect x="131.375" y="492.96" fill="#7C7C7C" width="16.625" height="16.625"/>
			<g>
				<path fill="#FFFFFF" d="M139.431,495.809c0.14-0.405,0.371-0.405,0.513,0l1.084,3.121c0.142,0.405,0.607,0.744,1.037,0.753
					l3.304,0.067c0.429,0.009,0.5,0.229,0.159,0.488l-2.634,1.996c-0.342,0.26-0.519,0.808-0.396,1.217l0.958,3.165
					c0.124,0.41-0.062,0.546-0.415,0.301l-2.714-1.888c-0.352-0.246-0.928-0.246-1.28,0l-2.712,1.888
					c-0.353,0.245-0.539,0.109-0.415-0.301l0.956-3.165c0.125-0.409-0.054-0.957-0.396-1.217l-2.633-1.996
					c-0.342-0.26-0.271-0.479,0.158-0.488l3.305-0.067c0.429-0.009,0.896-0.348,1.036-0.753L139.431,495.809z"/>
			</g>
		</g>
	</g>
	<g>
		<polygon fill="#0BAEDD" points="139.927,551.535 137.236,546.922 142.618,546.922 148,546.922 145.31,551.535 142.618,556.148 		
			"/>
	</g>
	<g>
		<polygon fill="#4B4B4B" points="139.927,574.31 137.236,569.697 142.618,569.697 148,569.697 145.31,574.31 142.618,578.923 		"/>
	</g>
	<g>
		<polygon fill="#FFFFFF" points="2.691,574.31 0,569.697 5.382,569.697 10.764,569.697 8.074,574.31 5.382,578.923 		"/>
	</g>
	<g>
		<path fill="#FFFFFF" d="M73.169,1673.137l9.542,3.512l3.301-8.467l-9.874-3.365l-3.202,1.472l-1.403,3.278L73.169,1673.137z
			 M73.99,1669.377c-0.293-0.637-0.2-1.398,0.504-1.723c0.702-0.322,1.441-0.026,1.73,0.611c0.295,0.638,0.179,1.316-0.524,1.641
			C74.993,1670.228,74.283,1670.013,73.99,1669.377z"/>
		<path fill="#FFFFFF" d="M70.029,1670.11l1.357-3.173l-3.199-0.939L65,1667.644l-1.013,3.817l5.16,8.831l7.581-4.487l-4.881-1.692
			L70.029,1670.11z M69.419,1669.642c-0.179,0.683-0.795,1.077-1.549,0.879c-0.755-0.202-1.088-0.814-0.908-1.494
			c0.181-0.683,0.808-1.172,1.562-0.976C69.275,1668.25,69.602,1668.962,69.419,1669.642z"/>
	</g>
	<g>
		<path fill="#0BAEDD" d="M72.169,1913.706l9.542,3.512l3.301-8.467l-9.874-3.365l-3.202,1.472l-1.403,3.278L72.169,1913.706z
			 M72.99,1909.946c-0.293-0.637-0.2-1.397,0.504-1.723c0.702-0.322,1.441-0.026,1.73,0.611c0.295,0.638,0.179,1.316-0.524,1.641
			C73.993,1910.797,73.283,1910.582,72.99,1909.946z"/>
		<path fill="#0BAEDD" d="M69.029,1910.679l1.357-3.173l-3.199-0.939l-3.187,1.646l-1.013,3.817l5.16,8.831l7.581-4.487
			l-4.881-1.692L69.029,1910.679z M68.42,1910.211c-0.179,0.683-0.795,1.077-1.549,0.879c-0.755-0.202-1.088-0.814-0.908-1.495
			c0.181-0.683,0.808-1.172,1.562-0.976C68.276,1908.819,68.603,1909.531,68.42,1910.211z"/>
	</g>
	<g>
		<polygon fill="#FFFFFF" points="143.386,1723.727 138.772,1726.418 138.772,1721.035 138.772,1715.652 143.386,1718.344 
			148,1721.035 		"/>
	</g>
	<g>
		<polygon fill="#0BAEDD" points="143.386,1770.227 138.772,1772.918 138.772,1767.535 138.772,1762.152 143.386,1764.844 
			148,1767.535 		"/>
	</g>
	<g>
		<path fill="#F47A2B" d="M74,1247.784c3.69,0,6.691,3.002,6.691,6.691c0,3.688-3.001,6.691-6.691,6.691
			c-3.689,0-6.69-3.003-6.69-6.691C67.31,1250.786,70.311,1247.784,74,1247.784 M74,1245.039c-5.21,0-9.435,4.224-9.435,9.435
			c0,5.211,4.225,9.435,9.435,9.435c5.211,0,9.435-4.225,9.435-9.435C83.435,1249.263,79.211,1245.039,74,1245.039z"/>
		<path fill="#F47A2B" d="M74.134,1255.426c-0.379,0-0.686-0.307-0.686-0.686v-2.744c0-0.379,0.307-0.687,0.686-0.687
			c0.38,0,0.686,0.308,0.686,0.687v2.744C74.82,1255.119,74.513,1255.426,74.134,1255.426z"/>
		<path fill="#F47A2B" d="M74.751,1254.974c-0.054,0.141-0.152,0.265-0.292,0.346l-3.781,2.238c-0.326,0.191-0.747,0.084-0.94-0.241
			c-0.192-0.327-0.085-0.746,0.241-0.94l3.781-2.238c0.327-0.191,0.747-0.085,0.94,0.241
			C74.81,1254.568,74.822,1254.784,74.751,1254.974z"/>
	</g>
	<g>
		<g>
			<rect x="70.273" y="1888.097" fill="#0BAEDD" width="8.358" height="1.077"/>
		</g>
		<g>
			<rect x="73.856" y="1885.764" fill="#0BAEDD" width="4.775" height="1.077"/>
		</g>
		<g>
			<rect x="70.273" y="1890.559" fill="#0BAEDD" width="8.358" height="1.077"/>
		</g>
		<g>
			<path fill="#0BAEDD" d="M70.039,1898.849l-0.16-3.388h-4.256v-13.775h16.753v13.775h-6.285L70.039,1898.849z M67.391,1893.693
				h4.175l0.104,2.217l3.96-2.217h4.979v-10.24H67.391V1893.693z"/>
		</g>
		<g>
			<path fill="#0BAEDD" d="M70.095,1887.103h-1.214v-0.868c0-0.351,0.031-0.628,0.093-0.831c0.062-0.203,0.176-0.385,0.343-0.546
				c0.167-0.161,0.38-0.288,0.64-0.38l0.237,0.501c-0.242,0.081-0.415,0.193-0.52,0.337c-0.105,0.144-0.161,0.335-0.166,0.574h0.587
				V1887.103z M72.12,1887.103h-1.214v-0.868c0-0.354,0.031-0.632,0.093-0.833c0.062-0.202,0.177-0.383,0.346-0.544
				c0.168-0.161,0.381-0.288,0.637-0.38l0.238,0.501c-0.242,0.081-0.415,0.193-0.52,0.337c-0.105,0.144-0.161,0.335-0.166,0.574
				h0.587V1887.103z"/>
		</g>
	</g>
	<g>
		<g>
			<g>
				<circle fill="#0BAEDD" cx="70.316" cy="1818.369" r="1.454"/>
			</g>
		</g>
		<g>
			<path fill="#0BAEDD" d="M68.542,1823.291h3.775c0,0-0.408-2.838-1.021-2.838c-0.727,0-0.382,0.016-1.836,0.005
				C68.848,1820.453,68.542,1823.291,68.542,1823.291z"/>
		</g>
		<g>
			<path fill-rule="evenodd" clip-rule="evenodd" fill="#0BAEDD" d="M74.323,1819.74c-0.364,0-0.364-1.248,0-1.248
				c1.522,0,3.059,0,4.595,0c0.364,0,0.364,1.248,0,1.248C77.382,1819.74,75.846,1819.74,74.323,1819.74L74.323,1819.74z"/>
		</g>
		<g>
			<path fill-rule="evenodd" clip-rule="evenodd" fill="#0BAEDD" d="M74.323,1822.277c-0.364,0-0.364-1.26,0-1.26
				c1.522,0,3.059,0,4.595,0c0.364,0,0.364,1.26,0,1.26C77.382,1822.277,75.846,1822.277,74.323,1822.277L74.323,1822.277z"/>
		</g>
		<g>
			<path fill="#0BAEDD" d="M82.417,1826.65H65.583v-13.902h5.43l2.211,1.782h9.193V1826.65z M67.399,1824.834h13.202v-8.487h-8.017
				l-2.211-1.783h-2.973V1824.834z"/>
		</g>
	</g>
	<g>
		<circle fill="#0BAEDD" cx="72.697" cy="1863.92" r="1.654"/>
		<path fill="#0BAEDD" d="M70.472,1866.146l-2.072,3.998h2.268h1.251h0.823c0,0,0-0.425,0-0.68l-0.395-0.623L70.472,1866.146z"/>
		<polygon fill="#0BAEDD" points="80.155,1865.85 78.093,1865.85 78.093,1868.427 75.516,1868.427 75.516,1870.489 78.093,1870.489 
			78.093,1873.067 80.155,1873.067 80.155,1870.489 82.733,1870.489 82.733,1868.427 80.155,1868.427 		"/>
		<path fill="#0BAEDD" d="M65.163,1859.581v13.66h9.384c-0.688-0.582-1.164-1.105-1.427-1.647h-6.181v-10.309h13.988v2.984
			c1.04,0.375,1.391,0.797,1.911,1.436v-6.124H65.163z"/>
	</g>
	<g>
		<path fill="#0BAEDD" d="M68.061,1835.36c-1.817,0-4.543,0.826-4.543,4.13c0,1.652,3.635,7.434,4.543,9.086
			c0.908-1.652,4.543-7.433,4.543-9.086C72.604,1836.186,69.878,1835.36,68.061,1835.36z M68.061,1840.935
			c-0.799,0-1.445-0.647-1.445-1.445c0-0.799,0.647-1.445,1.445-1.445s1.445,0.647,1.445,1.445
			C69.507,1840.289,68.86,1840.935,68.061,1840.935z"/>
		<polygon fill="#0BAEDD" points="84.482,1838.419 84.482,1849.75 79.76,1847.861 79.76,1836.531 		"/>
		<polygon fill="#0BAEDD" points="75.039,1838.419 75.039,1849.75 78.816,1847.861 78.816,1836.531 		"/>
		<polygon fill="#0BAEDD" points="71.819,1844.252 70.275,1847.34 74.095,1849.75 74.095,1839.619 		"/>
	</g>
	<g>
		<path fill="#FFFFFF" d="M10.735,1913.654l9.542,3.512l3.301-8.467l-9.874-3.365l-3.202,1.472l-1.403,3.278L10.735,1913.654z
			 M11.556,1909.894c-0.293-0.637-0.2-1.397,0.504-1.723c0.702-0.322,1.441-0.026,1.73,0.611c0.295,0.638,0.179,1.316-0.524,1.641
			C12.559,1910.745,11.849,1910.53,11.556,1909.894z"/>
		<path fill="#FFFFFF" d="M7.595,1910.628l1.357-3.173l-3.199-0.939l-3.187,1.646l-1.013,3.817l5.16,8.831l7.581-4.487l-4.881-1.692
			L7.595,1910.628z M6.985,1910.16c-0.179,0.683-0.795,1.077-1.549,0.879c-0.755-0.202-1.088-0.814-0.908-1.494
			c0.181-0.683,0.808-1.172,1.562-0.976C6.842,1908.767,7.169,1909.479,6.985,1910.16z"/>
	</g>
	<g>
		<g>
			<rect x="8.839" y="1888.046" fill="#FFFFFF" width="8.358" height="1.077"/>
		</g>
		<g>
			<rect x="12.421" y="1885.713" fill="#FFFFFF" width="4.775" height="1.077"/>
		</g>
		<g>
			<rect x="8.839" y="1890.507" fill="#FFFFFF" width="8.358" height="1.077"/>
		</g>
		<g>
			<path fill="#FFFFFF" d="M8.605,1898.797l-0.16-3.388H4.189v-13.775h16.753v13.775h-6.285L8.605,1898.797z M5.957,1893.641h4.175
				l0.104,2.217l3.96-2.217h4.979v-10.24H5.957V1893.641z"/>
		</g>
		<g>
			<path fill="#FFFFFF" d="M8.66,1887.051H7.447v-0.868c0-0.351,0.031-0.628,0.093-0.831c0.062-0.203,0.176-0.385,0.343-0.546
				c0.167-0.161,0.38-0.288,0.64-0.38l0.237,0.501c-0.242,0.081-0.415,0.193-0.52,0.337c-0.105,0.144-0.161,0.335-0.166,0.574H8.66
				V1887.051z M10.686,1887.051H9.472v-0.868c0-0.354,0.031-0.632,0.093-0.833c0.062-0.202,0.177-0.383,0.346-0.544
				c0.168-0.161,0.381-0.288,0.637-0.38l0.238,0.501c-0.242,0.081-0.415,0.193-0.52,0.337c-0.105,0.144-0.161,0.335-0.166,0.574
				h0.587V1887.051z"/>
		</g>
	</g>
	<g>
		<g>
			<g>
				<circle fill="#FFFFFF" cx="8.882" cy="1818.317" r="1.454"/>
			</g>
		</g>
		<g>
			<path fill="#FFFFFF" d="M7.107,1823.239h3.775c0,0-0.408-2.838-1.021-2.838c-0.727,0-0.382,0.016-1.836,0.005
				C7.413,1820.401,7.107,1823.239,7.107,1823.239z"/>
		</g>
		<g>
			<path fill-rule="evenodd" clip-rule="evenodd" fill="#FFFFFF" d="M12.889,1819.688c-0.364,0-0.364-1.248,0-1.248
				c1.522,0,3.059,0,4.595,0c0.364,0,0.364,1.248,0,1.248C15.948,1819.688,14.411,1819.688,12.889,1819.688L12.889,1819.688z"/>
		</g>
		<g>
			<path fill-rule="evenodd" clip-rule="evenodd" fill="#FFFFFF" d="M12.889,1822.225c-0.364,0-0.364-1.26,0-1.26
				c1.522,0,3.059,0,4.595,0c0.364,0,0.364,1.26,0,1.26C15.948,1822.225,14.411,1822.225,12.889,1822.225L12.889,1822.225z"/>
		</g>
		<g>
			<path fill="#FFFFFF" d="M20.983,1826.599H4.149v-13.902h5.43l2.211,1.782h9.193V1826.599z M5.965,1824.782h13.202v-8.487h-8.017
				l-2.211-1.783H5.965V1824.782z"/>
		</g>
	</g>
	<g>
		<circle fill="#FFFFFF" cx="11.263" cy="1863.868" r="1.654"/>
		<path fill="#FFFFFF" d="M9.038,1866.094l-2.072,3.998h2.268h1.251h0.823c0,0,0-0.425,0-0.68l-0.395-0.623L9.038,1866.094z"/>
		<polygon fill="#FFFFFF" points="18.721,1865.798 16.659,1865.798 16.659,1868.376 14.082,1868.376 14.082,1870.438 
			16.659,1870.438 16.659,1873.015 18.721,1873.015 18.721,1870.438 21.299,1870.438 21.299,1868.376 18.721,1868.376 		"/>
		<path fill="#FFFFFF" d="M3.728,1859.53v13.66h9.384c-0.688-0.582-1.164-1.105-1.427-1.647H5.504v-10.309h13.988v2.984
			c1.04,0.375,1.391,0.797,1.911,1.436v-6.124H3.728z"/>
	</g>
	<g>
		<path fill="#FFFFFF" d="M6.627,1835.309c-1.817,0-4.543,0.826-4.543,4.13c0,1.652,3.635,7.434,4.543,9.086
			c0.908-1.652,4.543-7.433,4.543-9.086C11.17,1836.135,8.444,1835.309,6.627,1835.309z M6.627,1840.884
			c-0.799,0-1.445-0.647-1.445-1.445c0-0.799,0.647-1.445,1.445-1.445s1.445,0.647,1.445,1.445
			C8.072,1840.237,7.426,1840.884,6.627,1840.884z"/>
		<polygon fill="#FFFFFF" points="23.047,1838.368 23.047,1849.698 18.326,1847.81 18.326,1836.479 		"/>
		<polygon fill="#FFFFFF" points="13.605,1838.368 13.605,1849.698 17.382,1847.81 17.382,1836.479 		"/>
		<polygon fill="#FFFFFF" points="10.385,1844.2 8.84,1847.289 12.661,1849.698 12.661,1839.568 		"/>
	</g>
	<g>
		<path fill="#5D5D5D" d="M132.002,1913.706l9.542,3.512l3.301-8.467l-9.874-3.365l-3.202,1.472l-1.403,3.278L132.002,1913.706z
			 M132.824,1909.946c-0.293-0.637-0.2-1.397,0.504-1.723c0.702-0.322,1.441-0.026,1.73,0.611c0.295,0.638,0.179,1.316-0.524,1.641
			C133.826,1910.797,133.116,1910.582,132.824,1909.946z"/>
		<path fill="#5D5D5D" d="M128.863,1910.679l1.357-3.173l-3.199-0.939l-3.187,1.646l-1.013,3.817l5.16,8.831l7.581-4.487
			l-4.881-1.692L128.863,1910.679z M128.253,1910.211c-0.179,0.683-0.795,1.077-1.549,0.879c-0.755-0.202-1.088-0.814-0.908-1.495
			c0.181-0.683,0.808-1.172,1.562-0.976C128.109,1908.819,128.436,1909.531,128.253,1910.211z"/>
	</g>
	<g>
		<g>
			<rect x="130.106" y="1888.097" fill="#5D5D5D" width="8.358" height="1.077"/>
		</g>
		<g>
			<rect x="133.689" y="1885.764" fill="#5D5D5D" width="4.775" height="1.077"/>
		</g>
		<g>
			<rect x="130.106" y="1890.559" fill="#5D5D5D" width="8.358" height="1.077"/>
		</g>
		<g>
			<path fill="#5D5D5D" d="M129.872,1898.849l-0.16-3.388h-4.256v-13.775h16.753v13.775h-6.285L129.872,1898.849z M127.224,1893.693
				h4.175l0.104,2.217l3.96-2.217h4.979v-10.24h-13.218V1893.693z"/>
		</g>
		<g>
			<path fill="#5D5D5D" d="M129.928,1887.103h-1.214v-0.868c0-0.351,0.031-0.628,0.093-0.831c0.062-0.203,0.176-0.385,0.343-0.546
				c0.167-0.161,0.38-0.288,0.64-0.38l0.237,0.501c-0.242,0.081-0.415,0.193-0.52,0.337c-0.105,0.144-0.161,0.335-0.166,0.574h0.587
				V1887.103z M131.954,1887.103h-1.214v-0.868c0-0.354,0.031-0.632,0.093-0.833c0.062-0.202,0.177-0.383,0.346-0.544
				c0.168-0.161,0.381-0.288,0.637-0.38l0.238,0.501c-0.242,0.081-0.415,0.193-0.52,0.337c-0.105,0.144-0.161,0.335-0.166,0.574
				h0.587V1887.103z"/>
		</g>
	</g>
	<g>
		<g>
			<g>
				<circle fill="#5D5D5D" cx="130.15" cy="1818.369" r="1.454"/>
			</g>
		</g>
		<g>
			<path fill="#5D5D5D" d="M128.375,1823.291h3.775c0,0-0.408-2.838-1.021-2.838c-0.727,0-0.382,0.016-1.836,0.005
				C128.681,1820.453,128.375,1823.291,128.375,1823.291z"/>
		</g>
		<g>
			<path fill-rule="evenodd" clip-rule="evenodd" fill="#5D5D5D" d="M134.157,1819.74c-0.364,0-0.364-1.248,0-1.248
				c1.522,0,3.059,0,4.595,0c0.364,0,0.364,1.248,0,1.248C137.216,1819.74,135.679,1819.74,134.157,1819.74L134.157,1819.74z"/>
		</g>
		<g>
			<path fill-rule="evenodd" clip-rule="evenodd" fill="#5D5D5D" d="M134.157,1822.277c-0.364,0-0.364-1.26,0-1.26
				c1.522,0,3.059,0,4.595,0c0.364,0,0.364,1.26,0,1.26C137.216,1822.277,135.679,1822.277,134.157,1822.277L134.157,1822.277z"/>
		</g>
		<g>
			<path fill="#5D5D5D" d="M142.25,1826.65h-16.834v-13.902h5.43l2.211,1.782h9.193V1826.65z M127.233,1824.834h13.202v-8.487
				h-8.017l-2.211-1.783h-2.973V1824.834z"/>
		</g>
	</g>
	<g>
		<circle fill="#5D5D5D" cx="132.53" cy="1863.92" r="1.654"/>
		<path fill="#5D5D5D" d="M130.306,1866.146l-2.072,3.998h2.268h1.251h0.823c0,0,0-0.425,0-0.68l-0.395-0.623L130.306,1866.146z"/>
		<polygon fill="#5D5D5D" points="139.988,1865.85 137.927,1865.85 137.927,1868.427 135.349,1868.427 135.349,1870.489 
			137.927,1870.489 137.927,1873.067 139.988,1873.067 139.988,1870.489 142.566,1870.489 142.566,1868.427 139.988,1868.427 		"/>
		<path fill="#5D5D5D" d="M124.996,1859.581v13.66h9.384c-0.688-0.582-1.164-1.105-1.427-1.647h-6.181v-10.309h13.988v2.984
			c1.04,0.375,1.391,0.797,1.911,1.436v-6.124H124.996z"/>
	</g>
	<g>
		<path fill="#5D5D5D" d="M127.895,1835.36c-1.817,0-4.543,0.826-4.543,4.13c0,1.652,3.635,7.434,4.543,9.086
			c0.908-1.652,4.543-7.433,4.543-9.086C132.437,1836.186,129.712,1835.36,127.895,1835.36z M127.895,1840.935
			c-0.799,0-1.445-0.647-1.445-1.445c0-0.799,0.647-1.445,1.445-1.445c0.799,0,1.445,0.647,1.445,1.445
			C129.34,1840.289,128.693,1840.935,127.895,1840.935z"/>
		<polygon fill="#5D5D5D" points="144.315,1838.419 144.315,1849.75 139.594,1847.861 139.594,1836.531 		"/>
		<polygon fill="#5D5D5D" points="134.873,1838.419 134.873,1849.75 138.65,1847.861 138.65,1836.531 		"/>
		<polygon fill="#5D5D5D" points="131.652,1844.252 130.108,1847.34 133.928,1849.75 133.928,1839.619 		"/>
	</g>
	<g>
		<rect x="70.614" y="1941.296" fill="#5D5D5D" width="4.209" height="0.953"/>
		<rect x="70.614" y="1939.187" fill="#5D5D5D" width="4.209" height="0.953"/>
		<rect x="70.614" y="1933.523" fill="#5D5D5D" width="4.209" height="4.223"/>
		<path fill="#5D5D5D" d="M77.27,1933.699v-2.494h-9.103v13.363h2.562v2.494h9.103v-13.363H77.27z M69.651,1932.688h6.136v10.396
			h-6.136V1932.688z M78.349,1945.579h-6.136v-1.011h5.057v-9.385h1.079V1945.579z"/>
	</g>
	<g>
		<path fill="#5D5D5D" d="M74.048,1953.073h-4.991l2.266,1.717l-5.594,3.984v5.564l8.289,5.958l8.254-5.959v-5.591L74.048,1953.073z
			 M81.318,1959.811v4.19l-6.816,4.833v-4.19L81.318,1959.811z M77.206,1961.481l-3.189,2.3l-6.951-4.928l3.189-2.301
			L77.206,1961.481z M73.656,1953.788l6.511,4.406l-2.7-0.053l-6.112-4.353H73.656z M66.698,1964.001v-4.19l6.816,4.833v4.19
			L66.698,1964.001z"/>
		<polygon fill="#5D5D5D" points="67.478,1963.236 72.496,1966.858 72.496,1965.292 67.478,1961.671 		"/>
	</g>
	<path fill="#5D5D5D" d="M76.517,1982.101h-5.034v3.986h5.034V1982.101z M69.485,1985.23h-3.417v-2.272h3.417v0.817h1.485v0.638
		h-1.485V1985.23z M70.983,1981.588h0.912l-1.453-1.421v-2.048h-3.416v2.272h2.733L70.983,1981.588z M77.018,1981.588l1.224-1.197
		h2.733v-2.272h-3.416v2.048l-1.452,1.421H77.018z M73.681,1981.588h0.637v-2.154h1.389v-2.272h-3.416v2.272h1.389V1981.588z
		 M74.319,1986.6h-0.637v2.154h-1.389v2.272h3.416v-2.272h-1.389V1986.6z M78.515,1982.958v0.817h-1.485v0.638h1.485v0.818h3.416
		v-2.272H78.515z M77.019,1986.6h-0.912l1.452,1.42v2.049h3.416v-2.272h-2.732L77.019,1986.6z M70.981,1986.6l-1.224,1.198h-2.732
		v2.272h3.416v-2.05l1.452-1.42H70.981z"/>
	<g>
		<path fill="#5D5D5D" d="M74,1999.195c-4.407,0-7.98,3.572-7.98,7.979c0,4.407,3.573,7.98,7.98,7.98c4.407,0,7.98-3.572,7.98-7.98
			C81.98,2002.767,78.407,1999.195,74,1999.195z M74,2013.988c-3.757,0-6.813-3.056-6.813-6.812c0-3.757,3.056-6.814,6.813-6.814
			c3.757,0,6.814,3.057,6.814,6.814C80.814,2010.931,77.757,2013.988,74,2013.988z"/>
		<circle fill="#5D5D5D" cx="73.999" cy="2007.278" r="1.488"/>
		<path fill="#5D5D5D" d="M75.002,2009.411c-0.744,0-0.391,0.016-1.88,0.005c-0.627-0.005-0.94,2.9-0.94,2.9h3.865
			C76.047,2012.317,75.629,2009.411,75.002,2009.411z"/>
		<circle fill="#5D5D5D" cx="77.659" cy="2004.533" r="1.488"/>
		<path fill="#5D5D5D" d="M78.662,2006.666c-0.744,0-0.392,0.016-1.88,0.005c-0.627-0.005-0.94,2.901-0.94,2.901h3.865
			C79.706,2009.572,79.289,2006.666,78.662,2006.666z"/>
		<circle fill="#5D5D5D" cx="70.155" cy="2004.35" r="1.488"/>
		<path fill="#5D5D5D" d="M71.159,2006.483c-0.744,0-0.392,0.017-1.88,0.005c-0.627-0.005-0.94,2.901-0.94,2.901h3.865
			C72.204,2009.389,71.786,2006.483,71.159,2006.483z"/>
	</g>
	<g>
		<rect x="9.531" y="1941.296" fill="#FFFFFF" width="4.209" height="0.953"/>
		<rect x="9.531" y="1939.187" fill="#FFFFFF" width="4.209" height="0.953"/>
		<rect x="9.531" y="1933.523" fill="#FFFFFF" width="4.209" height="4.223"/>
		<path fill="#FFFFFF" d="M16.187,1933.699v-2.494H7.084v13.363h2.562v2.494h9.103v-13.363H16.187z M8.567,1932.688h6.136v10.396
			H8.567V1932.688z M17.266,1945.579h-6.136v-1.011h5.057v-9.385h1.079V1945.579z"/>
	</g>
	<g>
		<path fill="#FFFFFF" d="M12.964,1953.073H7.973l2.266,1.717l-5.594,3.984v5.564l8.289,5.958l8.254-5.959v-5.591L12.964,1953.073z
			 M20.235,1959.811v4.19l-6.816,4.833v-4.19L20.235,1959.811z M16.122,1961.481l-3.189,2.3l-6.951-4.928l3.189-2.301
			L16.122,1961.481z M12.573,1953.788l6.511,4.406l-2.7-0.053l-6.112-4.353H12.573z M5.615,1964.001v-4.19l6.816,4.833v4.19
			L5.615,1964.001z"/>
		<polygon fill="#FFFFFF" points="6.395,1963.236 11.412,1966.858 11.412,1965.292 6.395,1961.671 		"/>
	</g>
	<path fill="#FFFFFF" d="M15.433,1982.101H10.4v3.986h5.034V1982.101z M8.402,1985.23H4.985v-2.272h3.417v0.817h1.485v0.638H8.402
		V1985.23z M9.899,1981.588h0.912l-1.453-1.421v-2.048H5.942v2.272h2.733L9.899,1981.588z M15.934,1981.588l1.224-1.197h2.733
		v-2.272h-3.416v2.048l-1.452,1.421H15.934z M12.598,1981.588h0.637v-2.154h1.389v-2.272h-3.416v2.272h1.389V1981.588z
		 M13.235,1986.6h-0.637v2.154h-1.389v2.272h3.416v-2.272h-1.389V1986.6z M17.432,1982.958v0.817h-1.485v0.638h1.485v0.818h3.416
		v-2.272H17.432z M15.935,1986.6h-0.912l1.452,1.42v2.049h3.416v-2.272h-2.732L15.935,1986.6z M9.898,1986.6l-1.224,1.198H5.942
		v2.272h3.416v-2.05l1.452-1.42H9.898z"/>
	<g>
		<path fill="#FFFFFF" d="M12.917,1999.195c-4.407,0-7.98,3.572-7.98,7.979c0,4.407,3.573,7.98,7.98,7.98s7.98-3.572,7.98-7.98
			C20.896,2002.767,17.324,1999.195,12.917,1999.195z M12.917,2013.988c-3.757,0-6.813-3.056-6.813-6.812
			c0-3.757,3.056-6.814,6.813-6.814c3.757,0,6.814,3.057,6.814,6.814C19.73,2010.931,16.673,2013.988,12.917,2013.988z"/>
		<circle fill="#FFFFFF" cx="12.915" cy="2007.278" r="1.488"/>
		<path fill="#FFFFFF" d="M13.918,2009.411c-0.744,0-0.391,0.016-1.88,0.005c-0.627-0.005-0.94,2.9-0.94,2.9h3.865
			C14.963,2012.317,14.546,2009.411,13.918,2009.411z"/>
		<circle fill="#FFFFFF" cx="16.575" cy="2004.533" r="1.488"/>
		<path fill="#FFFFFF" d="M17.579,2006.666c-0.744,0-0.392,0.016-1.88,0.005c-0.627-0.005-0.94,2.901-0.94,2.901h3.865
			C18.623,2009.572,18.205,2006.666,17.579,2006.666z"/>
		<circle fill="#FFFFFF" cx="9.072" cy="2004.35" r="1.488"/>
		<path fill="#FFFFFF" d="M10.076,2006.483c-0.744,0-0.392,0.017-1.88,0.005c-0.627-0.005-0.94,2.901-0.94,2.901h3.865
			C11.12,2009.389,10.702,2006.483,10.076,2006.483z"/>
	</g>
	<path fill="#03ADD9" d="M68.394,2092.732c2.117,0,3.135,1.176,2.979,5.878c1.097,0,8.464,0,8.464,0s2.587,0.392,2.587,2.587
		c0,2.194-2.665,3.056-2.665,3.056h-8.151l-0.079,5.016h8.465c0,0,2.43,0.549,2.43,3.057c0,2.508-2.43,2.9-2.43,2.9h-9.483
		c0,0-2.209-0.522-3.375-1.46c-1.376-1.108-1.562-3.712-1.562-3.712v-14.97C65.573,2095.084,66.122,2092.732,68.394,2092.732z"/>
	<path fill="#03ADD9" d="M79.856,2049.348v-4.226c0,0-6.074-0.708-7.886,1.544c-1.492,1.855-1.236,6.715-1.236,6.715h-2.593v4.369
		h2.593v12.58h5.186l0.06-12.656l3.493-0.02l0.384-4.381l-3.914,0.036l0.108-2.556c0,0-0.036-0.613,0.252-0.972
		C76.591,2049.419,79.16,2049.456,79.856,2049.348z"/>
	<g>
		<path id="circle_2_" fill="#03ADD9" d="M68.915,2158.085c0,1.621-1.315,2.932-2.939,2.932c-1.619,0-2.935-1.31-2.935-2.932
			c0-1.617,1.316-2.94,2.935-2.94C67.6,2155.145,68.915,2156.468,68.915,2158.085z"/>
		<path fill="#03ADD9" d="M77.437,2160.852h-3.863c-0.051-2.756-1.143-5.335-3.086-7.282c-1.944-1.951-4.515-3.044-7.255-3.095
			v-3.851C71.018,2146.73,77.331,2153.054,77.437,2160.852L77.437,2160.852z"/>
		<path fill="#03ADD9" d="M84.956,2160.852h-3.857c-0.105-9.824-8.06-17.798-17.86-17.904v-3.849
			C75.166,2139.206,84.849,2148.904,84.956,2160.852L84.956,2160.852z"/>
	</g>
</g>
</svg>
