<?xml version="1.0" encoding="utf-8"?>
<!-- Generator: Adobe Illustrator 15.1.0, SVG Export Plug-In  -->
<!DOCTYPE svg PUBLIC "-//W3C//DTD SVG 1.1//EN" "http://www.w3.org/Graphics/SVG/1.1/DTD/svg11.dtd" [
	<!ENTITY ns_flows "http://ns.adobe.com/Flows/1.0/">
]>
<svg version="1.1"
	 xmlns="http://www.w3.org/2000/svg" xmlns:xlink="http://www.w3.org/1999/xlink" xmlns:a="http://ns.adobe.com/AdobeSVGViewerExtensions/3.0/"
	 x="0px" y="0px" width="300px" height="58px" viewBox="-1.297 -1.515 300 58"
	 overflow="visible" enable-background="new -1.297 -1.515 300 58" xml:space="preserve">
<defs>
</defs>
<g>
	<g>
		<g>
			<g>
				<path fill="#F15B50" d="M9.237,8.017C3.508,12.961,0.001,19.741,0,27.214l0,0c0.001,7.476,3.508,14.254,9.237,19.2l0,0
					c5.728,4.938,13.671,8.016,22.464,8.014l0,0c6.516,0,12.562-1.69,17.586-4.575l0,0c0.264-0.15,0.585-0.159,0.856-0.02l0,0
					l8.561,4.365l-2.515-9.082l0,0c-0.082-0.3-0.005-0.625,0.211-0.854l0,0c4.39-4.683,7-10.603,7.001-17.048l0,0
					c0-7.473-3.507-14.253-9.238-19.198l0,0C48.437,3.076,40.493,0,31.701,0l0,0c-0.001,0-0.003,0-0.004,0l0,0
					C22.907,0.002,14.964,3.077,9.237,8.017L9.237,8.017z"/>
			</g>
		</g>
	</g>
</g>
<path fill="#FFFFFF" d="M36.364,27.139c0,2.104,0.667,4.116,1.899,5.816v1.527c0,1.117-0.923,2.042-2.039,2.042
	c-1.117,0-2.079-0.924-2.079-2.042v-9.123c0-2.194-1.771-3.966-3.888-3.966c-2.194,0-3.927,1.733-4.003,3.85c0,0.04,0,0.077,0,0.116
	v9.123c0,1.117-0.924,2.042-2.04,2.042c-1.079,0-2.079-0.924-2.079-2.042v-9.123c0-0.039,0-0.076,0-0.116
	c-0.038-2.117-1.809-3.85-3.965-3.85c-2.117,0-3.888,1.772-3.888,3.966v9.123c0,0.078-0.038,0.194-0.038,0.271
	c0,0.038,0,0.114,0,0.114c-0.038,0.077-0.038,0.154-0.116,0.23c0,0.04,0,0.117,0,0.193c-0.346,0.693-1.116,1.232-1.924,1.232
	c-0.154,0-0.27-0.039-0.385-0.039c-0.924-0.23-1.655-1-1.655-2.002v-9.123c0-0.039,0-0.039,0-0.039v-5.966
	c0-1.193,0.923-2.08,2.041-2.08c0.808,0,1.54,0.423,1.847,1.155c1.233-0.732,2.657-1.155,4.12-1.155
	c2.425,0,4.582,1.002,6.044,2.656c1.424-1.654,3.618-2.656,6.043-2.656c3.332,0,6.183,2.051,7.39,4.967
	C36.83,23.699,36.364,25.367,36.364,27.139z"/>
<path fill="#FFFFFF" d="M37.109,27.139c0-5.24,4.373-9.423,9.574-9.46c2.262,0,4.372,0.83,5.992,2.073
	c0.867,0.678,1.017,1.959,0.415,2.789c-0.753,0.905-1.959,1.055-2.827,0.377c-0.98-0.717-2.186-1.207-3.58-1.207
	c-3.053,0-5.579,2.525-5.579,5.428c0,2.902,2.525,5.388,5.579,5.388c1.356,0,2.6-0.49,3.58-1.205
	c0.83-0.642,2.073-0.491,2.827,0.414c0.603,0.829,0.453,2.035-0.415,2.79c-1.62,1.167-3.73,1.997-5.992,1.997
	C41.482,36.523,37.109,32.303,37.109,27.139z"/>
<path fill="#F15B50" d="M56.19,45.136c-0.113-0.41,0.083-0.68,0.083-0.68c-2.347,2.708-6.985,5.417-6.985,5.417
	c0.428-0.246,0.856-0.02,0.856-0.02l8.561,4.365L56.19,45.136z"/>
<g>
	<g>
		<path fill="#39A7DE" d="M86.696,27.625c0,0.027,0,0.057,0,0.083v6.574c0,0.804-0.666,1.47-1.472,1.47
			c-0.776,0-1.497-0.666-1.497-1.47v-6.574c0-0.026,0-0.056,0-0.083c-0.029-1.525-1.304-2.774-2.857-2.774
			c-1.526,0-2.802,1.277-2.802,2.857v6.574c0,0.054-0.027,0.137-0.027,0.193c0,0.028,0,0.083,0,0.083
			c-0.029,0.057-0.029,0.111-0.083,0.167c0,0.026,0,0.083,0,0.139c-0.25,0.499-0.805,0.887-1.388,0.887
			c-0.111,0-0.194-0.027-0.278-0.027c-0.665-0.167-1.192-0.722-1.192-1.442v-6.574c0-0.026,0-0.026,0-0.026v-4.3
			c0-0.86,0.666-1.499,1.47-1.499c0.583,0,1.109,0.306,1.332,0.833c0.887-0.527,1.914-0.833,2.967-0.833
			c1.748,0,3.301,0.722,4.354,1.915c1.028-1.193,2.608-1.915,4.356-1.915c3.189,0,5.77,2.607,5.77,5.825v6.574
			c0,0.804-0.667,1.47-1.471,1.47c-0.804,0-1.497-0.666-1.497-1.47v-6.574c0-1.581-1.276-2.857-2.801-2.857
			C87.999,24.851,86.75,26.1,86.696,27.625z"/>
		<path fill="#39A7DE" d="M98.009,28.818c0.028-3.771,2.968-6.934,6.768-6.934c3.605,0,6.463,2.69,6.685,6.434
			c0,0.029,0,0.084,0,0.14c0,0.056,0,0.193-0.027,0.249c-0.083,0.666-0.666,1.11-1.442,1.11h-8.82
			c0.137,0.638,0.443,1.359,0.942,1.831c0.583,0.665,1.693,1.164,2.663,1.247c0.999,0.083,2.192-0.166,2.885-0.693
			c0.583-0.61,1.719-0.527,2.081-0.083c0.361,0.389,0.637,1.221,0,1.804c-1.36,1.248-2.996,1.83-4.965,1.83
			C100.977,35.725,98.037,32.591,98.009,28.818z M101.032,27.459h7.85c-0.277-1.109-1.691-2.745-4.105-2.939
			C102.42,24.63,101.255,26.323,101.032,27.459z"/>
		<path fill="#39A7DE" d="M121.335,23.354c0,0.777-0.638,1.47-1.471,1.47c-0.637,0-1.192,0.167-1.664,0.526
			c-0.527,0.333-0.943,0.806-1.276,1.332c-0.666,0.888-0.999,1.942-1.138,2.33v5.27c0,0.804-0.692,1.47-1.525,1.47
			c-0.803,0-1.469-0.666-1.469-1.47V23.354c0-0.805,0.666-1.441,1.469-1.441c0.833,0,1.525,0.637,1.525,1.441v0.194
			c0.167-0.194,0.39-0.417,0.583-0.554c0.916-0.611,2.108-1.11,3.495-1.082C120.697,21.913,121.335,22.549,121.335,23.354z"/>
		<path fill="#39A7DE" d="M120.808,28.846c0-3.855,3.217-6.934,7.044-6.962c1.664,0,3.218,0.611,4.411,1.525
			c0.638,0.5,0.749,1.442,0.305,2.054c-0.555,0.666-1.443,0.776-2.08,0.278c-0.721-0.527-1.609-0.889-2.635-0.889
			c-2.247,0-4.104,1.859-4.104,3.995s1.858,3.965,4.104,3.965c0.999,0,1.914-0.36,2.635-0.887c0.611-0.472,1.525-0.361,2.08,0.304
			c0.444,0.612,0.333,1.499-0.305,2.054c-1.192,0.86-2.747,1.47-4.411,1.47C124.025,35.752,120.808,32.645,120.808,28.846z"/>
		<path fill="#39A7DE" d="M138.197,34.227c0,0.86-0.694,1.526-1.554,1.526c-0.693,0-1.275-0.499-1.47-1.136
			c-0.027-0.112-0.056-0.25-0.056-0.39V17.862c0-0.859,0.693-1.525,1.525-1.525c0.86,0,1.554,0.666,1.554,1.525v4.826
			c0.887-0.471,1.887-0.805,2.968-0.805c3.356,0,6.047,2.747,6.047,6.075v6.268c0,0.86-0.666,1.526-1.525,1.526
			s-1.526-0.666-1.526-1.526v-6.268c0-1.636-1.331-2.968-2.995-2.995c-1.637,0.027-2.94,1.359-2.968,2.995V34.227z"/>
		<path fill="#39A7DE" d="M162.464,28.846v5.437c0,0.804-0.665,1.47-1.471,1.47c-0.721,0-1.275-0.527-1.442-1.193
			c-1.054,0.75-2.302,1.193-3.688,1.193c-1.886,0-3.521-0.776-4.715-2.024c-1.193-1.276-1.887-2.995-1.887-4.882
			c0-1.914,0.693-3.633,1.887-4.881c1.193-1.276,2.829-2.081,4.715-2.081c1.387,0,2.635,0.472,3.688,1.222
			c0.167-0.694,0.722-1.222,1.442-1.222c0.806,0,1.471,0.666,1.471,1.499V28.846z M159.525,28.846c0-1.164-0.416-2.164-1.082-2.857
			c-0.667-0.749-1.609-1.138-2.58-1.138c-0.998,0-1.941,0.389-2.578,1.138c-0.666,0.693-1.055,1.693-1.055,2.857
			c0,1.137,0.389,2.136,1.055,2.856c0.637,0.694,1.58,1.083,2.578,1.083c0.971,0,1.913-0.388,2.58-1.083
			C159.109,30.982,159.525,29.983,159.525,28.846z"/>
		<path fill="#39A7DE" d="M176.692,27.653v6.63c0,0.804-0.638,1.47-1.442,1.47c-0.777,0-1.471-0.666-1.471-1.47v-6.63
			c0-1.553-1.303-2.802-2.885-2.802c-1.553,0-2.774,1.249-2.774,2.802v6.63c0,0.083,0,0.167-0.054,0.277
			c-0.14,0.666-0.75,1.193-1.471,1.193c-0.832,0-1.47-0.666-1.47-1.47v-6.63v-4.299c0-0.805,0.638-1.47,1.47-1.47
			c0.582,0,1.109,0.333,1.359,0.861c0.831-0.527,1.857-0.861,2.939-0.861C174.111,21.884,176.692,24.52,176.692,27.653z"/>
		<path fill="#39A7DE" d="M185.871,23.409c0,0.833-0.721,1.526-1.553,1.526h-0.694v7.74c0.859,0,1.526,0.693,1.526,1.552
			c0,0.86-0.667,1.526-1.526,1.526c-1.692,0-3.079-1.386-3.079-3.078v-7.74h-0.803c-0.861,0-1.525-0.693-1.525-1.526
			c0-0.859,0.664-1.525,1.525-1.525h0.803v-4.021c0-0.859,0.694-1.525,1.553-1.525c0.86,0,1.526,0.666,1.526,1.525v4.021h0.694
			C185.15,21.884,185.871,22.549,185.871,23.409z"/>
	</g>
</g>
<g>
	<g>
		<path fill="#F15B50" d="M186.658,28.795c0-3.884,3.242-6.984,7.098-7.014c1.678,0,3.24,0.615,4.442,1.537
			c0.644,0.503,0.755,1.453,0.308,2.068c-0.559,0.671-1.453,0.783-2.096,0.28c-0.726-0.531-1.619-0.895-2.654-0.895
			c-2.264,0-4.135,1.872-4.135,4.024c0,2.151,1.871,3.995,4.135,3.995c1.006,0,1.929-0.363,2.654-0.894
			c0.615-0.475,1.537-0.364,2.096,0.308c0.447,0.615,0.336,1.509-0.308,2.067c-1.202,0.866-2.765,1.481-4.442,1.481
			C189.9,35.752,186.658,32.622,186.658,28.795z"/>
		<path fill="#F15B50" d="M204.121,18.291c0,0.837-0.643,1.536-1.51,1.536c-0.838,0-1.509-0.699-1.509-1.536v-0.587
			c0-0.839,0.671-1.51,1.509-1.51c0.867,0,1.51,0.671,1.51,1.51V18.291z M204.121,23.348v10.897c0,0.837-0.643,1.508-1.51,1.508
			c-0.838,0-1.509-0.67-1.509-1.508V23.348c0-0.895,0.671-1.537,1.509-1.537C203.478,21.811,204.121,22.453,204.121,23.348z"/>
		<path fill="#F15B50" d="M215.017,23.262c0,0.783-0.643,1.481-1.481,1.481c-0.643,0-1.201,0.168-1.677,0.531
			c-0.531,0.335-0.949,0.811-1.285,1.341c-0.67,0.895-1.006,1.956-1.146,2.348v5.308c0,0.811-0.698,1.481-1.536,1.481
			c-0.812,0-1.48-0.67-1.48-1.481V23.262c0-0.81,0.669-1.451,1.48-1.451c0.838,0,1.536,0.642,1.536,1.451v0.196
			c0.167-0.196,0.391-0.419,0.587-0.559c0.922-0.615,2.123-1.118,3.521-1.089C214.375,21.811,215.017,22.453,215.017,23.262z"/>
		<path fill="#F15B50" d="M214.485,28.795c0-3.884,3.241-6.984,7.097-7.014c1.677,0,3.241,0.615,4.443,1.537
			c0.642,0.503,0.753,1.453,0.307,2.068c-0.559,0.671-1.452,0.783-2.095,0.28c-0.727-0.531-1.622-0.895-2.655-0.895
			c-2.263,0-4.135,1.872-4.135,4.024c0,2.151,1.872,3.995,4.135,3.995c1.006,0,1.929-0.363,2.655-0.894
			c0.612-0.475,1.536-0.364,2.095,0.308c0.446,0.615,0.335,1.509-0.307,2.067c-1.202,0.866-2.767,1.481-4.443,1.481
			C217.726,35.752,214.485,32.622,214.485,28.795z"/>
		<path fill="#F15B50" d="M230.633,16.194c0.866,0,1.564,0.699,1.564,1.537v16.485c0,0.838-0.698,1.537-1.564,1.537
			c-0.838,0-1.537-0.699-1.537-1.537V17.73C229.096,16.893,229.795,16.194,230.633,16.194z"/>
		<path fill="#F15B50" d="M233.623,28.767c0.025-3.799,2.988-6.985,6.816-6.985c3.632,0,6.512,2.71,6.734,6.481
			c0,0.029,0,0.085,0,0.141c0,0.056,0,0.196-0.027,0.251c-0.085,0.671-0.672,1.119-1.453,1.119h-8.886
			c0.14,0.643,0.446,1.369,0.949,1.844c0.587,0.67,1.705,1.172,2.683,1.256c1.007,0.083,2.208-0.167,2.906-0.698
			c0.586-0.614,1.732-0.531,2.094-0.084c0.365,0.392,0.645,1.23,0,1.817c-1.368,1.257-3.016,1.844-5,1.844
			C236.611,35.725,233.648,32.567,233.623,28.767z M236.667,27.398h7.906c-0.278-1.118-1.703-2.765-4.135-2.961
			C238.065,24.548,236.89,26.253,236.667,27.398z"/>
	</g>
</g>
<g>
	<g>
		<path fill="#39A7DE" d="M257.845,31.662c0-2.284,1.904-4.106,4.173-4.124c0.985,0,1.905,0.362,2.611,0.904
			c0.378,0.295,0.444,0.854,0.181,1.216c-0.328,0.394-0.854,0.459-1.232,0.163c-0.426-0.312-0.953-0.525-1.56-0.525
			c-1.331,0-2.432,1.1-2.432,2.365c0,1.265,1.101,2.349,2.432,2.349c0.591,0,1.134-0.213,1.56-0.526
			c0.362-0.279,0.904-0.212,1.232,0.182c0.264,0.36,0.197,0.887-0.181,1.215c-0.706,0.509-1.626,0.871-2.611,0.871
			C259.75,35.752,257.845,33.913,257.845,31.662z"/>
		<path fill="#39A7DE" d="M266.831,34.553c-0.706-0.723-1.134-1.741-1.134-2.891c0-1.117,0.428-2.086,1.134-2.875
			c0.739-0.772,1.692-1.249,2.826-1.249c1.084,0,2.069,0.477,2.743,1.249c0.738,0.788,1.15,1.758,1.15,2.875
			c0,1.15-0.412,2.168-1.15,2.891c-0.674,0.772-1.659,1.249-2.743,1.249C268.523,35.802,267.57,35.326,266.831,34.553z
			 M267.488,31.662c0,0.707,0.213,1.281,0.592,1.741c0.41,0.395,0.952,0.608,1.577,0.608c0.575,0,1.101-0.213,1.511-0.608
			c0.412-0.459,0.641-1.034,0.641-1.741c0-0.674-0.229-1.265-0.641-1.708c-0.41-0.361-0.936-0.624-1.511-0.624
			c-0.625,0-1.167,0.263-1.577,0.624C267.701,30.397,267.488,30.988,267.488,31.662z"/>
		<path fill="#39A7DE" d="M281.73,30.939c0,0.017,0,0.033,0,0.049v3.893c0,0.477-0.395,0.871-0.871,0.871
			c-0.459,0-0.887-0.394-0.887-0.871v-3.893c0-0.017,0-0.032,0-0.049c-0.016-0.903-0.772-1.642-1.691-1.642
			c-0.904,0-1.66,0.755-1.66,1.691v3.893c0,0.034-0.016,0.083-0.016,0.115c0,0.017,0,0.049,0,0.049
			c-0.017,0.033-0.017,0.066-0.049,0.099c0,0.017,0,0.049,0,0.082c-0.148,0.296-0.478,0.526-0.822,0.526
			c-0.065,0-0.115-0.017-0.164-0.017c-0.395-0.098-0.707-0.426-0.707-0.854v-3.893c0-0.017,0-0.017,0-0.017v-2.546
			c0-0.509,0.396-0.887,0.871-0.887c0.345,0,0.658,0.181,0.789,0.493c0.525-0.312,1.133-0.493,1.758-0.493
			c1.035,0,1.953,0.428,2.578,1.134c0.609-0.706,1.545-1.134,2.58-1.134c1.888,0,3.416,1.544,3.416,3.45v3.893
			c0,0.477-0.395,0.871-0.87,0.871c-0.478,0-0.888-0.394-0.888-0.871v-3.893c0-0.936-0.756-1.691-1.658-1.691
			C282.502,29.297,281.763,30.036,281.73,30.939z"/>
	</g>
</g>
<circle fill="#39A7DE" cx="252.176" cy="33.896" r="1.856"/>
<g>
	<g>
		<path fill="#39A7DE" d="M287.908,23.859v-0.725h3.87v0.725h-1.415v3.201h-1.038v-3.201H287.908z"/>
		<path fill="#39A7DE" d="M293.783,23.134l1.104,2.699h0.013l1.044-2.699h1.463v3.925h-0.973v-2.782h-0.014l-1.156,2.782h-0.801
			l-1.156-2.754h-0.014v2.754h-0.973v-3.925H293.783z"/>
	</g>
</g>
</svg>
